<svg id="svg" version="1.1" xmlns="http://www.w3.org/2000/svg" xmlns:xlink="http://www.w3.org/1999/xlink" width="400" height="400" viewBox="0, 0, 400,400"><g id="svgg"><path id="path0" d="M224.800 45.596 C 224.030 46.247,222.462 47.550,221.315 48.490 C 220.168 49.431,218.278 51.075,217.115 52.145 C 215.952 53.215,213.290 55.582,211.200 57.405 C 207.406 60.714,193.688 74.195,187.987 80.217 C 183.390 85.073,174.800 94.746,174.800 95.067 C 174.800 95.327,173.920 96.295,170.604 99.679 C 169.947 100.350,169.137 101.306,168.804 101.804 C 167.756 103.371,164.867 107.086,163.802 108.235 C 163.240 108.842,162.409 109.938,161.957 110.670 C 161.505 111.401,160.985 112.000,160.802 112.000 C 160.618 112.000,159.917 112.855,159.242 113.900 C 158.568 114.945,157.290 116.700,156.404 117.800 C 155.517 118.900,154.305 120.520,153.710 121.400 C 153.115 122.280,152.037 123.676,151.314 124.501 C 150.591 125.327,150.000 126.240,150.000 126.531 C 150.000 126.822,149.532 127.497,148.961 128.030 C 148.390 128.564,147.593 129.643,147.190 130.428 C 146.787 131.213,145.859 132.587,145.129 133.482 C 143.827 135.075,143.233 135.973,141.183 139.448 C 140.624 140.396,139.790 141.583,139.330 142.086 C 138.870 142.589,138.181 143.630,137.800 144.400 C 137.419 145.170,136.780 146.160,136.380 146.600 C 135.981 147.040,134.512 149.380,133.115 151.800 C 131.719 154.220,130.109 156.920,129.539 157.800 C 128.096 160.026,126.631 162.582,125.181 165.400 C 124.502 166.720,123.077 169.420,122.014 171.400 C 119.262 176.522,116.470 182.193,115.553 184.519 C 115.120 185.617,114.324 187.270,113.783 188.193 C 113.242 189.115,112.800 190.097,112.800 190.374 C 112.800 190.650,112.158 192.230,111.373 193.884 C 110.588 195.539,109.592 198.086,109.159 199.546 C 108.726 201.006,108.123 202.653,107.818 203.207 C 107.514 203.761,106.895 205.663,106.443 207.432 C 105.991 209.202,105.247 211.496,104.790 212.530 C 104.333 213.563,103.516 216.550,102.975 219.167 C 102.434 221.783,101.734 224.538,101.421 225.289 C 100.238 228.119,98.598 244.879,98.610 254.000 C 98.624 263.633,100.256 281.523,101.363 284.173 C 101.645 284.848,102.375 287.560,102.987 290.200 C 103.598 292.840,104.419 295.635,104.812 296.412 C 105.205 297.189,105.831 298.899,106.204 300.212 C 106.576 301.525,107.199 303.155,107.587 303.833 C 107.976 304.510,108.522 305.770,108.800 306.633 C 109.427 308.569,113.458 316.315,114.253 317.110 C 114.573 317.430,115.375 318.706,116.034 319.946 C 117.295 322.314,119.004 324.787,122.000 328.577 C 122.990 329.829,124.160 331.337,124.601 331.927 C 125.410 333.011,132.100 339.754,134.199 341.600 C 135.529 342.770,136.942 343.860,140.677 346.594 C 142.175 347.690,143.749 348.905,144.175 349.294 C 144.602 349.682,145.250 350.000,145.615 350.000 C 145.981 350.000,146.982 350.505,147.840 351.123 C 153.096 354.907,161.956 358.312,175.600 361.792 C 185.738 364.377,212.864 364.238,222.526 361.551 C 224.107 361.112,227.325 360.233,229.678 359.598 C 232.030 358.963,234.533 358.145,235.238 357.780 C 235.944 357.415,237.619 356.759,238.960 356.321 C 240.302 355.884,241.676 355.280,242.014 354.979 C 242.351 354.678,243.701 353.959,245.014 353.381 C 246.326 352.803,247.692 352.069,248.049 351.749 C 248.406 351.429,249.596 350.680,250.692 350.084 C 253.299 348.666,257.024 346.190,258.883 344.638 C 259.699 343.957,261.187 342.770,262.191 342.000 C 264.309 340.375,271.030 333.851,273.384 331.135 C 277.100 326.847,281.077 321.797,282.200 319.939 C 285.747 314.071,286.506 312.748,287.389 310.897 C 287.941 309.741,288.830 308.121,289.364 307.297 C 289.898 306.474,290.714 304.554,291.176 303.031 C 291.638 301.508,292.203 300.037,292.432 299.762 C 292.660 299.487,293.370 297.268,294.009 294.831 C 294.649 292.394,295.338 290.085,295.541 289.700 C 296.143 288.560,296.749 285.025,297.587 277.778 C 299.141 264.342,299.101 261.368,297.183 248.022 C 296.478 243.118,295.970 241.214,293.226 233.200 C 290.862 226.296,290.361 225.003,289.432 223.419 C 288.883 222.482,288.053 220.744,287.587 219.557 C 287.121 218.371,286.408 217.040,286.003 216.600 C 285.598 216.160,284.804 214.810,284.239 213.600 C 282.859 210.645,280.708 206.984,279.708 205.891 C 279.260 205.401,278.614 204.445,278.271 203.767 C 277.929 203.089,277.053 201.805,276.324 200.913 C 275.596 200.022,274.687 198.777,274.305 198.146 C 273.923 197.516,272.802 195.920,271.814 194.600 C 269.465 191.462,267.198 188.240,266.200 186.623 C 265.760 185.909,264.893 184.712,264.273 183.963 C 263.013 182.439,259.774 177.895,258.700 176.142 C 258.314 175.514,257.550 174.370,257.002 173.600 C 256.453 172.830,255.329 171.227,254.502 170.037 C 253.676 168.847,252.504 167.293,251.899 166.582 C 251.293 165.872,250.522 164.686,250.186 163.946 C 249.849 163.206,248.995 161.846,248.287 160.923 C 245.998 157.941,243.165 153.867,241.698 151.448 C 241.314 150.814,240.420 149.464,239.711 148.448 C 239.002 147.431,238.129 145.970,237.772 145.200 C 237.414 144.430,236.723 143.260,236.237 142.600 C 234.922 140.816,228.755 127.869,228.236 125.802 C 228.076 125.165,227.338 123.088,226.595 121.188 C 225.853 119.288,225.122 116.758,224.971 115.566 C 224.820 114.375,224.278 112.050,223.768 110.400 C 221.336 102.542,220.927 82.163,222.985 71.400 C 223.279 69.860,223.798 67.160,224.136 65.400 C 224.475 63.640,225.022 60.208,225.352 57.773 C 225.681 55.338,226.332 52.244,226.798 50.897 C 228.508 45.955,227.509 43.304,224.800 45.596 M6.572 136.755 C 6.866 137.230,5.815 138.073,5.399 137.697 C 5.219 137.533,5.208 137.637,5.376 137.926 C 5.618 138.346,5.831 138.315,6.430 137.773 C 7.083 137.182,7.152 136.400,6.553 136.400 C 6.443 136.400,6.451 136.560,6.572 136.755 M258.063 208.064 C 261.015 211.058,263.691 214.758,265.917 218.926 C 266.641 220.282,267.470 221.753,267.759 222.195 C 268.048 222.638,268.420 223.450,268.585 224.000 C 268.750 224.550,269.471 226.170,270.188 227.600 C 270.905 229.030,271.802 231.275,272.182 232.588 C 272.562 233.901,273.228 235.671,273.661 236.520 C 274.095 237.370,274.711 239.715,275.031 241.732 C 275.351 243.750,275.920 246.750,276.296 248.400 C 277.347 253.023,277.175 259.552,275.860 264.935 C 275.277 267.320,274.800 269.539,274.800 269.866 C 274.800 270.761,271.894 274.641,269.927 276.371 C 261.889 283.447,246.388 281.012,242.105 272.000 C 240.177 267.944,240.329 258.696,242.363 256.245 C 242.581 255.982,243.212 254.025,243.765 251.897 C 244.318 249.768,245.112 247.345,245.529 246.513 C 245.946 245.681,246.607 243.650,246.997 242.000 C 247.387 240.350,248.134 237.967,248.657 236.704 C 249.179 235.441,249.794 233.011,250.022 231.304 C 250.250 229.597,250.866 226.670,251.392 224.800 C 252.552 220.668,253.256 214.590,253.109 209.965 C 252.928 204.266,253.936 203.879,258.063 208.064 " stroke="none" fill="#051c24" fill-rule="evenodd"></path><path id="path1" d="M161.200 0.800 C 161.200 1.544,154.502 2.048,150.300 1.621 C 149.915 1.582,149.600 1.752,149.600 1.998 C 149.600 2.245,149.429 2.342,149.220 2.212 C 149.011 2.083,148.721 2.613,148.576 3.389 L 148.311 4.800 143.943 4.800 C 138.893 4.800,136.974 5.366,136.571 6.974 C 136.321 7.967,136.212 8.000,133.147 8.000 C 130.214 8.000,129.954 8.068,129.632 8.916 C 129.081 10.366,128.400 10.676,125.200 10.937 C 120.624 11.310,120.616 11.314,120.475 12.736 L 120.349 14.000 117.803 14.000 C 114.993 14.000,114.000 14.577,114.000 16.211 C 114.000 17.118,113.856 17.171,111.100 17.282 L 108.200 17.400 108.076 18.900 L 107.952 20.400 105.376 20.450 C 101.373 20.528,101.766 20.303,101.650 22.582 C 101.602 23.519,101.465 23.570,98.703 23.682 C 95.861 23.798,95.802 23.822,95.603 24.948 C 95.424 25.959,95.100 26.188,92.883 26.868 C 90.956 27.459,90.278 27.870,89.992 28.620 C 89.749 29.260,89.305 29.602,88.710 29.605 C 86.619 29.618,86.000 30.033,86.000 31.423 C 86.000 32.669,85.907 32.759,84.503 32.876 C 83.426 32.965,82.967 33.207,82.867 33.736 C 82.597 35.161,81.333 35.952,79.122 36.078 L 77.000 36.200 76.876 37.700 C 76.755 39.158,76.708 39.200,75.176 39.200 C 73.604 39.200,73.600 39.204,73.600 40.800 L 73.600 42.400 72.000 42.400 C 70.438 42.400,70.400 42.433,70.400 43.800 C 70.400 45.107,70.313 45.202,69.100 45.229 C 67.583 45.263,65.657 46.293,65.035 47.404 C 64.417 48.508,63.520 49.144,62.912 48.911 C 62.137 48.613,61.200 49.564,61.200 50.649 C 61.200 51.343,60.977 51.600,60.374 51.600 C 58.888 51.600,58.000 52.353,58.000 53.614 C 58.000 54.646,57.855 54.800,56.880 54.800 C 55.459 54.800,54.800 55.459,54.800 56.880 C 54.800 57.855,54.646 58.000,53.614 58.000 C 52.293 58.000,51.393 59.164,51.727 60.441 C 51.886 61.052,51.708 61.200,50.812 61.200 C 49.588 61.200,48.597 62.093,48.911 62.912 C 49.144 63.520,48.508 64.417,47.404 65.035 C 46.293 65.657,45.263 67.583,45.229 69.100 C 45.202 70.313,45.107 70.400,43.800 70.400 C 42.433 70.400,42.400 70.438,42.400 72.000 L 42.400 73.600 40.800 73.600 L 39.200 73.600 39.200 75.200 C 39.200 76.627,39.092 76.805,38.200 76.850 C 37.650 76.877,36.975 76.923,36.700 76.950 C 36.385 76.981,36.159 77.782,36.090 79.110 C 35.975 81.313,35.172 82.595,33.736 82.867 C 33.207 82.967,32.965 83.426,32.876 84.503 C 32.751 86.005,32.320 86.276,30.460 86.021 C 30.163 85.980,30.031 86.126,30.166 86.346 C 30.302 86.565,30.230 86.858,30.007 86.996 C 29.783 87.134,29.600 87.757,29.600 88.380 C 29.600 89.252,29.372 89.571,28.610 89.762 C 27.810 89.962,27.497 90.453,26.982 92.305 C 26.055 95.647,26.079 95.596,25.413 95.650 C 25.076 95.678,24.575 95.723,24.300 95.750 C 23.963 95.784,23.762 96.739,23.683 98.677 L 23.566 101.554 22.083 101.677 L 20.600 101.800 20.484 104.877 L 20.367 107.954 18.884 108.077 L 17.400 108.200 17.282 111.100 C 17.171 113.856,17.118 114.000,16.211 114.000 C 14.577 114.000,14.000 114.993,14.000 117.803 L 14.000 120.349 12.700 120.475 L 11.400 120.600 11.034 123.894 C 10.733 126.609,10.533 127.231,9.898 127.432 C 8.720 127.806,8.000 130.050,8.000 133.344 C 8.000 136.198,7.960 136.323,6.974 136.571 C 5.362 136.975,4.800 138.891,4.800 143.987 C 4.800 148.133,4.752 148.400,4.000 148.400 C 3.560 148.400,3.200 148.574,3.200 148.787 C 3.200 149.001,2.946 149.078,2.636 148.959 C 2.112 148.757,1.484 149.823,1.634 150.659 C 2.126 153.410,1.510 161.200,0.800 161.200 C 0.005 161.200,0.000 161.467,0.000 200.000 C 0.000 238.533,0.005 238.800,0.800 238.800 C 1.538 238.800,2.006 244.768,1.648 249.600 C 1.575 250.581,2.204 251.234,3.337 251.354 C 4.808 251.511,4.752 251.328,4.825 256.240 C 4.884 260.225,5.474 263.200,6.204 263.200 C 6.338 263.200,6.333 262.975,6.194 262.700 C 6.055 262.425,6.179 262.486,6.470 262.835 C 6.762 263.184,7.225 263.394,7.500 263.302 C 7.873 263.176,8.000 263.959,8.000 266.380 C 8.000 269.953,8.684 272.182,9.898 272.568 C 10.533 272.769,10.733 273.391,11.034 276.106 L 11.400 279.400 12.700 279.525 L 14.000 279.651 14.000 282.203 C 14.000 284.891,14.727 286.000,16.489 286.000 C 17.090 286.000,17.200 286.365,17.200 288.367 C 17.200 291.567,17.417 292.000,19.026 292.000 L 20.366 292.000 20.483 295.100 L 20.600 298.200 22.083 298.323 L 23.566 298.446 23.683 301.299 C 23.800 304.148,23.802 304.152,25.100 304.487 C 25.815 304.672,26.400 305.055,26.400 305.339 C 26.400 307.152,27.690 310.007,28.614 310.239 C 29.275 310.405,29.602 310.769,29.605 311.343 C 29.618 313.379,30.043 314.000,31.423 314.000 C 32.669 314.000,32.759 314.093,32.876 315.497 C 32.965 316.574,33.207 317.033,33.736 317.133 C 35.158 317.403,35.952 318.668,36.078 320.865 C 36.198 322.940,36.224 322.979,37.700 323.327 C 39.070 323.649,39.200 323.797,39.200 325.040 C 39.200 326.360,39.247 326.400,40.800 326.400 L 42.400 326.400 42.400 328.000 C 42.400 329.562,42.433 329.600,43.800 329.600 C 45.107 329.600,45.202 329.687,45.229 330.900 C 45.266 332.523,46.365 334.473,47.541 335.000 C 48.032 335.220,48.527 335.850,48.641 336.400 C 48.982 338.050,49.426 338.593,50.540 338.727 C 51.291 338.816,51.600 339.086,51.600 339.653 C 51.600 341.113,52.361 342.000,53.614 342.000 C 54.654 342.000,54.800 342.142,54.800 343.151 C 54.800 344.124,55.818 345.621,56.261 345.300 C 57.044 344.735,58.000 345.333,58.000 346.386 C 58.000 347.647,58.888 348.400,60.374 348.400 C 61.146 348.400,61.369 348.771,61.242 349.847 C 61.213 350.092,61.462 350.519,61.795 350.796 C 62.128 351.072,62.400 351.195,62.400 351.070 C 62.400 350.488,64.661 351.713,65.008 352.483 C 65.526 353.631,67.487 354.734,69.076 354.771 C 70.255 354.798,70.361 354.913,70.476 356.300 C 70.593 357.719,70.681 357.807,72.100 357.924 C 73.519 358.042,73.600 358.123,73.600 359.424 C 73.600 360.759,73.647 360.800,75.176 360.800 C 76.708 360.800,76.755 360.842,76.876 362.300 L 77.000 363.800 79.122 363.922 C 81.333 364.048,82.597 364.839,82.867 366.264 C 82.967 366.793,83.426 367.035,84.503 367.124 C 85.907 367.241,86.000 367.331,86.000 368.577 C 86.000 369.967,86.619 370.382,88.710 370.395 C 89.297 370.398,89.748 370.737,89.981 371.351 C 90.344 372.305,91.962 373.159,94.197 373.576 C 95.144 373.753,95.437 374.050,95.600 375.000 C 95.804 376.189,95.831 376.201,98.680 376.317 L 101.554 376.434 101.677 377.917 L 101.800 379.400 104.877 379.516 L 107.954 379.633 108.077 381.116 L 108.200 382.600 111.100 382.718 C 113.786 382.826,114.000 382.900,114.006 383.718 C 114.019 385.606,114.599 385.898,118.475 385.967 C 120.284 385.999,120.354 386.045,120.475 387.284 C 120.626 388.832,121.342 389.103,125.438 389.160 C 128.356 389.201,129.117 389.581,129.727 391.300 C 129.935 391.887,130.487 392.000,133.144 392.000 C 136.213 392.000,136.321 392.033,136.571 393.026 C 136.975 394.638,138.891 395.200,143.987 395.200 C 148.089 395.200,148.400 395.255,148.400 395.976 C 148.400 396.403,148.583 396.866,148.807 397.004 C 149.030 397.142,149.122 397.402,149.011 397.582 C 148.648 398.169,150.511 398.389,155.900 398.395 C 160.932 398.400,161.200 398.441,161.200 399.200 C 161.200 399.995,161.467 400.000,200.000 400.000 C 238.533 400.000,238.800 399.995,238.800 399.200 C 238.800 398.437,239.067 398.400,244.551 398.400 C 251.030 398.400,251.284 398.295,251.569 395.500 C 251.586 395.335,253.586 395.200,256.013 395.200 C 261.109 395.200,263.025 394.638,263.429 393.026 C 263.679 392.033,263.788 392.000,266.853 392.000 C 269.786 392.000,270.046 391.932,270.368 391.084 C 270.941 389.577,271.632 389.303,275.333 389.117 C 279.051 388.931,279.582 388.654,279.594 386.900 C 279.600 386.061,279.773 386.000,282.171 386.000 C 285.008 386.000,286.000 385.427,286.000 383.789 C 286.000 382.882,286.144 382.829,288.900 382.718 L 291.800 382.600 291.923 381.116 L 292.046 379.633 295.123 379.516 L 298.200 379.400 298.323 377.917 L 298.446 376.434 301.309 376.317 C 304.162 376.200,304.174 376.195,304.544 374.900 C 304.850 373.832,305.115 373.600,306.035 373.600 C 307.480 373.600,309.855 372.196,310.120 371.186 C 310.266 370.624,310.669 370.400,311.530 370.400 C 313.514 370.400,314.000 370.038,314.000 368.557 C 314.000 367.278,314.079 367.200,315.373 367.200 C 316.416 367.200,316.810 366.998,317.013 366.361 C 317.518 364.767,318.656 364.049,320.878 363.922 C 322.960 363.802,323.007 363.772,323.366 362.320 C 323.678 361.056,323.911 360.823,324.966 360.720 C 326.031 360.617,326.217 360.425,326.324 359.323 C 326.436 358.166,326.587 358.034,327.924 357.923 C 329.315 357.807,329.407 357.714,329.524 356.300 C 329.645 354.842,329.692 354.800,331.224 354.800 C 332.091 354.800,332.800 354.663,332.800 354.495 C 332.800 354.327,333.190 354.012,333.667 353.795 C 334.144 353.578,334.729 353.040,334.967 352.600 C 335.525 351.570,336.025 351.214,336.929 351.206 C 337.902 351.198,338.800 350.250,338.800 349.229 C 338.800 348.658,339.057 348.400,339.626 348.400 C 341.112 348.400,342.000 347.647,342.000 346.386 C 342.000 345.354,342.145 345.200,343.120 345.200 C 344.541 345.200,345.200 344.541,345.200 343.120 C 345.200 342.283,345.402 341.987,346.000 341.950 C 347.479 341.858,347.628 341.802,348.008 341.200 C 348.217 340.870,348.391 340.195,348.394 339.700 C 348.398 339.058,348.638 338.800,349.229 338.800 C 350.250 338.800,351.198 337.902,351.206 336.929 C 351.214 336.025,351.570 335.525,352.600 334.967 C 353.040 334.729,353.578 334.144,353.795 333.667 C 354.012 333.190,354.327 332.800,354.495 332.800 C 354.663 332.800,354.800 332.091,354.800 331.224 C 354.800 329.692,354.842 329.645,356.300 329.524 C 357.714 329.407,357.807 329.315,357.923 327.924 C 358.034 326.587,358.166 326.436,359.323 326.324 C 360.434 326.216,360.616 326.035,360.723 324.927 C 360.827 323.858,361.052 323.609,362.123 323.376 C 363.722 323.030,363.986 322.623,363.994 320.500 C 364.000 318.704,364.883 317.395,366.264 317.133 C 366.793 317.033,367.035 316.574,367.124 315.497 C 367.237 314.140,367.357 314.000,368.410 314.000 C 369.688 314.000,370.400 313.094,370.400 311.470 C 370.400 310.778,370.672 310.418,371.317 310.257 C 372.333 310.002,373.600 307.588,373.600 305.909 C 373.600 305.128,373.859 304.822,374.696 304.612 C 376.184 304.238,376.387 303.798,376.394 300.924 L 376.400 298.448 377.900 298.324 L 379.400 298.200 379.516 295.123 L 379.633 292.046 381.116 291.923 L 382.600 291.800 382.718 288.900 C 382.829 286.144,382.882 286.000,383.789 286.000 C 385.423 286.000,386.000 285.007,386.000 282.197 L 386.000 279.651 387.284 279.525 C 388.784 279.379,389.098 278.643,389.160 275.127 C 389.194 273.224,389.330 272.813,390.000 272.600 C 391.279 272.194,391.756 270.848,391.985 267.000 C 392.139 264.421,392.342 263.428,392.700 263.500 C 392.975 263.555,393.200 263.420,393.200 263.200 C 393.200 262.980,393.425 262.845,393.700 262.900 C 393.975 262.955,394.155 262.775,394.100 262.500 C 394.045 262.225,394.180 262.000,394.400 262.000 C 394.620 262.000,394.771 261.865,394.736 261.700 C 394.702 261.535,394.789 261.130,394.931 260.800 C 395.073 260.470,395.236 258.240,395.294 255.844 L 395.400 251.488 396.544 251.366 C 398.209 251.190,398.189 251.264,398.329 244.768 C 398.449 239.186,398.507 238.800,399.229 238.800 C 399.985 238.800,400.000 238.050,400.000 200.000 C 400.000 161.467,399.995 161.200,399.200 161.200 C 398.438 161.200,398.400 160.933,398.400 155.633 C 398.400 149.113,398.345 148.901,396.561 148.566 L 395.200 148.311 395.200 143.755 C 395.200 140.752,395.052 139.200,394.767 139.200 C 394.528 139.200,394.409 138.975,394.502 138.700 C 394.594 138.425,394.384 137.962,394.035 137.670 C 393.526 137.246,393.519 137.192,394.000 137.400 C 394.330 137.543,394.251 137.376,393.824 137.030 C 393.396 136.683,392.811 136.400,392.524 136.400 C 392.138 136.400,392.000 135.603,392.000 133.387 C 392.000 129.990,391.283 127.807,390.037 127.412 C 389.339 127.190,389.192 126.802,389.153 125.073 C 389.079 121.856,388.705 120.608,387.794 120.543 C 387.357 120.511,386.775 120.466,386.500 120.443 C 386.163 120.414,386.000 119.648,386.000 118.089 C 386.000 115.417,385.236 114.000,383.795 114.000 C 382.881 114.000,382.829 113.862,382.718 111.100 L 382.600 108.200 381.116 108.077 L 379.633 107.954 379.516 104.877 L 379.400 101.800 377.917 101.677 L 376.434 101.554 376.317 98.714 C 376.218 96.319,376.085 95.857,375.469 95.768 C 374.049 95.562,373.600 95.215,373.600 94.326 C 373.600 92.566,372.334 89.999,371.343 89.750 C 370.722 89.594,370.398 89.221,370.395 88.657 C 370.382 86.621,369.957 86.000,368.577 86.000 C 367.331 86.000,367.241 85.907,367.124 84.503 C 367.035 83.426,366.793 82.967,366.264 82.867 C 364.839 82.597,364.048 81.333,363.922 79.122 L 363.800 77.000 362.300 76.876 C 360.842 76.755,360.800 76.708,360.800 75.176 C 360.800 73.647,360.759 73.600,359.424 73.600 C 358.123 73.600,358.042 73.519,357.924 72.100 C 357.807 70.681,357.719 70.593,356.300 70.476 C 354.913 70.361,354.798 70.255,354.771 69.076 C 354.734 67.487,353.631 65.526,352.483 65.008 C 351.713 64.661,350.488 62.400,351.070 62.400 C 351.195 62.400,351.072 62.128,350.796 61.795 C 350.519 61.462,350.092 61.213,349.847 61.242 C 348.843 61.360,348.400 61.169,348.400 60.619 C 348.400 59.183,347.468 58.000,346.336 58.000 C 345.467 58.000,345.200 57.812,345.200 57.200 C 345.200 55.980,345.164 55.838,344.717 55.300 C 344.489 55.025,343.784 54.800,343.151 54.800 C 342.154 54.800,342.000 54.648,342.000 53.668 C 342.000 52.491,340.713 51.422,339.600 51.674 C 339.259 51.751,338.959 51.354,338.822 50.643 C 338.589 49.427,338.051 48.983,336.400 48.641 C 335.850 48.527,335.220 48.032,335.000 47.541 C 334.473 46.365,332.523 45.266,330.900 45.229 C 329.687 45.202,329.600 45.107,329.600 43.800 C 329.600 42.433,329.562 42.400,328.000 42.400 L 326.400 42.400 326.400 40.800 C 326.400 39.253,326.356 39.200,325.063 39.200 C 323.860 39.200,323.681 39.047,323.266 37.664 C 322.816 36.162,322.761 36.125,320.795 36.056 C 318.689 35.981,317.405 35.168,317.133 33.736 C 317.033 33.207,316.574 32.965,315.497 32.876 C 314.093 32.759,314.000 32.669,314.000 31.423 C 314.000 30.029,313.381 29.618,311.263 29.605 C 310.658 29.602,310.249 29.310,310.112 28.784 C 309.865 27.842,308.388 26.984,306.355 26.603 C 305.207 26.387,304.844 26.077,304.443 24.968 L 303.948 23.600 301.198 23.600 L 298.448 23.600 298.324 22.100 L 298.200 20.600 295.123 20.484 L 292.046 20.367 291.923 18.884 L 291.800 17.400 288.900 17.282 C 287.305 17.218,285.985 17.038,285.967 16.882 C 285.948 16.727,285.887 16.178,285.831 15.663 C 285.686 14.339,284.953 14.013,282.100 14.006 C 279.601 14.000,279.600 13.999,279.600 12.824 C 279.600 11.294,279.517 11.258,275.348 10.952 C 271.609 10.677,270.933 10.401,270.368 8.916 C 270.046 8.068,269.786 8.000,266.853 8.000 C 263.788 8.000,263.678 7.967,263.429 6.975 C 263.041 5.429,261.272 4.900,256.240 4.825 C 251.335 4.752,251.511 4.805,251.357 3.357 C 251.173 1.638,251.365 1.682,243.900 1.633 C 239.078 1.602,238.800 1.556,238.800 0.800 C 238.800 0.005,238.533 0.000,200.000 0.000 C 161.467 0.000,161.200 0.005,161.200 0.800 M227.523 46.527 C 227.600 47.735,227.331 49.356,226.798 50.897 C 226.332 52.244,225.681 55.338,225.352 57.773 C 225.022 60.208,224.475 63.640,224.136 65.400 C 223.798 67.160,223.279 69.860,222.985 71.400 C 220.927 82.163,221.336 102.542,223.768 110.400 C 224.278 112.050,224.820 114.375,224.971 115.566 C 225.122 116.758,225.853 119.288,226.595 121.188 C 227.338 123.088,228.076 125.165,228.236 125.802 C 228.755 127.869,234.922 140.816,236.237 142.600 C 236.723 143.260,237.414 144.430,237.772 145.200 C 238.129 145.970,239.002 147.431,239.711 148.448 C 240.420 149.464,241.314 150.814,241.698 151.448 C 243.165 153.867,245.998 157.941,248.287 160.923 C 248.995 161.846,249.849 163.206,250.186 163.946 C 250.522 164.686,251.293 165.872,251.899 166.582 C 252.504 167.293,253.676 168.847,254.502 170.037 C 255.329 171.227,256.453 172.830,257.002 173.600 C 257.550 174.370,258.314 175.514,258.700 176.142 C 259.774 177.895,263.013 182.439,264.273 183.963 C 264.893 184.712,265.760 185.909,266.200 186.623 C 267.198 188.240,269.465 191.462,271.814 194.600 C 272.802 195.920,273.923 197.516,274.305 198.146 C 274.687 198.777,275.596 200.022,276.324 200.913 C 277.053 201.805,277.929 203.089,278.271 203.767 C 278.614 204.445,279.260 205.401,279.708 205.891 C 280.708 206.984,282.859 210.645,284.239 213.600 C 284.804 214.810,285.598 216.160,286.003 216.600 C 286.408 217.040,287.121 218.371,287.587 219.557 C 288.053 220.744,288.883 222.482,289.432 223.419 C 290.361 225.003,290.862 226.296,293.226 233.200 C 295.970 241.214,296.478 243.118,297.183 248.022 C 299.101 261.368,299.141 264.342,297.587 277.778 C 296.749 285.025,296.143 288.560,295.541 289.700 C 295.338 290.085,294.649 292.394,294.009 294.831 C 293.370 297.268,292.660 299.487,292.432 299.762 C 292.203 300.037,291.638 301.508,291.176 303.031 C 290.714 304.554,289.898 306.474,289.364 307.297 C 288.830 308.121,287.941 309.741,287.389 310.897 C 286.506 312.748,285.747 314.071,282.200 319.939 C 281.077 321.797,277.100 326.847,273.384 331.135 C 271.030 333.851,264.309 340.375,262.191 342.000 C 261.187 342.770,259.699 343.957,258.883 344.638 C 257.024 346.190,253.299 348.666,250.692 350.084 C 249.596 350.680,248.406 351.429,248.049 351.749 C 247.692 352.069,246.326 352.803,245.014 353.381 C 243.701 353.959,242.351 354.678,242.014 354.979 C 241.676 355.280,240.302 355.884,238.960 356.321 C 237.619 356.759,235.944 357.415,235.238 357.780 C 234.533 358.145,232.030 358.963,229.678 359.598 C 227.325 360.233,224.107 361.112,222.526 361.551 C 212.864 364.238,185.738 364.377,175.600 361.792 C 161.956 358.312,153.096 354.907,147.840 351.123 C 146.982 350.505,145.981 350.000,145.615 350.000 C 145.250 350.000,144.602 349.682,144.175 349.294 C 143.749 348.905,142.175 347.690,140.677 346.594 C 136.942 343.860,135.529 342.770,134.199 341.600 C 132.100 339.754,125.410 333.011,124.601 331.927 C 124.160 331.337,122.990 329.829,122.000 328.577 C 119.004 324.787,117.295 322.314,116.034 319.946 C 115.375 318.706,114.573 317.430,114.253 317.110 C 113.458 316.315,109.427 308.569,108.800 306.633 C 108.522 305.770,107.976 304.510,107.587 303.833 C 107.199 303.155,106.576 301.525,106.204 300.212 C 105.831 298.899,105.205 297.189,104.812 296.412 C 104.419 295.635,103.598 292.840,102.987 290.200 C 102.375 287.560,101.645 284.848,101.363 284.173 C 98.032 276.199,98.074 233.299,101.421 225.289 C 101.734 224.538,102.434 221.783,102.975 219.167 C 103.516 216.550,104.333 213.563,104.790 212.530 C 105.247 211.496,105.991 209.202,106.443 207.432 C 106.895 205.663,107.514 203.761,107.818 203.207 C 108.123 202.653,108.726 201.006,109.159 199.546 C 109.592 198.086,110.588 195.539,111.373 193.884 C 112.158 192.230,112.800 190.650,112.800 190.374 C 112.800 190.097,113.242 189.115,113.783 188.193 C 114.324 187.270,115.120 185.617,115.553 184.519 C 116.470 182.193,119.262 176.522,122.014 171.400 C 123.077 169.420,124.502 166.720,125.181 165.400 C 126.631 162.582,128.096 160.026,129.539 157.800 C 130.109 156.920,131.719 154.220,133.115 151.800 C 134.512 149.380,135.981 147.040,136.380 146.600 C 136.780 146.160,137.419 145.170,137.800 144.400 C 138.181 143.630,138.870 142.589,139.330 142.086 C 139.790 141.583,140.624 140.396,141.183 139.448 C 143.233 135.973,143.827 135.075,145.129 133.482 C 145.859 132.587,146.787 131.213,147.190 130.428 C 147.593 129.643,148.390 128.564,148.961 128.030 C 149.532 127.497,150.000 126.822,150.000 126.531 C 150.000 126.240,150.591 125.327,151.314 124.501 C 152.037 123.676,153.115 122.280,153.710 121.400 C 154.305 120.520,155.517 118.900,156.404 117.800 C 157.290 116.700,158.568 114.945,159.242 113.900 C 159.917 112.855,160.618 112.000,160.802 112.000 C 160.985 112.000,161.505 111.401,161.957 110.670 C 162.409 109.938,163.240 108.842,163.802 108.235 C 164.867 107.086,167.756 103.371,168.804 101.804 C 169.137 101.306,169.947 100.350,170.604 99.679 C 173.920 96.295,174.800 95.327,174.800 95.067 C 174.800 94.746,183.390 85.073,187.987 80.217 C 193.688 74.195,207.406 60.714,211.200 57.405 C 213.290 55.582,215.952 53.215,217.115 52.145 C 218.278 51.075,220.168 49.431,221.315 48.490 C 222.462 47.550,224.030 46.247,224.800 45.596 C 226.741 43.954,227.372 44.170,227.523 46.527 M253.549 205.865 C 253.156 206.341,253.031 207.509,253.109 209.965 C 253.256 214.590,252.552 220.668,251.392 224.800 C 250.866 226.670,250.250 229.597,250.022 231.304 C 249.794 233.011,249.179 235.441,248.657 236.704 C 248.134 237.967,247.387 240.350,246.997 242.000 C 246.607 243.650,245.946 245.681,245.529 246.513 C 245.112 247.345,244.318 249.768,243.765 251.897 C 243.212 254.025,242.581 255.982,242.363 256.245 C 240.329 258.696,240.177 267.944,242.105 272.000 C 246.388 281.012,261.889 283.447,269.927 276.371 C 271.894 274.641,274.800 270.761,274.800 269.866 C 274.800 269.539,275.277 267.320,275.860 264.935 C 277.175 259.552,277.347 253.023,276.296 248.400 C 275.920 246.750,275.351 243.750,275.031 241.732 C 274.711 239.715,274.095 237.370,273.661 236.520 C 273.228 235.671,272.562 233.901,272.182 232.588 C 271.802 231.275,270.905 229.030,270.188 227.600 C 269.471 226.170,268.750 224.550,268.585 224.000 C 268.420 223.450,268.048 222.638,267.759 222.195 C 267.470 221.753,266.641 220.282,265.917 218.926 C 261.508 210.671,255.136 203.942,253.549 205.865 " stroke="none" fill="#ace4fb" fill-rule="evenodd"></path></g></svg>