<svg id="svg" version="1.1" xmlns="http://www.w3.org/2000/svg" xmlns:xlink="http://www.w3.org/1999/xlink" width="400" height="400" viewBox="0, 0, 400,400"><g id="svgg"><path id="path0" d="M158.400 0.800 C 158.400 1.240,158.580 1.600,158.800 1.600 C 159.020 1.600,159.200 1.240,159.200 0.800 C 159.200 0.360,159.020 0.000,158.800 0.000 C 158.580 0.000,158.400 0.360,158.400 0.800 M146.996 2.007 C 146.858 2.230,146.590 2.317,146.400 2.200 C 146.210 2.083,145.950 2.157,145.821 2.366 C 145.358 3.115,146.242 3.122,147.211 2.378 C 147.755 1.960,147.986 1.614,147.724 1.609 C 147.462 1.604,147.134 1.783,146.996 2.007 M293.821 17.966 C 293.692 18.174,293.773 18.460,294.000 18.600 C 294.227 18.740,294.292 19.051,294.145 19.289 C 293.985 19.549,294.063 19.609,294.338 19.438 C 294.592 19.281,294.800 19.373,294.800 19.643 C 294.800 19.913,294.916 20.018,295.057 19.876 C 295.198 19.735,295.110 19.373,294.860 19.073 C 294.611 18.772,294.507 18.426,294.630 18.303 C 294.753 18.181,294.674 17.969,294.454 17.834 C 294.235 17.698,293.950 17.757,293.821 17.966 M298.600 21.200 C 298.464 21.420,298.498 21.623,298.676 21.651 C 300.074 21.872,300.748 21.840,300.577 21.562 C 300.465 21.382,300.081 21.348,299.722 21.485 C 299.285 21.653,299.165 21.581,299.358 21.268 C 299.517 21.011,299.467 20.800,299.247 20.800 C 299.027 20.800,298.736 20.980,298.600 21.200 M99.604 21.795 C 98.618 22.983,99.492 23.841,100.615 22.786 C 101.354 22.091,101.480 21.771,101.104 21.532 C 100.392 21.080,100.165 21.120,99.604 21.795 M299.417 22.827 C 299.548 23.040,299.807 23.119,299.993 23.004 C 300.179 22.889,300.412 23.021,300.511 23.298 C 300.610 23.574,300.835 23.665,301.012 23.500 C 301.432 23.108,301.113 22.814,300.043 22.608 C 299.554 22.514,299.282 22.609,299.417 22.827 M153.400 66.596 C 152.123 67.160,151.025 68.205,149.526 70.284 C 149.017 70.991,147.725 72.684,146.655 74.048 C 144.813 76.396,141.241 83.604,140.633 86.200 C 140.478 86.860,139.840 88.570,139.215 90.000 C 138.188 92.348,137.141 95.539,133.243 108.200 C 132.566 110.400,131.747 113.481,131.423 115.046 C 131.099 116.612,130.379 119.101,129.822 120.579 C 129.266 122.057,128.513 124.736,128.149 126.533 C 127.786 128.330,127.054 130.953,126.524 132.362 C 125.994 133.770,125.298 136.677,124.978 138.821 C 124.657 140.964,123.959 143.878,123.425 145.295 C 122.892 146.712,122.159 149.015,121.797 150.412 C 121.435 151.809,120.774 153.666,120.329 154.540 C 119.883 155.413,119.172 157.854,118.748 159.964 C 117.894 164.214,115.710 170.430,114.096 173.200 C 113.519 174.190,112.650 176.350,112.164 178.000 C 110.929 182.190,107.664 189.682,103.884 197.000 C 102.747 199.200,101.044 202.530,100.100 204.400 C 97.572 209.405,93.843 216.154,91.470 220.017 C 90.314 221.900,84.222 229.240,80.058 233.767 C 78.220 235.765,76.240 238.030,75.658 238.800 C 75.076 239.570,73.332 241.730,71.782 243.600 C 70.232 245.470,68.612 247.470,68.182 248.044 C 67.752 248.618,66.590 250.138,65.600 251.423 C 53.398 267.257,53.113 281.158,64.796 290.596 C 65.343 291.038,66.080 291.687,66.433 292.037 C 68.365 293.956,76.968 299.075,79.800 299.991 C 80.680 300.275,82.120 300.913,83.000 301.409 C 83.880 301.904,85.860 302.714,87.400 303.210 C 88.940 303.705,90.920 304.517,91.800 305.015 C 92.680 305.513,94.702 306.210,96.294 306.564 C 97.885 306.917,100.135 307.585,101.294 308.048 C 102.452 308.510,105.200 309.392,107.400 310.008 C 109.600 310.623,114.190 311.959,117.600 312.977 C 121.010 313.994,126.500 315.280,129.800 315.835 C 133.100 316.389,137.780 317.277,140.200 317.807 C 144.097 318.661,152.362 319.888,163.400 321.250 C 175.119 322.696,232.765 322.052,239.400 320.400 C 241.297 319.928,245.369 319.429,249.400 319.175 C 253.140 318.939,258.180 318.394,260.600 317.964 C 263.020 317.534,266.845 316.925,269.100 316.611 C 273.225 316.036,277.834 314.987,285.600 312.854 C 295.554 310.121,297.529 309.550,299.800 308.750 C 301.120 308.285,304.054 307.385,306.320 306.749 C 308.587 306.113,311.287 305.169,312.320 304.651 C 313.354 304.133,314.920 303.489,315.800 303.221 C 316.680 302.952,318.480 302.225,319.800 301.605 C 321.120 300.985,324.090 299.586,326.400 298.495 C 334.079 294.871,339.821 290.290,343.712 284.683 C 346.910 280.074,346.900 280.108,346.900 273.702 C 346.900 267.448,346.622 266.511,343.294 261.526 C 342.692 260.625,341.986 259.509,341.724 259.044 C 340.882 257.553,337.656 253.953,331.454 247.584 C 324.119 240.052,317.550 232.630,315.395 229.439 C 311.943 224.328,309.948 221.024,309.125 219.057 C 308.653 217.926,308.024 216.713,307.728 216.363 C 307.432 216.012,306.748 214.598,306.207 213.219 C 305.667 211.840,305.056 210.507,304.850 210.256 C 303.872 209.066,299.843 199.204,297.718 192.800 C 297.171 191.150,296.363 188.810,295.923 187.600 C 295.483 186.390,294.597 183.540,293.954 181.266 C 293.311 178.992,292.543 176.652,292.246 176.066 C 291.950 175.480,291.479 174.010,291.200 172.800 C 290.921 171.590,290.105 169.430,289.387 168.000 C 288.669 166.570,287.859 164.680,287.588 163.800 C 286.090 158.933,280.567 151.933,276.399 149.620 C 272.670 147.549,272.234 147.423,268.800 147.419 C 264.845 147.414,261.054 149.124,256.730 152.864 C 254.132 155.111,250.007 160.708,250.002 161.992 C 250.000 162.579,248.587 165.060,245.486 169.923 C 243.727 172.679,243.267 173.477,241.247 177.264 C 238.577 182.270,233.930 187.298,231.448 187.866 C 228.171 188.616,223.432 185.187,217.910 178.072 C 216.970 176.860,215.560 175.133,214.777 174.234 C 212.697 171.845,209.835 167.675,208.707 165.392 C 208.166 164.296,207.043 162.140,206.211 160.600 C 201.552 151.980,191.827 132.174,190.989 129.600 C 190.452 127.950,189.662 126.030,189.233 125.334 C 188.804 124.638,188.090 122.894,187.647 121.458 C 187.204 120.023,186.463 118.108,186.001 117.202 C 185.539 116.297,184.718 114.027,184.176 112.158 C 183.635 110.288,182.938 108.363,182.627 107.880 C 182.317 107.396,181.756 105.920,181.381 104.600 C 181.005 103.280,180.353 101.515,179.930 100.678 C 179.507 99.841,178.727 97.659,178.197 95.829 C 177.667 93.999,176.879 91.894,176.447 91.151 C 176.015 90.408,175.358 88.720,174.986 87.400 C 174.614 86.080,173.973 84.370,173.561 83.600 C 173.150 82.830,172.440 81.300,171.983 80.200 C 169.860 75.090,164.203 67.708,161.481 66.498 C 160.030 65.852,154.942 65.914,153.400 66.596 M378.208 100.043 C 378.414 101.113,378.708 101.432,379.100 101.012 C 379.265 100.835,379.174 100.610,378.898 100.511 C 378.621 100.412,378.489 100.179,378.604 99.993 C 378.719 99.807,378.640 99.548,378.427 99.417 C 378.209 99.282,378.114 99.554,378.208 100.043 M22.004 100.196 C 21.732 100.523,21.350 100.693,21.155 100.572 C 20.960 100.451,20.800 100.533,20.800 100.753 C 20.800 101.533,21.412 101.439,22.286 100.526 C 22.773 100.017,23.020 99.600,22.835 99.600 C 22.649 99.600,22.276 99.868,22.004 100.196 M381.434 105.546 C 381.298 105.765,381.373 106.060,381.600 106.200 C 381.827 106.340,381.892 106.651,381.745 106.889 C 381.593 107.136,381.661 107.210,381.903 107.060 C 382.338 106.791,382.347 105.814,381.918 105.385 C 381.787 105.254,381.569 105.326,381.434 105.546 M384.006 111.420 C 383.999 111.929,384.824 112.800,385.313 112.800 C 385.508 112.800,385.602 112.607,385.523 112.370 C 385.445 112.134,385.225 111.969,385.035 112.004 C 384.845 112.039,384.537 111.828,384.351 111.534 C 384.165 111.240,384.009 111.189,384.006 111.420 M397.039 253.138 C 396.900 253.361,396.982 253.665,397.220 253.812 C 397.835 254.193,398.232 253.672,397.718 253.158 C 397.431 252.871,397.207 252.864,397.039 253.138 M385.031 286.936 C 385.282 287.590,384.197 288.569,383.618 288.211 C 383.388 288.069,383.200 288.143,383.200 288.376 C 383.200 288.913,383.834 288.917,384.826 288.386 C 385.614 287.964,385.918 286.400,385.213 286.400 C 384.999 286.400,384.918 286.641,385.031 286.936 M14.517 287.700 C 14.618 287.975,14.903 288.155,15.150 288.100 C 15.398 288.045,15.600 288.210,15.600 288.467 C 15.600 288.723,15.716 288.818,15.857 288.676 C 16.165 288.368,15.263 287.200,14.718 287.200 C 14.506 287.200,14.416 287.425,14.517 287.700 M381.873 293.445 C 382.065 293.947,381.994 294.044,381.606 293.804 C 381.229 293.571,381.171 293.629,381.404 294.006 C 381.644 294.394,381.547 294.465,381.045 294.273 C 380.582 294.095,380.452 294.160,380.645 294.473 C 380.836 294.782,380.710 294.851,380.266 294.681 C 379.900 294.540,379.600 294.599,379.600 294.813 C 379.600 295.303,380.078 295.303,381.374 294.810 C 382.406 294.418,382.741 293.458,382.005 293.003 C 381.770 292.858,381.716 293.037,381.873 293.445 M17.829 293.953 C 17.696 294.168,17.770 294.458,17.993 294.596 C 18.217 294.734,18.400 294.725,18.400 294.575 C 18.400 294.425,18.674 294.530,19.010 294.808 C 19.345 295.086,19.735 295.198,19.876 295.057 C 20.018 294.916,19.913 294.800,19.643 294.800 C 19.364 294.800,19.277 294.585,19.441 294.300 C 19.599 294.025,19.581 293.933,19.401 294.097 C 19.221 294.260,18.848 294.206,18.572 293.977 C 18.249 293.709,17.985 293.700,17.829 293.953 M21.067 298.667 C 20.614 299.119,20.773 299.664,21.268 299.358 C 21.581 299.165,21.653 299.285,21.485 299.722 C 21.348 300.081,21.391 300.471,21.582 300.589 C 21.774 300.707,21.880 300.347,21.819 299.789 C 21.692 298.635,21.454 298.280,21.067 298.667 M377.340 299.267 C 376.975 299.670,376.839 300.003,377.038 300.006 C 377.237 300.009,377.135 300.180,376.812 300.384 C 376.488 300.589,376.363 300.896,376.533 301.067 C 376.704 301.237,376.985 301.148,377.158 300.867 C 377.332 300.587,377.727 300.412,378.037 300.479 C 378.346 300.545,378.555 300.375,378.500 300.100 C 378.445 299.825,378.580 299.600,378.800 299.600 C 379.020 299.600,379.200 299.360,379.200 299.067 C 379.200 298.295,378.113 298.412,377.340 299.267 M378.293 299.556 C 378.259 300.006,378.022 300.230,377.708 300.109 C 377.305 299.955,377.289 299.775,377.639 299.353 C 378.248 298.619,378.361 298.655,378.293 299.556 M22.608 300.043 C 22.814 301.113,23.108 301.432,23.500 301.012 C 23.665 300.835,23.574 300.610,23.298 300.511 C 23.021 300.412,22.889 300.179,23.004 299.993 C 23.119 299.807,23.040 299.548,22.827 299.417 C 22.609 299.282,22.514 299.554,22.608 300.043 M372.188 310.020 C 371.807 310.635,372.328 311.032,372.842 310.518 C 373.129 310.231,373.136 310.007,372.862 309.839 C 372.639 309.700,372.335 309.782,372.188 310.020 M357.044 330.966 C 357.239 331.478,357.190 331.641,356.896 331.459 C 356.653 331.309,356.350 331.357,356.221 331.566 C 355.811 332.229,356.688 332.417,357.218 331.779 C 357.617 331.298,357.622 331.062,357.239 330.683 C 356.858 330.304,356.816 330.366,357.044 330.966 M331.553 356.276 C 331.527 356.454,331.534 356.757,331.569 356.949 C 331.604 357.141,331.310 357.175,330.916 357.025 C 330.340 356.806,330.298 356.851,330.703 357.259 C 331.108 357.668,331.329 357.643,331.841 357.130 C 332.274 356.698,332.337 356.408,332.038 356.224 C 331.797 356.075,331.579 356.098,331.553 356.276 M68.345 357.046 C 69.051 357.541,69.377 357.582,69.734 357.223 C 70.090 356.864,70.044 356.812,69.540 357.004 C 69.178 357.142,68.762 357.062,68.617 356.827 C 68.472 356.592,68.143 356.400,67.887 356.400 C 67.631 356.400,67.837 356.691,68.345 357.046 M99.331 377.037 C 99.049 377.770,99.969 378.898,100.638 378.641 C 100.919 378.533,101.236 378.660,101.343 378.922 C 101.454 379.197,101.550 379.121,101.568 378.743 C 101.586 378.381,101.330 377.982,101.000 377.855 C 100.670 377.729,100.400 377.417,100.400 377.164 C 100.400 376.841,100.610 376.861,101.100 377.232 C 101.694 377.681,101.725 377.677,101.304 377.205 C 100.618 376.435,99.595 376.348,99.331 377.037 M300.400 376.824 C 300.400 377.057,300.240 377.149,300.045 377.028 C 299.636 376.775,298.674 377.815,298.553 378.640 C 298.508 378.948,298.725 379.200,299.035 379.200 C 299.346 379.200,299.600 379.020,299.600 378.800 C 299.600 378.580,299.825 378.445,300.100 378.500 C 300.379 378.556,300.548 378.291,300.482 377.900 C 300.418 377.515,300.553 377.200,300.782 377.200 C 301.012 377.200,301.200 377.020,301.200 376.800 C 301.200 376.580,301.020 376.400,300.800 376.400 C 300.580 376.400,300.400 376.591,300.400 376.824 M300.113 377.718 C 300.231 378.025,299.992 378.261,299.526 378.296 C 298.884 378.344,298.828 378.249,299.219 377.777 C 299.805 377.071,299.863 377.067,300.113 377.718 M294.681 380.266 C 294.851 380.710,294.782 380.836,294.473 380.645 C 294.160 380.452,294.095 380.582,294.273 381.045 C 294.465 381.547,294.394 381.644,294.006 381.404 C 293.629 381.171,293.571 381.229,293.804 381.606 C 294.044 381.994,293.947 382.065,293.445 381.873 C 293.037 381.716,292.858 381.770,293.003 382.005 C 293.458 382.741,294.418 382.406,294.810 381.374 C 295.303 380.078,295.303 379.600,294.813 379.600 C 294.599 379.600,294.540 379.900,294.681 380.266 M253.730 396.663 C 253.875 396.808,253.770 397.197,253.497 397.528 C 253.090 398.021,253.109 398.094,253.600 397.932 C 254.341 397.687,254.645 396.400,253.963 396.400 C 253.690 396.400,253.585 396.518,253.730 396.663 M158.400 399.200 C 158.400 399.640,158.580 400.000,158.800 400.000 C 159.020 400.000,159.200 399.640,159.200 399.200 C 159.200 398.760,159.020 398.400,158.800 398.400 C 158.580 398.400,158.400 398.760,158.400 399.200 " stroke="none" fill="#050505" fill-rule="evenodd"></path><path id="path1" d="M159.200 0.800 C 159.200 1.532,152.272 2.084,148.870 1.623 C 148.579 1.584,148.092 1.758,147.788 2.010 C 147.484 2.262,147.068 2.365,146.863 2.239 C 146.261 1.867,145.511 3.090,145.794 3.981 C 146.036 4.743,140.961 5.269,137.670 4.823 C 136.911 4.720,135.960 5.612,136.031 6.361 C 136.181 7.930,136.071 7.972,131.500 8.087 L 127.000 8.200 126.878 9.455 C 126.757 10.696,126.728 10.712,124.078 10.951 C 122.605 11.084,121.175 11.224,120.900 11.263 C 120.614 11.303,120.400 11.904,120.400 12.667 L 120.400 14.000 117.424 14.000 C 115.787 14.000,114.351 14.156,114.233 14.346 C 114.115 14.537,113.581 14.609,113.045 14.506 C 111.975 14.302,110.955 15.585,111.357 16.631 C 111.525 17.070,111.171 17.200,109.811 17.200 C 108.841 17.200,107.928 17.392,107.783 17.627 C 107.638 17.862,107.244 17.949,106.909 17.820 C 106.055 17.493,105.136 18.368,105.414 19.243 C 105.651 19.989,105.162 20.222,102.800 20.488 C 101.733 20.608,99.600 22.252,99.600 22.955 C 99.600 23.188,99.880 22.978,100.223 22.489 C 100.565 22.000,101.047 21.600,101.292 21.600 C 101.538 21.600,101.324 22.042,100.817 22.582 C 100.309 23.123,99.783 23.551,99.647 23.535 C 96.906 23.206,95.629 23.638,95.377 24.982 C 95.106 26.425,95.011 26.465,90.800 26.933 C 89.896 27.034,89.146 27.895,89.280 28.677 C 89.356 29.115,89.105 29.419,88.600 29.501 C 86.721 29.807,86.007 30.032,86.050 30.307 C 86.368 32.377,86.024 32.800,84.026 32.800 C 81.235 32.800,80.201 33.279,80.090 34.623 C 79.978 35.975,80.064 35.892,78.600 36.060 C 77.172 36.223,76.814 36.630,76.806 38.100 C 76.800 39.150,76.035 39.467,73.980 39.274 C 73.859 39.263,73.716 39.910,73.662 40.712 C 73.541 42.505,73.793 42.326,71.192 42.469 C 69.867 42.543,68.791 42.829,68.470 43.195 C 68.092 43.628,68.024 43.640,68.232 43.238 C 68.430 42.856,68.367 42.773,68.035 42.979 C 67.766 43.145,67.635 43.515,67.745 43.802 C 68.059 44.620,67.114 45.549,65.800 45.716 C 65.140 45.799,64.591 46.032,64.580 46.234 C 64.520 47.357,63.854 48.400,63.197 48.400 C 62.784 48.400,62.334 48.583,62.196 48.807 C 62.058 49.030,61.814 49.133,61.655 49.034 C 61.496 48.936,61.323 49.418,61.271 50.107 C 61.155 51.629,61.291 51.499,59.600 51.694 C 58.763 51.790,58.178 52.085,58.146 52.427 C 58.117 52.742,58.072 53.394,58.046 53.876 C 58.009 54.589,57.721 54.775,56.500 54.876 C 55.086 54.993,54.993 55.085,54.877 56.477 C 54.762 57.865,54.665 57.962,53.277 58.077 C 52.464 58.145,51.778 58.425,51.750 58.700 C 51.723 58.975,51.678 59.650,51.650 60.200 C 51.607 61.064,51.412 61.200,50.218 61.200 C 48.958 61.200,48.813 61.322,48.576 62.586 C 48.338 63.858,47.573 64.508,46.234 64.580 C 46.032 64.591,45.799 65.140,45.716 65.800 C 45.549 67.114,44.620 68.059,43.802 67.745 C 43.515 67.635,43.145 67.766,42.979 68.035 C 42.773 68.367,42.856 68.430,43.238 68.232 C 43.650 68.019,43.640 68.082,43.200 68.470 C 42.870 68.762,42.560 69.613,42.511 70.362 C 42.412 71.887,41.046 73.600,39.930 73.600 C 39.529 73.600,39.221 73.735,39.247 73.900 C 39.546 75.793,39.148 76.800,38.100 76.806 C 36.630 76.814,36.223 77.172,36.060 78.600 C 35.892 80.064,35.975 79.978,34.623 80.090 C 33.279 80.201,32.800 81.235,32.800 84.026 C 32.800 86.039,32.570 86.237,30.545 85.966 C 30.064 85.902,29.612 86.999,29.606 88.245 C 29.601 89.339,29.485 89.467,28.647 89.307 C 27.691 89.124,27.089 89.653,26.951 90.800 C 26.430 95.109,26.432 95.105,24.982 95.377 C 23.652 95.627,23.600 95.703,23.600 97.418 C 23.600 98.867,23.466 99.200,22.880 99.200 C 22.104 99.200,21.200 99.922,21.200 100.542 C 21.200 100.752,21.529 100.626,21.931 100.262 C 23.033 99.265,23.297 99.467,22.286 100.533 C 21.799 101.047,21.242 101.452,21.049 101.433 C 20.856 101.415,20.629 101.940,20.544 102.600 C 20.210 105.205,20.002 105.655,19.243 105.414 C 18.368 105.136,17.493 106.055,17.820 106.909 C 17.949 107.244,17.862 107.638,17.627 107.783 C 17.392 107.928,17.200 108.830,17.200 109.786 C 17.200 111.240,17.085 111.498,16.500 111.357 C 15.002 110.998,14.032 112.984,14.010 116.454 C 14.002 117.557,13.759 118.066,13.000 118.563 C 12.450 118.924,12.000 119.469,12.000 119.776 C 12.000 120.082,11.809 120.397,11.576 120.475 C 11.343 120.552,11.048 121.998,10.920 123.687 L 10.688 126.758 9.444 126.879 L 8.200 127.000 8.000 131.600 C 7.802 136.161,7.792 136.199,6.847 136.095 C 5.711 135.971,4.747 136.672,4.831 137.561 C 5.214 141.582,4.754 146.039,3.981 145.794 C 2.921 145.458,1.913 146.294,2.218 147.256 C 2.353 147.682,2.260 148.000,2.002 148.000 C 1.753 148.000,1.582 148.315,1.621 148.700 C 2.068 153.098,1.550 158.802,0.700 158.840 C -0.163 158.878,-0.159 158.893,0.800 159.200 C 1.759 159.507,1.763 159.522,0.900 159.560 L 0.000 159.600 0.000 200.000 L 0.000 240.400 0.900 240.440 C 1.763 240.478,1.759 240.493,0.800 240.800 C -0.159 241.107,-0.163 241.122,0.700 241.160 C 1.578 241.199,1.601 241.315,1.633 245.900 C 1.652 248.485,1.729 250.960,1.806 251.400 C 2.236 253.864,2.381 254.087,3.686 254.286 C 4.845 254.463,4.757 254.118,4.831 258.792 C 4.896 262.962,5.271 264.133,6.491 263.972 C 7.899 263.787,7.974 264.000,8.087 268.500 C 8.192 272.673,8.258 273.004,9.000 273.057 C 9.440 273.089,10.001 273.134,10.246 273.157 C 10.503 273.182,10.782 274.347,10.904 275.900 C 11.129 278.769,12.003 280.959,13.173 281.586 C 13.688 281.861,13.945 282.623,14.099 284.322 C 14.304 286.575,15.395 288.457,16.618 288.665 C 16.972 288.725,17.597 291.135,17.743 293.000 C 17.853 294.412,18.376 294.916,19.112 294.319 C 19.483 294.019,19.638 293.993,19.479 294.258 C 19.328 294.510,19.463 294.815,19.778 294.936 C 20.114 295.065,20.403 295.833,20.476 296.785 C 20.544 297.681,20.760 298.396,20.955 298.373 C 21.358 298.326,21.988 299.197,21.988 299.800 C 21.988 300.020,21.813 299.930,21.600 299.600 C 21.387 299.270,21.209 299.189,21.206 299.420 C 21.199 299.901,22.014 300.800,22.457 300.800 C 22.620 300.800,22.684 300.435,22.598 299.989 C 22.511 299.538,22.613 299.284,22.827 299.417 C 23.040 299.548,23.119 299.807,23.004 299.993 C 22.889 300.179,22.966 300.392,23.176 300.466 C 23.386 300.540,23.600 301.453,23.653 302.496 C 23.744 304.294,23.817 304.404,25.056 304.637 C 26.393 304.888,26.668 305.542,26.904 309.030 C 26.953 309.760,27.997 311.167,28.290 310.900 C 28.869 310.373,29.600 310.978,29.600 311.986 C 29.600 313.247,30.488 314.000,31.974 314.000 C 32.697 314.000,32.800 314.246,32.800 315.976 C 32.800 317.063,32.983 318.066,33.207 318.204 C 33.430 318.342,33.522 318.602,33.411 318.782 C 33.218 319.094,34.372 320.309,34.661 320.100 C 35.327 319.620,36.000 320.159,36.000 321.171 C 36.000 322.596,36.921 323.600,38.229 323.600 C 39.072 323.600,39.200 323.784,39.200 325.000 C 39.200 326.089,39.362 326.400,39.930 326.400 C 41.056 326.400,42.364 328.064,42.456 329.612 C 42.582 331.722,43.107 332.511,44.241 332.294 C 45.222 332.107,45.442 332.441,45.759 334.604 C 45.866 335.333,47.705 336.162,48.175 335.692 C 48.299 335.568,48.400 335.936,48.400 336.510 C 48.400 337.083,48.583 337.666,48.807 337.804 C 49.030 337.942,49.109 338.223,48.983 338.428 C 48.856 338.632,49.168 338.803,49.676 338.806 C 50.967 338.815,51.495 339.239,51.659 340.400 C 51.833 341.634,52.284 341.986,53.700 341.994 C 54.751 342.000,54.998 342.524,54.766 344.255 C 54.704 344.715,55.778 345.188,56.900 345.194 C 57.792 345.199,58.009 345.390,58.050 346.200 C 58.078 346.750,58.123 347.425,58.150 347.700 C 58.178 347.977,58.869 348.255,59.700 348.324 C 61.166 348.445,61.537 349.064,61.247 350.900 C 61.221 351.065,61.470 351.222,61.800 351.250 C 62.130 351.278,62.580 351.345,62.800 351.400 C 63.020 351.455,63.368 351.523,63.573 351.550 C 63.959 351.602,64.619 353.170,64.479 353.700 C 64.436 353.865,64.535 354.013,64.700 354.030 C 66.780 354.236,68.277 355.228,67.764 356.059 C 67.648 356.247,67.754 356.400,68.000 356.400 C 68.246 356.400,68.346 356.564,68.222 356.765 C 68.098 356.966,68.442 357.081,68.987 357.021 C 69.532 356.961,69.895 357.047,69.793 357.211 C 69.569 357.573,70.998 357.987,72.500 357.995 C 73.489 357.999,73.600 358.141,73.600 359.400 C 73.600 360.763,73.642 360.800,75.176 360.800 C 76.708 360.800,76.755 360.842,76.876 362.300 C 76.993 363.719,77.081 363.807,78.500 363.924 C 79.945 364.044,80.279 364.506,80.055 366.076 C 80.013 366.373,81.425 366.948,82.400 367.031 C 82.730 367.059,83.675 367.108,84.500 367.141 C 85.935 367.197,86.000 367.261,86.000 368.592 C 86.000 370.024,86.108 370.104,88.600 370.494 C 89.155 370.581,89.364 370.878,89.283 371.461 C 89.133 372.544,90.315 373.112,93.489 373.482 C 95.040 373.663,95.199 373.790,95.434 375.039 C 95.676 376.331,95.778 376.403,97.445 376.450 C 100.486 376.537,100.748 376.586,101.280 377.181 C 101.729 377.682,101.704 377.689,101.100 377.232 C 100.610 376.861,100.400 376.841,100.400 377.164 C 100.400 377.417,100.670 377.729,101.000 377.855 C 101.330 377.982,101.600 378.426,101.600 378.843 C 101.600 379.259,101.735 379.579,101.900 379.553 C 103.966 379.226,105.636 379.656,105.384 380.450 C 105.184 381.080,105.247 381.218,105.625 380.984 C 105.991 380.758,106.061 380.863,105.873 381.355 C 105.716 381.763,105.770 381.942,106.005 381.797 C 106.222 381.663,106.400 381.713,106.400 381.910 C 106.400 382.106,106.625 382.297,106.900 382.335 C 110.477 382.823,111.388 383.076,111.285 383.556 C 111.222 383.850,111.492 384.353,111.885 384.675 C 112.278 384.996,112.347 385.128,112.038 384.968 C 111.682 384.783,111.575 384.836,111.746 385.113 C 111.894 385.353,112.327 385.551,112.708 385.554 C 113.563 385.560,120.177 386.083,120.261 386.151 C 120.295 386.178,120.385 386.740,120.461 387.400 C 120.633 388.886,121.164 389.136,124.217 389.172 C 126.591 389.199,126.642 389.224,127.017 390.500 L 127.400 391.800 131.595 391.931 C 135.712 392.059,136.551 392.341,136.124 393.453 C 135.662 394.658,136.977 395.103,141.189 395.169 C 145.798 395.242,146.005 395.294,145.735 396.328 C 145.491 397.262,146.561 398.156,147.598 397.885 C 148.039 397.769,148.400 397.838,148.400 398.037 C 148.400 398.237,150.830 398.400,153.800 398.400 C 158.933 398.400,159.200 398.440,159.200 399.200 C 159.200 400.291,159.903 400.215,160.118 399.100 L 160.291 398.200 160.346 399.100 L 160.400 400.000 200.400 400.000 L 240.400 400.000 240.440 399.100 C 240.478 398.237,240.493 398.241,240.800 399.200 C 241.107 400.159,241.122 400.163,241.160 399.300 C 241.199 398.415,241.287 398.400,246.376 398.400 C 249.451 398.400,251.655 398.235,251.804 397.993 C 251.942 397.770,252.231 397.695,252.445 397.828 C 252.942 398.135,254.064 397.227,253.772 396.755 C 253.651 396.560,253.763 396.400,254.019 396.400 C 254.276 396.400,254.382 396.130,254.255 395.800 C 254.061 395.293,254.629 395.195,257.913 395.169 C 263.219 395.128,264.349 394.783,263.833 393.364 C 263.450 392.311,264.360 392.039,268.486 391.973 C 272.950 391.902,273.200 391.796,273.200 389.967 C 273.200 389.295,273.501 389.200,275.626 389.200 C 278.682 389.200,279.600 388.735,279.600 387.186 C 279.600 386.012,279.623 386.000,281.900 385.973 C 284.015 385.948,285.267 385.830,287.400 385.452 C 287.912 385.362,288.189 385.010,288.170 384.475 C 288.154 384.016,288.289 383.731,288.470 383.843 C 288.652 383.956,288.800 383.767,288.800 383.424 C 288.800 382.963,289.218 382.800,290.400 382.800 C 291.280 382.800,292.000 382.626,292.000 382.413 C 292.000 382.199,292.256 382.123,292.569 382.243 C 293.308 382.527,294.927 380.908,294.643 380.169 C 294.473 379.724,294.858 379.600,296.413 379.600 C 297.506 379.600,298.400 379.420,298.400 379.200 C 298.400 378.365,298.474 378.181,299.082 377.509 C 299.732 376.791,300.404 376.901,300.394 377.724 C 300.390 378.059,300.290 378.046,300.059 377.681 C 299.793 377.262,299.638 377.272,299.254 377.734 C 298.882 378.184,298.904 378.354,299.361 378.530 C 300.119 378.821,300.883 377.882,300.564 377.051 C 300.354 376.503,300.632 376.400,302.314 376.400 C 304.372 376.400,304.800 376.056,304.800 374.406 C 304.800 373.830,305.199 373.637,306.700 373.484 C 307.745 373.378,308.960 373.194,309.400 373.076 C 309.840 372.958,310.310 372.847,310.445 372.831 C 310.580 372.814,310.670 372.308,310.645 371.706 C 310.612 370.899,310.811 370.580,311.400 370.490 C 313.876 370.115,314.000 370.024,314.000 368.592 C 314.000 367.231,314.037 367.199,315.700 367.139 C 318.187 367.050,318.226 367.041,319.023 366.394 C 319.602 365.923,319.684 365.916,319.415 366.362 C 319.182 366.748,319.224 366.832,319.549 366.632 C 319.809 366.471,319.995 366.128,319.963 365.870 C 319.773 364.329,320.024 364.000,321.386 364.000 C 322.856 364.000,323.600 363.202,323.600 361.626 C 323.600 360.949,323.852 360.800,325.000 360.800 C 326.333 360.800,326.400 360.733,326.400 359.400 C 326.400 358.049,326.452 358.000,327.900 357.999 C 330.015 357.999,332.208 356.831,332.171 355.726 C 332.144 354.920,332.457 354.713,334.298 354.321 C 334.916 354.190,335.600 353.233,335.600 352.499 C 335.600 351.957,336.024 351.635,337.087 351.371 C 338.283 351.072,338.645 350.750,338.939 349.721 C 339.236 348.679,339.534 348.421,340.552 348.321 C 341.238 348.255,341.822 347.975,341.850 347.700 C 341.878 347.425,341.923 346.761,341.950 346.224 C 341.992 345.396,342.227 345.229,343.500 345.124 C 344.919 345.007,345.007 344.919,345.124 343.500 C 345.229 342.227,345.396 341.992,346.224 341.950 C 346.761 341.923,347.425 341.878,347.700 341.850 C 347.975 341.822,348.255 341.238,348.321 340.552 C 348.420 339.537,348.680 339.235,349.709 338.940 C 350.731 338.647,351.043 338.289,351.327 337.089 C 351.587 335.993,351.888 335.600,352.468 335.600 C 353.228 335.600,354.188 334.926,354.321 334.298 C 354.724 332.409,354.914 332.105,355.585 332.280 C 356.487 332.516,357.505 331.136,357.849 329.214 C 358.149 327.534,359.041 326.400,360.062 326.400 C 360.639 326.400,360.800 326.094,360.800 325.000 C 360.800 323.852,360.949 323.600,361.626 323.600 C 363.202 323.600,364.000 322.856,364.000 321.386 C 364.000 320.068,364.384 319.745,365.700 319.953 C 365.865 319.979,366.000 319.809,366.000 319.576 C 366.000 319.343,366.180 319.264,366.400 319.400 C 366.620 319.536,366.822 319.277,366.850 318.824 C 366.878 318.371,366.945 317.820,367.000 317.600 C 367.055 317.380,367.123 316.480,367.150 315.600 C 367.198 314.058,367.249 314.000,368.557 314.000 C 370.028 314.000,370.400 313.512,370.400 311.580 C 370.400 310.702,370.548 310.482,371.019 310.663 C 371.373 310.798,371.900 310.579,372.249 310.150 C 372.585 309.738,372.728 309.653,372.568 309.962 C 372.383 310.318,372.436 310.425,372.713 310.254 C 372.953 310.106,373.163 309.673,373.180 309.292 C 373.317 306.266,373.719 304.800,374.412 304.800 C 375.615 304.800,376.400 303.666,376.400 301.929 C 376.400 300.602,376.516 300.359,377.051 300.564 C 377.882 300.883,378.821 300.119,378.530 299.361 C 378.354 298.904,378.184 298.882,377.734 299.254 C 377.272 299.638,377.262 299.793,377.681 300.059 C 378.046 300.290,378.059 300.390,377.724 300.394 C 376.846 300.405,376.811 299.714,377.651 298.953 C 378.109 298.539,378.555 298.245,378.642 298.300 C 379.297 298.714,379.600 298.117,379.600 296.413 C 379.600 294.858,379.724 294.473,380.169 294.643 C 380.908 294.927,382.527 293.308,382.243 292.569 C 382.123 292.256,382.199 292.000,382.413 292.000 C 382.626 292.000,382.800 291.385,382.800 290.633 C 382.800 288.851,383.144 288.004,383.769 288.243 C 384.398 288.485,385.359 287.381,385.011 286.818 C 384.869 286.588,384.954 286.400,385.200 286.400 C 385.446 286.400,385.544 286.232,385.417 286.028 C 385.291 285.823,385.332 285.565,385.510 285.456 C 385.687 285.346,385.876 284.569,385.929 283.728 C 385.998 282.638,386.308 281.990,387.013 281.467 C 387.556 281.063,388.000 280.493,388.000 280.200 C 388.000 279.907,388.220 279.593,388.489 279.504 C 388.798 279.401,389.034 278.212,389.132 276.270 C 389.279 273.365,389.338 273.200,390.220 273.200 C 391.586 273.200,391.779 272.637,392.000 268.000 C 392.175 264.318,392.285 263.814,392.886 263.914 C 394.449 264.175,395.041 262.782,395.153 258.580 C 395.212 256.395,395.291 254.578,395.330 254.542 C 395.368 254.506,395.760 254.414,396.200 254.338 C 397.238 254.159,398.066 253.038,397.757 252.233 C 397.624 251.885,397.714 251.600,397.957 251.600 C 398.258 251.600,398.400 249.935,398.400 246.400 C 398.400 241.286,398.415 241.199,399.300 241.160 C 400.163 241.122,400.159 241.107,399.200 240.800 C 398.241 240.493,398.237 240.478,399.100 240.440 L 400.000 240.400 400.000 200.000 L 400.000 159.600 399.100 159.560 C 398.237 159.522,398.241 159.507,399.200 159.200 C 400.159 158.893,400.163 158.878,399.300 158.840 C 398.470 158.803,397.889 152.602,398.370 148.900 C 398.406 148.625,398.264 148.400,398.055 148.400 C 397.846 148.400,397.769 148.039,397.885 147.598 C 398.156 146.561,397.262 145.491,396.328 145.735 C 395.294 146.005,395.242 145.798,395.169 141.189 C 395.103 136.977,394.658 135.662,393.453 136.124 C 392.341 136.551,392.059 135.712,391.931 131.595 L 391.800 127.400 390.500 127.017 C 389.213 126.638,389.200 126.609,389.200 124.141 C 389.200 122.769,389.017 121.534,388.793 121.396 C 388.570 121.258,388.491 120.977,388.617 120.772 C 388.744 120.568,388.657 120.400,388.424 120.400 C 388.191 120.400,388.000 120.145,388.000 119.833 C 388.000 119.522,387.565 118.937,387.034 118.533 C 386.400 118.051,385.995 117.252,385.853 116.200 C 385.734 115.320,385.584 114.256,385.518 113.836 C 385.368 112.864,383.669 111.110,383.174 111.416 C 382.967 111.544,382.798 110.966,382.795 110.124 C 382.787 108.001,382.401 106.754,381.855 107.081 C 381.582 107.244,381.602 107.104,381.905 106.730 C 382.526 105.963,381.670 105.045,380.687 105.422 C 380.034 105.673,379.853 105.285,379.417 102.700 C 379.278 101.875,378.973 101.200,378.739 101.200 C 378.506 101.200,378.410 100.952,378.526 100.649 C 378.782 99.982,378.072 99.198,377.220 99.206 C 376.673 99.212,376.670 99.262,377.200 99.637 C 377.733 100.014,377.733 100.043,377.200 99.899 C 376.789 99.788,376.562 99.099,376.481 97.709 C 376.366 95.762,376.309 95.672,375.032 95.432 C 373.825 95.206,373.681 95.026,373.471 93.491 C 372.984 89.924,372.546 89.077,371.346 89.378 C 370.512 89.587,370.400 89.476,370.400 88.440 C 370.400 86.487,370.032 86.000,368.557 86.000 C 367.266 86.000,367.197 85.927,367.139 84.500 C 367.081 83.077,367.017 82.589,366.796 81.900 C 366.636 81.402,366.503 80.823,366.450 80.400 C 366.423 80.180,366.265 80.021,366.100 80.047 C 364.531 80.295,364.044 79.948,363.924 78.500 C 363.807 77.081,363.719 76.993,362.300 76.876 C 360.842 76.755,360.800 76.708,360.800 75.176 C 360.800 73.911,360.654 73.600,360.062 73.600 C 359.017 73.600,358.114 72.449,357.790 70.704 C 357.637 69.880,357.384 69.286,357.227 69.384 C 357.069 69.481,356.954 69.184,356.970 68.725 C 356.989 68.210,356.720 67.846,356.269 67.775 C 354.795 67.546,354.451 67.219,354.327 65.923 C 354.257 65.195,354.020 64.591,353.800 64.580 C 352.958 64.539,351.598 63.930,351.550 63.573 C 351.523 63.368,351.455 63.020,351.400 62.800 C 351.345 62.580,351.278 62.130,351.250 61.800 C 351.222 61.470,351.065 61.221,350.900 61.247 C 349.064 61.537,348.445 61.166,348.324 59.700 C 348.255 58.869,347.977 58.178,347.700 58.150 C 347.425 58.123,346.750 58.078,346.200 58.050 C 345.390 58.009,345.199 57.792,345.194 56.900 C 345.188 55.778,344.715 54.704,344.255 54.766 C 342.524 54.998,342.000 54.751,341.994 53.700 C 341.988 52.578,341.515 51.504,341.055 51.566 C 339.594 51.761,339.221 51.517,338.974 50.204 C 338.830 49.435,338.564 48.898,338.384 49.010 C 338.203 49.122,337.942 49.030,337.804 48.807 C 337.666 48.583,337.113 48.400,336.576 48.400 C 335.832 48.400,335.599 48.186,335.594 47.500 C 335.587 46.518,335.067 45.483,334.646 45.614 C 333.499 45.970,332.116 45.172,332.291 44.256 C 332.469 43.326,331.451 42.286,330.516 42.442 C 330.342 42.471,329.345 42.473,328.300 42.447 L 326.400 42.400 326.400 40.800 C 326.400 39.238,326.367 39.200,325.000 39.200 C 323.798 39.200,323.600 39.067,323.600 38.262 C 323.600 37.050,322.425 36.000,321.069 36.000 C 320.408 36.000,319.981 35.771,319.950 35.400 C 319.923 35.070,319.878 34.605,319.850 34.368 C 319.745 33.458,318.181 32.800,316.124 32.800 C 314.172 32.800,314.000 32.725,314.000 31.876 C 314.000 30.556,313.182 29.669,311.831 29.525 C 310.931 29.429,310.646 29.184,310.595 28.463 C 310.516 27.351,309.788 26.815,308.350 26.806 C 305.776 26.791,304.882 26.365,304.632 25.032 C 304.405 23.821,304.286 23.744,302.496 23.653 C 301.453 23.600,300.540 23.386,300.466 23.176 C 300.392 22.966,300.179 22.889,299.993 23.004 C 299.807 23.119,299.548 23.040,299.417 22.827 C 299.284 22.613,299.538 22.511,299.989 22.598 C 300.435 22.684,300.800 22.620,300.800 22.457 C 300.800 22.014,299.901 21.199,299.420 21.206 C 299.189 21.209,299.270 21.387,299.600 21.600 C 299.930 21.813,300.020 21.988,299.800 21.988 C 299.156 21.988,298.320 21.341,298.466 20.955 C 298.540 20.760,297.825 20.544,296.878 20.476 C 295.844 20.401,295.068 20.123,294.936 19.778 C 294.815 19.463,294.510 19.328,294.258 19.479 C 293.993 19.638,294.019 19.483,294.319 19.112 C 294.914 18.378,294.420 17.862,293.000 17.732 C 292.560 17.692,291.435 17.532,290.500 17.377 C 288.966 17.122,288.737 16.957,288.827 16.164 C 288.841 16.034,288.526 15.660,288.127 15.334 C 287.727 15.008,287.653 14.872,287.962 15.032 C 288.346 15.232,288.427 15.168,288.218 14.829 C 288.040 14.541,287.524 14.433,286.981 14.569 C 286.468 14.698,285.937 14.622,285.801 14.401 C 285.664 14.181,284.213 14.000,282.576 14.000 L 279.600 14.000 279.600 12.652 C 279.600 11.165,278.707 10.814,274.900 10.804 C 273.832 10.802,273.184 10.614,273.157 10.300 C 273.134 10.025,273.089 9.440,273.057 9.000 C 273.004 8.258,272.673 8.192,268.500 8.087 C 265.325 8.007,263.986 7.830,263.954 7.487 C 263.852 6.413,263.784 6.174,263.400 5.528 C 263.179 5.158,262.729 4.871,262.400 4.891 C 257.539 5.176,254.114 4.762,254.208 3.900 C 254.415 2.004,253.248 1.685,245.900 1.633 C 241.315 1.601,241.199 1.578,241.160 0.700 C 241.122 -0.163,241.107 -0.159,240.800 0.800 C 240.493 1.759,240.478 1.763,240.440 0.900 L 240.400 0.000 200.428 0.000 L 160.456 0.000 160.282 0.900 L 160.109 1.800 160.054 0.900 C 159.987 -0.213,159.200 -0.305,159.200 0.800 M161.481 66.498 C 164.203 67.708,169.860 75.090,171.983 80.200 C 172.440 81.300,173.150 82.830,173.561 83.600 C 173.973 84.370,174.614 86.080,174.986 87.400 C 175.358 88.720,176.015 90.408,176.447 91.151 C 176.879 91.894,177.667 93.999,178.197 95.829 C 178.727 97.659,179.507 99.841,179.930 100.678 C 180.353 101.515,181.005 103.280,181.381 104.600 C 181.756 105.920,182.317 107.396,182.627 107.880 C 182.938 108.363,183.635 110.288,184.176 112.158 C 184.718 114.027,185.539 116.297,186.001 117.202 C 186.463 118.108,187.204 120.023,187.647 121.458 C 188.090 122.894,188.804 124.638,189.233 125.334 C 189.662 126.030,190.452 127.950,190.989 129.600 C 191.827 132.174,201.552 151.980,206.211 160.600 C 207.043 162.140,208.166 164.296,208.707 165.392 C 209.835 167.675,212.697 171.845,214.777 174.234 C 215.560 175.133,216.970 176.860,217.910 178.072 C 223.432 185.187,228.171 188.616,231.448 187.866 C 233.930 187.298,238.577 182.270,241.247 177.264 C 243.267 173.477,243.727 172.679,245.486 169.923 C 248.587 165.060,250.000 162.579,250.002 161.992 C 250.007 160.708,254.132 155.111,256.730 152.864 C 261.054 149.124,264.845 147.414,268.800 147.419 C 272.234 147.423,272.670 147.549,276.399 149.620 C 280.567 151.933,286.090 158.933,287.588 163.800 C 287.859 164.680,288.669 166.570,289.387 168.000 C 290.105 169.430,290.921 171.590,291.200 172.800 C 291.479 174.010,291.950 175.480,292.246 176.066 C 292.543 176.652,293.311 178.992,293.954 181.266 C 294.597 183.540,295.483 186.390,295.923 187.600 C 296.363 188.810,297.171 191.150,297.718 192.800 C 299.843 199.204,303.872 209.066,304.850 210.256 C 305.056 210.507,305.667 211.840,306.207 213.219 C 306.748 214.598,307.432 216.012,307.728 216.363 C 308.024 216.713,308.653 217.926,309.125 219.057 C 309.948 221.024,311.943 224.328,315.395 229.439 C 317.550 232.630,324.119 240.052,331.454 247.584 C 337.656 253.953,340.882 257.553,341.724 259.044 C 341.986 259.509,342.692 260.625,343.294 261.526 C 346.622 266.511,346.900 267.448,346.900 273.702 C 346.900 280.108,346.910 280.074,343.712 284.683 C 339.821 290.290,334.079 294.871,326.400 298.495 C 324.090 299.586,321.120 300.985,319.800 301.605 C 318.480 302.225,316.680 302.952,315.800 303.221 C 314.920 303.489,313.354 304.133,312.320 304.651 C 311.287 305.169,308.587 306.113,306.320 306.749 C 304.054 307.385,301.120 308.285,299.800 308.750 C 297.529 309.550,295.554 310.121,285.600 312.854 C 277.834 314.987,273.225 316.036,269.100 316.611 C 266.845 316.925,263.020 317.534,260.600 317.964 C 258.180 318.394,253.140 318.939,249.400 319.175 C 245.369 319.429,241.297 319.928,239.400 320.400 C 232.765 322.052,175.119 322.696,163.400 321.250 C 152.362 319.888,144.097 318.661,140.200 317.807 C 137.780 317.277,133.100 316.389,129.800 315.835 C 126.500 315.280,121.010 313.994,117.600 312.977 C 114.190 311.959,109.600 310.623,107.400 310.008 C 105.200 309.392,102.452 308.510,101.294 308.048 C 100.135 307.585,97.885 306.917,96.294 306.564 C 94.702 306.210,92.680 305.513,91.800 305.015 C 90.920 304.517,88.940 303.705,87.400 303.210 C 85.860 302.714,83.880 301.904,83.000 301.409 C 82.120 300.913,80.680 300.275,79.800 299.991 C 76.968 299.075,68.365 293.956,66.433 292.037 C 66.080 291.687,65.343 291.038,64.796 290.596 C 53.113 281.158,53.398 267.257,65.600 251.423 C 66.590 250.138,67.752 248.618,68.182 248.044 C 68.612 247.470,70.232 245.470,71.782 243.600 C 73.332 241.730,75.076 239.570,75.658 238.800 C 76.240 238.030,78.220 235.765,80.058 233.767 C 84.222 229.240,90.314 221.900,91.470 220.017 C 93.843 216.154,97.572 209.405,100.100 204.400 C 101.044 202.530,102.747 199.200,103.884 197.000 C 107.664 189.682,110.929 182.190,112.164 178.000 C 112.650 176.350,113.519 174.190,114.096 173.200 C 115.710 170.430,117.894 164.214,118.748 159.964 C 119.172 157.854,119.883 155.413,120.329 154.540 C 120.774 153.666,121.435 151.809,121.797 150.412 C 122.159 149.015,122.892 146.712,123.425 145.295 C 123.959 143.878,124.657 140.964,124.978 138.821 C 125.298 136.677,125.994 133.770,126.524 132.362 C 127.054 130.953,127.786 128.330,128.149 126.533 C 128.513 124.736,129.266 122.057,129.822 120.579 C 130.379 119.101,131.099 116.612,131.423 115.046 C 131.747 113.481,132.566 110.400,133.243 108.200 C 137.141 95.539,138.188 92.348,139.215 90.000 C 139.840 88.570,140.478 86.860,140.633 86.200 C 141.241 83.604,144.813 76.396,146.655 74.048 C 147.725 72.684,149.017 70.991,149.526 70.284 C 151.025 68.205,152.123 67.160,153.400 66.596 C 154.942 65.914,160.030 65.852,161.481 66.498 " stroke="none" fill="#cbc3c3" fill-rule="evenodd"></path></g></svg>