<svg id="svg" version="1.1" xmlns="http://www.w3.org/2000/svg" xmlns:xlink="http://www.w3.org/1999/xlink" width="400" height="400" viewBox="0, 0, 400,400"><g id="svgg"><path id="path0" d="M158.800 0.800 C 158.800 1.240,158.980 1.600,159.200 1.600 C 159.420 1.600,159.600 1.240,159.600 0.800 C 159.600 0.360,159.420 0.000,159.200 0.000 C 158.980 0.000,158.800 0.360,158.800 0.800 M106.196 17.607 C 106.058 17.830,105.807 17.928,105.639 17.824 C 105.471 17.720,105.333 17.897,105.333 18.218 C 105.333 19.030,105.718 18.944,106.307 18.000 C 106.582 17.560,106.726 17.200,106.627 17.200 C 106.528 17.200,106.334 17.383,106.196 17.607 M294.286 18.406 C 294.511 19.268,295.200 19.908,295.200 19.256 C 295.200 18.574,294.726 17.600,294.395 17.600 C 294.219 17.600,294.170 17.963,294.286 18.406 M298.000 20.571 C 298.000 20.820,300.447 22.000,300.961 21.999 C 301.203 21.998,300.811 21.638,300.090 21.199 C 298.855 20.445,298.000 20.188,298.000 20.571 M99.336 21.304 C 99.175 21.564,99.272 21.603,99.590 21.406 C 99.935 21.193,100.037 21.272,99.902 21.644 C 99.791 21.950,99.475 22.148,99.201 22.084 C 98.889 22.011,98.795 22.210,98.951 22.616 C 99.088 22.973,99.200 23.341,99.200 23.433 C 99.200 23.525,99.391 23.600,99.624 23.600 C 99.857 23.600,99.918 23.390,99.759 23.134 C 99.592 22.864,99.911 22.317,100.516 21.834 L 101.561 21.000 100.578 20.942 C 100.037 20.910,99.478 21.073,99.336 21.304 M319.213 33.024 C 319.206 33.256,319.464 33.796,319.787 34.224 C 320.110 34.651,320.380 34.809,320.387 34.576 C 320.394 34.344,320.136 33.804,319.813 33.376 C 319.490 32.949,319.220 32.791,319.213 33.024 M179.487 37.235 C 176.953 37.472,174.768 37.940,173.287 38.563 C 171.729 39.218,169.534 39.667,166.400 39.974 C 161.566 40.447,159.406 40.949,158.386 41.835 C 158.048 42.129,156.158 42.632,154.186 42.953 C 150.011 43.634,149.286 43.863,148.188 44.847 C 147.742 45.247,146.036 45.856,144.397 46.201 C 141.491 46.812,139.600 47.666,139.600 48.366 C 139.600 48.557,138.295 49.030,136.700 49.417 C 135.105 49.804,133.296 50.539,132.681 51.050 C 132.066 51.562,130.655 52.250,129.547 52.579 C 128.438 52.908,126.919 53.715,126.171 54.372 C 125.423 55.029,124.121 55.752,123.279 55.979 C 122.437 56.205,121.332 56.834,120.824 57.375 C 120.315 57.916,119.362 58.477,118.705 58.621 C 118.048 58.765,116.855 59.474,116.055 60.196 C 115.255 60.918,113.957 61.776,113.171 62.104 C 112.385 62.432,111.125 63.229,110.371 63.877 C 109.617 64.524,108.325 65.461,107.500 65.959 C 106.675 66.458,106.000 66.992,106.000 67.146 C 106.000 67.301,105.415 67.772,104.700 68.194 C 103.985 68.615,102.088 70.049,100.485 71.380 C 98.882 72.711,96.902 74.279,96.085 74.863 C 93.195 76.933,76.783 93.715,74.632 96.800 C 74.095 97.570,73.025 99.114,72.253 100.230 C 71.481 101.347,70.567 102.496,70.221 102.782 C 69.876 103.069,69.201 104.001,68.723 104.852 C 68.244 105.703,67.713 106.400,67.543 106.400 C 67.373 106.400,66.742 107.255,66.141 108.300 C 65.541 109.345,64.638 110.703,64.135 111.318 C 63.633 111.933,62.883 113.193,62.469 114.118 C 62.055 115.043,61.345 116.129,60.892 116.532 C 60.438 116.934,59.671 118.239,59.187 119.432 C 58.703 120.624,58.161 121.600,57.983 121.600 C 57.804 121.600,57.177 122.635,56.590 123.900 C 56.003 125.165,55.100 126.830,54.584 127.600 C 54.068 128.370,53.348 129.900,52.983 131.000 C 52.618 132.100,51.958 133.393,51.516 133.872 C 51.074 134.352,50.360 136.062,49.929 137.672 C 49.498 139.283,48.801 140.968,48.381 141.417 C 47.960 141.867,47.271 143.616,46.849 145.304 C 46.427 146.992,45.676 149.030,45.180 149.833 C 44.684 150.636,43.946 152.907,43.542 154.879 C 43.137 156.852,42.550 159.036,42.238 159.733 C 41.275 161.878,40.864 163.628,40.242 168.231 C 39.912 170.669,39.296 173.549,38.872 174.631 C 37.275 178.711,37.000 182.795,37.001 202.400 C 37.002 221.736,37.145 223.765,38.748 227.287 C 39.234 228.353,39.702 230.771,39.990 233.693 C 40.498 238.854,40.885 240.583,41.749 241.555 C 42.065 241.910,42.598 243.940,42.934 246.067 C 43.510 249.708,44.314 252.053,45.170 252.582 C 45.377 252.709,45.750 253.846,45.999 255.107 C 46.680 258.553,47.187 259.944,47.962 260.499 C 48.352 260.777,48.973 262.243,49.361 263.800 C 49.745 265.340,50.470 267.140,50.972 267.800 C 51.475 268.460,52.176 269.998,52.531 271.219 C 52.885 272.439,53.633 273.867,54.192 274.392 C 54.751 274.918,55.403 276.080,55.639 276.974 C 55.876 277.868,56.485 279.050,56.993 279.600 C 57.501 280.150,58.314 281.536,58.800 282.681 C 59.285 283.825,60.092 285.030,60.592 285.358 C 61.133 285.713,61.614 286.551,61.778 287.425 C 61.945 288.314,62.617 289.470,63.476 290.348 C 64.258 291.146,65.075 292.299,65.291 292.908 C 65.507 293.518,66.008 294.190,66.403 294.402 C 66.799 294.613,67.516 295.599,67.997 296.593 C 68.478 297.587,69.038 298.400,69.241 298.400 C 69.444 298.400,70.269 299.435,71.074 300.700 C 71.879 301.965,72.886 303.249,73.311 303.552 C 73.737 303.856,74.332 304.698,74.635 305.423 C 74.938 306.148,75.551 306.858,75.998 306.999 C 76.444 307.141,77.080 307.781,77.411 308.422 C 77.742 309.062,78.529 309.853,79.160 310.179 C 79.790 310.505,80.422 311.234,80.564 311.800 C 80.706 312.365,81.266 313.030,81.809 313.277 C 82.352 313.524,83.152 314.331,83.588 315.069 C 84.024 315.808,84.794 316.569,85.299 316.761 C 85.804 316.953,86.462 317.569,86.762 318.129 C 87.062 318.689,87.817 319.358,88.440 319.617 C 89.063 319.875,89.684 320.433,89.818 320.858 C 89.953 321.283,90.769 322.076,91.632 322.620 C 92.494 323.165,93.200 323.857,93.200 324.159 C 93.200 324.462,93.832 325.009,94.604 325.375 C 95.377 325.742,96.293 326.475,96.640 327.005 C 96.987 327.535,97.601 328.073,98.004 328.201 C 98.406 328.329,99.515 329.163,100.468 330.055 C 101.420 330.946,102.765 331.923,103.456 332.225 C 104.147 332.527,105.259 333.320,105.926 333.987 C 106.593 334.654,107.391 335.200,107.700 335.200 C 108.008 335.200,108.697 335.668,109.230 336.239 C 110.261 337.343,112.808 338.800,113.709 338.800 C 114.006 338.800,114.644 339.333,115.125 339.985 C 115.663 340.712,116.618 341.336,117.597 341.599 C 118.474 341.835,119.623 342.460,120.150 342.987 C 120.677 343.513,121.851 344.144,122.759 344.389 C 123.667 344.634,124.996 345.348,125.712 345.976 C 126.428 346.605,127.820 347.334,128.807 347.596 C 129.793 347.858,131.389 348.592,132.354 349.227 C 133.319 349.862,135.182 350.592,136.495 350.851 C 137.807 351.109,139.185 351.646,139.556 352.045 C 140.437 352.991,142.878 354.000,144.287 354.001 C 145.322 354.001,146.106 354.339,149.090 356.070 C 149.726 356.439,151.747 356.946,153.582 357.198 C 155.568 357.469,157.671 358.048,158.777 358.626 C 160.158 359.348,161.759 359.708,165.017 360.029 C 169.841 360.504,171.085 360.761,174.522 361.992 C 181.046 364.330,222.140 364.015,226.987 361.591 C 228.065 361.052,230.388 360.583,233.988 360.179 C 237.876 359.743,239.937 359.310,241.388 358.624 C 242.495 358.102,244.985 357.401,246.922 357.068 C 249.457 356.631,250.826 356.170,251.810 355.419 C 252.604 354.814,254.144 354.198,255.486 353.950 C 258.006 353.484,258.978 353.078,260.200 351.982 C 260.640 351.588,262.170 350.966,263.600 350.600 C 265.030 350.234,266.569 349.593,267.019 349.174 C 267.470 348.755,268.901 348.047,270.200 347.600 C 271.499 347.153,272.932 346.439,273.385 346.014 C 273.838 345.589,275.225 344.791,276.467 344.242 C 277.710 343.692,278.846 343.049,278.993 342.812 C 279.139 342.575,280.395 341.866,281.784 341.236 C 283.173 340.607,284.465 339.824,284.655 339.496 C 284.845 339.169,285.900 338.424,287.000 337.840 C 288.840 336.863,290.685 335.570,293.800 333.074 C 294.460 332.545,295.576 331.817,296.280 331.456 C 296.984 331.095,297.704 330.569,297.880 330.286 C 298.056 330.004,299.100 329.120,300.200 328.323 C 301.300 327.525,302.636 326.406,303.170 325.836 C 303.703 325.266,304.302 324.800,304.502 324.800 C 304.701 324.800,306.244 323.453,307.932 321.806 C 309.619 320.159,312.170 317.676,313.600 316.288 C 317.124 312.867,324.371 305.081,324.939 304.104 C 325.193 303.669,326.480 301.926,327.800 300.230 C 332.829 293.770,335.418 290.092,337.410 286.578 C 338.076 285.403,339.009 284.028,339.483 283.521 C 339.958 283.015,340.694 281.787,341.118 280.794 C 341.543 279.801,342.176 278.752,342.525 278.462 C 342.874 278.173,343.377 277.275,343.643 276.468 C 343.909 275.661,344.709 274.153,345.421 273.117 C 346.132 272.081,347.029 270.236,347.412 269.017 C 347.796 267.798,348.259 266.800,348.441 266.800 C 348.945 266.800,349.596 265.385,350.247 262.872 C 350.570 261.622,351.257 259.960,351.772 259.177 C 352.287 258.395,353.096 256.343,353.570 254.618 C 354.043 252.893,354.796 250.967,355.244 250.338 C 355.692 249.710,356.397 247.621,356.811 245.698 C 357.225 243.774,358.008 240.940,358.550 239.400 C 359.093 237.860,359.748 234.800,360.006 232.600 C 360.264 230.400,360.745 227.880,361.075 227.000 C 363.134 221.505,363.830 211.555,363.442 193.147 C 363.166 180.062,362.782 175.863,361.635 173.428 C 360.794 171.642,360.581 170.506,359.997 164.698 C 359.713 161.870,359.329 160.268,358.603 158.879 C 357.991 157.709,357.446 155.741,357.204 153.829 C 356.985 152.105,356.555 150.224,356.248 149.648 C 355.940 149.071,355.309 147.887,354.844 147.015 C 354.380 146.144,353.996 144.884,353.991 144.215 C 353.981 142.799,352.625 139.600,352.035 139.600 C 351.813 139.600,351.442 138.835,351.211 137.900 C 350.258 134.045,349.918 133.118,349.193 132.393 C 348.774 131.974,348.130 130.589,347.763 129.316 C 347.395 128.042,346.585 126.417,345.964 125.705 C 345.342 124.993,344.648 123.721,344.421 122.879 C 344.195 122.037,343.555 120.921,343.000 120.400 C 342.445 119.879,341.800 118.744,341.567 117.877 C 341.334 117.011,340.638 115.830,340.021 115.251 C 339.404 114.673,338.680 113.517,338.412 112.681 C 338.145 111.846,337.222 110.350,336.363 109.357 C 335.503 108.364,334.800 107.296,334.800 106.985 C 334.800 106.673,334.341 106.118,333.781 105.751 C 333.220 105.383,332.497 104.449,332.173 103.674 C 331.849 102.898,331.247 102.028,330.834 101.739 C 330.421 101.450,329.581 100.355,328.967 99.307 C 328.353 98.258,327.438 97.075,326.933 96.677 C 326.429 96.280,325.722 95.335,325.362 94.577 C 325.003 93.820,324.462 93.200,324.159 93.200 C 323.857 93.200,323.165 92.494,322.620 91.632 C 322.076 90.769,321.283 89.953,320.858 89.818 C 320.433 89.684,319.861 89.031,319.587 88.368 C 319.312 87.705,318.596 86.908,317.995 86.597 C 317.393 86.286,316.807 85.669,316.691 85.226 C 316.575 84.783,315.861 84.055,315.103 83.608 C 314.346 83.161,313.524 82.352,313.277 81.809 C 313.030 81.266,312.358 80.704,311.784 80.560 C 311.202 80.414,310.581 79.875,310.377 79.339 C 310.176 78.812,309.388 78.012,308.624 77.561 C 307.860 77.111,307.124 76.392,306.989 75.964 C 306.853 75.536,306.139 74.935,305.402 74.627 C 304.665 74.319,303.762 73.609,303.395 73.049 C 303.029 72.489,302.406 71.929,302.012 71.804 C 301.618 71.679,300.420 70.779,299.348 69.804 C 298.277 68.828,296.918 67.922,296.329 67.790 C 295.741 67.658,294.980 67.124,294.640 66.605 C 294.300 66.086,293.612 65.534,293.111 65.378 C 292.610 65.223,291.465 64.423,290.566 63.601 C 289.668 62.779,288.273 61.888,287.466 61.622 C 286.659 61.356,285.482 60.621,284.851 59.989 C 284.219 59.358,283.184 58.715,282.551 58.561 C 281.918 58.407,280.767 57.786,279.994 57.181 C 279.220 56.576,277.859 55.885,276.968 55.645 C 276.077 55.405,274.918 54.751,274.392 54.192 C 273.867 53.633,272.439 52.886,271.219 52.533 C 269.998 52.181,268.511 51.483,267.914 50.983 C 267.308 50.476,265.495 49.761,263.814 49.364 C 262.156 48.973,260.800 48.527,260.800 48.373 C 260.800 47.728,258.630 46.753,255.927 46.185 C 254.338 45.850,252.759 45.335,252.419 45.040 C 251.205 43.986,249.922 43.549,246.364 42.973 C 244.379 42.652,242.338 42.116,241.827 41.781 C 240.400 40.846,238.791 40.491,233.693 39.990 C 230.779 39.703,228.353 39.233,227.292 38.750 C 226.353 38.323,224.733 37.782,223.692 37.548 C 221.251 36.999,184.776 36.741,179.487 37.235 M208.200 70.384 C 209.300 70.564,211.840 71.086,213.844 71.546 C 215.847 72.006,219.326 72.658,221.573 72.996 C 223.820 73.333,226.181 73.880,226.819 74.210 C 227.458 74.540,230.071 75.168,232.628 75.605 C 235.813 76.149,237.665 76.677,238.513 77.280 C 239.193 77.765,241.174 78.470,242.915 78.848 C 244.862 79.271,246.430 79.865,246.993 80.393 C 247.495 80.865,248.962 81.525,250.253 81.860 C 251.544 82.194,253.500 82.971,254.600 83.586 C 255.700 84.201,257.280 84.922,258.110 85.187 C 258.941 85.452,260.139 86.105,260.774 86.639 C 261.408 87.173,262.687 87.878,263.616 88.206 C 264.545 88.533,266.002 89.431,266.853 90.201 C 267.705 90.970,268.770 91.600,269.220 91.600 C 269.670 91.600,270.435 92.025,270.919 92.544 C 271.404 93.064,272.543 93.866,273.451 94.327 C 274.359 94.789,275.206 95.438,275.333 95.770 C 275.460 96.102,276.546 96.927,277.746 97.605 C 278.946 98.282,280.026 99.090,280.145 99.400 C 280.264 99.710,281.077 100.329,281.951 100.775 C 282.826 101.221,283.662 101.966,283.809 102.430 C 283.957 102.894,284.677 103.524,285.409 103.830 C 286.142 104.136,286.859 104.754,287.001 105.204 C 287.144 105.653,287.742 106.328,288.330 106.704 C 289.705 107.581,293.600 111.515,293.600 112.026 C 293.600 112.241,294.064 112.629,294.632 112.887 C 295.200 113.146,296.007 114.029,296.425 114.850 C 296.844 115.670,297.553 116.458,298.000 116.600 C 298.447 116.742,299.169 117.555,299.604 118.408 C 300.039 119.260,300.630 120.102,300.917 120.279 C 301.205 120.455,301.932 121.452,302.532 122.493 C 303.133 123.534,303.957 124.563,304.363 124.780 C 304.768 124.997,305.480 125.983,305.944 126.970 C 306.408 127.957,307.151 128.959,307.594 129.197 C 308.037 129.434,308.400 129.991,308.400 130.434 C 308.400 131.532,309.426 133.433,310.380 134.101 C 310.811 134.403,311.544 135.539,312.009 136.625 C 312.474 137.711,313.179 138.960,313.577 139.400 C 313.974 139.840,314.690 141.264,315.168 142.564 C 315.646 143.864,316.372 145.400,316.783 145.976 C 317.193 146.552,317.802 148.071,318.136 149.350 C 318.471 150.629,319.200 152.334,319.757 153.138 C 320.314 153.942,321.022 155.802,321.330 157.271 C 321.638 158.740,322.368 160.758,322.953 161.755 C 323.735 163.090,324.174 164.703,324.619 167.872 C 324.952 170.239,325.505 172.606,325.850 173.132 C 326.194 173.657,326.818 176.183,327.237 178.744 C 327.656 181.305,328.366 184.750,328.815 186.400 C 330.541 192.746,330.890 209.423,329.408 214.800 C 329.075 216.010,328.433 219.160,327.982 221.800 C 327.531 224.440,326.716 227.904,326.170 229.498 C 325.625 231.092,325.024 233.624,324.836 235.125 C 324.647 236.626,323.932 239.131,323.247 240.694 C 322.561 242.256,321.996 243.864,321.991 244.267 C 321.985 244.670,321.517 246.080,320.949 247.400 C 320.381 248.720,319.502 250.880,318.995 252.200 C 318.488 253.520,317.516 255.715,316.836 257.078 C 316.156 258.440,315.600 259.725,315.600 259.933 C 315.600 260.140,314.995 261.190,314.256 262.264 C 313.516 263.339,312.780 264.631,312.620 265.136 C 312.460 265.640,311.805 266.650,311.163 267.381 C 310.522 268.111,309.737 269.314,309.419 270.054 C 309.101 270.794,307.930 272.660,306.817 274.200 C 305.704 275.740,304.304 277.720,303.705 278.600 C 299.917 284.165,288.265 296.142,282.200 300.702 C 281.540 301.199,279.642 302.639,277.983 303.902 C 276.324 305.166,273.929 306.830,272.662 307.600 C 271.394 308.370,269.530 309.540,268.519 310.200 C 263.814 313.271,254.352 318.039,251.800 318.623 C 251.140 318.774,249.558 319.416,248.285 320.050 C 247.011 320.685,245.121 321.386,244.085 321.609 C 243.048 321.831,241.030 322.537,239.600 323.177 C 237.916 323.930,235.771 324.486,233.511 324.754 C 231.592 324.982,229.162 325.531,228.111 325.975 C 227.060 326.419,224.220 327.066,221.800 327.412 C 219.380 327.759,215.335 328.501,212.811 329.061 C 206.075 330.557,193.769 330.540,187.800 329.028 C 185.600 328.470,181.820 327.715,179.400 327.349 C 176.980 326.983,174.334 326.351,173.520 325.944 C 172.706 325.537,170.134 324.937,167.804 324.610 C 164.812 324.190,163.071 323.724,161.875 323.023 C 160.944 322.477,158.926 321.743,157.391 321.391 C 155.856 321.038,153.942 320.299,153.138 319.747 C 152.334 319.195,150.624 318.474,149.338 318.144 C 148.052 317.814,146.370 317.142,145.600 316.651 C 144.830 316.159,143.300 315.427,142.200 315.025 C 141.100 314.622,139.840 313.969,139.400 313.573 C 138.960 313.178,137.714 312.475,136.632 312.012 C 135.549 311.549,133.974 310.547,133.131 309.785 C 132.256 308.995,131.175 308.400,130.613 308.400 C 130.024 308.400,129.449 308.065,129.182 307.566 C 128.936 307.108,128.139 306.483,127.409 306.178 C 126.679 305.873,125.388 304.969,124.541 304.169 C 123.693 303.370,122.325 302.371,121.500 301.950 C 120.675 301.528,120.000 301.011,120.000 300.800 C 120.000 300.589,119.293 300.056,118.429 299.615 C 117.565 299.174,116.742 298.447,116.600 298.000 C 116.458 297.553,115.670 296.844,114.850 296.425 C 114.029 296.007,113.146 295.200,112.887 294.632 C 112.629 294.064,112.236 293.600,112.014 293.600 C 111.470 293.600,106.400 288.553,106.400 288.012 C 106.400 287.776,105.975 287.389,105.456 287.153 C 104.936 286.916,104.226 286.125,103.878 285.395 C 103.530 284.665,102.872 283.950,102.416 283.805 C 101.960 283.660,101.221 282.826,100.775 281.951 C 100.329 281.077,99.695 280.258,99.367 280.132 C 99.039 280.006,98.527 279.340,98.230 278.651 C 97.933 277.963,96.860 276.440,95.845 275.267 C 94.830 274.094,94.000 272.909,94.000 272.633 C 94.000 272.358,93.460 271.651,92.800 271.063 C 92.110 270.448,91.600 269.594,91.600 269.053 C 91.600 268.535,90.912 267.325,90.066 266.356 C 89.223 265.390,88.319 263.978,88.058 263.217 C 87.797 262.457,87.244 261.467,86.828 261.017 C 86.413 260.568,85.607 259.044,85.037 257.632 C 84.467 256.219,83.748 254.779,83.440 254.432 C 83.132 254.084,82.485 252.450,82.001 250.800 C 81.518 249.150,80.768 247.415,80.334 246.945 C 79.884 246.457,79.286 244.822,78.945 243.145 C 78.615 241.525,77.903 239.521,77.361 238.691 C 76.819 237.860,76.296 236.690,76.199 236.091 C 75.447 231.471,74.598 227.673,74.165 227.000 C 73.882 226.560,73.361 224.490,73.007 222.400 C 72.654 220.310,71.913 216.890,71.361 214.800 C 69.100 206.239,69.011 191.536,71.166 182.400 C 71.607 180.530,72.162 177.759,72.401 176.242 C 72.639 174.725,73.194 172.475,73.635 171.242 C 74.075 170.009,74.718 167.380,75.064 165.400 C 75.409 163.420,76.118 160.958,76.638 159.930 C 77.158 158.901,77.778 157.191,78.015 156.130 C 78.253 155.068,79.066 152.827,79.823 151.150 C 80.581 149.472,81.200 147.957,81.200 147.782 C 81.200 147.106,85.332 138.556,86.027 137.795 C 86.431 137.352,87.034 136.338,87.366 135.543 C 87.698 134.747,88.403 133.580,88.932 132.948 C 89.460 132.317,90.361 130.900,90.934 129.800 C 91.507 128.700,92.656 126.877,93.488 125.749 C 94.320 124.621,95.570 122.911,96.267 121.949 C 97.680 119.997,98.109 119.485,103.092 113.794 C 105.021 111.590,107.680 108.791,109.000 107.573 C 112.259 104.566,113.937 102.995,115.624 101.371 C 116.408 100.617,117.235 100.000,117.462 100.000 C 117.690 100.000,118.219 99.618,118.638 99.152 C 119.057 98.686,120.300 97.701,121.400 96.963 C 122.500 96.225,124.480 94.814,125.800 93.826 C 127.120 92.839,129.008 91.655,129.995 91.196 C 130.982 90.737,132.152 90.030,132.595 89.625 C 133.038 89.220,134.390 88.398,135.600 87.799 C 136.810 87.199,138.070 86.484,138.400 86.208 C 139.244 85.504,145.230 82.928,148.800 81.732 C 150.450 81.179,152.070 80.503,152.400 80.229 C 153.197 79.569,155.033 78.920,157.000 78.603 C 157.880 78.462,159.680 77.835,161.000 77.211 C 162.555 76.475,164.949 75.835,167.800 75.391 C 170.220 75.015,172.599 74.458,173.086 74.154 C 173.573 73.849,176.003 73.322,178.486 72.982 C 180.969 72.642,184.890 71.927,187.200 71.395 C 193.163 70.020,203.044 69.544,208.200 70.384 M358.000 72.413 C 358.000 73.412,358.158 73.600,359.000 73.600 C 360.110 73.600,360.175 73.474,359.611 72.421 C 358.901 71.094,358.000 71.089,358.000 72.413 M365.776 80.213 C 366.204 80.536,366.744 80.794,366.976 80.787 C 367.209 80.780,367.051 80.510,366.624 80.187 C 366.196 79.864,365.656 79.606,365.424 79.613 C 365.191 79.620,365.349 79.890,365.776 80.213 M372.828 89.876 C 372.813 90.358,372.980 90.864,373.200 91.000 C 373.673 91.292,373.673 90.901,373.200 89.800 C 372.869 89.029,372.855 89.031,372.828 89.876 M377.553 99.472 C 377.235 99.863,377.202 100.032,377.475 99.868 C 377.740 99.709,378.114 99.875,378.320 100.243 C 378.523 100.606,378.788 100.743,378.909 100.547 C 379.414 99.730,378.153 98.732,377.553 99.472 M13.442 118.068 C 13.632 118.375,13.519 118.455,13.114 118.299 C 12.369 118.013,11.587 118.701,11.857 119.405 C 11.996 119.767,12.333 119.653,13.026 119.011 C 14.077 118.037,14.247 117.600,13.576 117.600 C 13.343 117.600,13.283 117.811,13.442 118.068 M386.088 118.814 C 386.136 120.516,386.667 120.670,386.667 118.982 C 386.667 118.222,386.529 117.600,386.360 117.600 C 386.191 117.600,386.069 118.146,386.088 118.814 M387.110 118.281 C 387.021 118.456,386.982 118.825,387.024 119.100 C 387.066 119.375,387.125 119.825,387.156 120.100 C 387.195 120.448,387.330 120.418,387.600 120.000 C 387.858 119.600,387.990 119.567,387.994 119.900 C 387.997 120.175,388.202 120.400,388.449 120.400 C 388.779 120.400,388.780 120.258,388.452 119.863 C 388.207 119.568,388.100 119.234,388.213 119.120 C 388.327 119.007,388.161 118.700,387.845 118.438 C 387.530 118.176,387.199 118.105,387.110 118.281 M1.757 253.433 C 1.891 253.781,2.000 254.141,2.000 254.233 C 2.000 254.325,2.163 254.400,2.363 254.400 C 2.562 254.400,2.631 254.040,2.516 253.600 C 2.401 253.160,2.128 252.800,1.911 252.800 C 1.693 252.800,1.624 253.085,1.757 253.433 M11.556 279.973 C 11.857 280.159,11.991 280.490,11.856 280.710 C 11.720 280.930,11.861 281.318,12.169 281.574 C 12.552 281.892,12.811 281.907,12.988 281.619 C 13.247 281.200,12.955 281.038,12.200 281.181 C 11.980 281.223,12.025 281.028,12.300 280.749 C 13.015 280.022,12.923 279.780,11.905 279.703 C 11.269 279.655,11.168 279.733,11.556 279.973 M13.059 280.189 C 12.936 280.511,12.999 280.876,13.200 281.000 C 13.401 281.124,13.464 281.490,13.340 281.813 C 13.216 282.136,13.302 282.400,13.530 282.400 C 13.998 282.400,14.042 280.073,13.581 279.788 C 13.417 279.687,13.183 279.868,13.059 280.189 M388.000 280.019 C 388.000 280.250,387.524 280.880,386.942 281.419 C 386.359 281.959,386.070 282.400,386.297 282.400 C 386.807 282.400,388.738 280.832,388.251 280.813 C 388.059 280.806,388.126 280.530,388.400 280.200 C 388.744 279.785,388.759 279.600,388.449 279.600 C 388.202 279.600,388.000 279.789,388.000 280.019 M14.012 286.000 C 14.012 286.690,14.680 287.870,14.911 287.588 C 14.996 287.485,14.829 286.950,14.539 286.400 C 14.248 285.849,14.012 285.669,14.012 286.000 M17.600 294.395 C 17.600 294.726,18.574 295.200,19.256 295.200 C 19.471 295.200,19.549 295.042,19.430 294.848 C 19.137 294.374,17.600 293.993,17.600 294.395 M20.400 298.390 C 20.400 298.605,20.759 299.370,21.199 300.090 C 22.147 301.646,22.268 301.061,21.371 299.261 C 20.732 297.981,20.400 297.683,20.400 298.390 M33.376 319.813 C 33.804 320.136,34.344 320.394,34.576 320.387 C 34.809 320.380,34.651 320.110,34.224 319.787 C 33.796 319.464,33.256 319.206,33.024 319.213 C 32.791 319.220,32.949 319.490,33.376 319.813 M40.000 326.773 C 40.000 327.008,40.360 327.560,40.800 328.000 C 41.910 329.110,42.476 328.999,42.327 327.700 C 42.200 326.601,40.000 325.724,40.000 326.773 M89.333 372.638 C 89.333 372.947,89.422 373.112,89.530 373.003 C 89.638 372.895,89.968 373.007,90.263 373.252 C 90.558 373.497,90.800 373.539,90.800 373.345 C 90.800 373.151,90.470 372.786,90.067 372.534 C 89.486 372.172,89.333 372.194,89.333 372.638 M99.043 377.033 C 98.710 377.899,98.738 378.086,99.158 377.826 C 99.355 377.704,99.623 377.883,99.754 378.223 C 99.907 378.623,99.829 378.742,99.534 378.559 C 99.270 378.396,99.185 378.452,99.333 378.692 C 99.749 379.365,101.960 379.560,101.707 378.902 C 101.591 378.600,101.225 378.458,100.892 378.586 C 100.419 378.768,100.386 378.699,100.740 378.272 C 101.298 377.599,100.940 377.171,100.091 377.497 C 99.625 377.676,99.528 377.565,99.718 377.069 C 99.859 376.701,99.820 376.400,99.630 376.400 C 99.441 376.400,99.176 376.685,99.043 377.033 M294.544 380.666 C 294.687 380.922,294.579 381.215,294.302 381.316 C 293.912 381.459,293.924 381.622,294.359 382.050 C 294.666 382.353,294.800 382.390,294.656 382.134 C 294.513 381.878,294.621 381.585,294.898 381.484 C 295.288 381.341,295.276 381.178,294.841 380.750 C 294.534 380.447,294.400 380.410,294.544 380.666 M105.026 381.157 C 104.876 381.401,104.954 381.600,105.200 381.600 C 105.446 381.600,105.536 381.780,105.400 382.000 C 105.264 382.220,105.343 382.400,105.576 382.400 C 106.086 382.400,106.110 381.992,105.644 381.257 C 105.404 380.879,105.217 380.849,105.026 381.157 M158.800 399.200 C 158.800 399.640,158.980 400.000,159.200 400.000 C 159.420 400.000,159.600 399.640,159.600 399.200 C 159.600 398.760,159.420 398.400,159.200 398.400 C 158.980 398.400,158.800 398.760,158.800 399.200 " stroke="none" fill="#080706" fill-rule="evenodd"></path><path id="path1" d="M158.454 0.700 C 158.402 1.567,153.574 2.015,147.700 1.698 C 147.205 1.671,146.800 1.818,146.800 2.025 C 146.800 2.231,146.530 2.400,146.200 2.400 C 145.870 2.400,145.621 2.535,145.647 2.700 C 145.966 4.720,145.862 4.768,140.910 4.887 L 136.219 5.000 136.109 6.367 C 135.968 8.122,136.426 7.964,131.294 8.028 C 128.838 8.058,126.843 8.199,126.861 8.342 C 127.139 10.483,126.882 10.725,124.100 10.942 C 120.843 11.196,120.437 11.265,120.470 11.567 C 120.712 13.817,120.583 13.909,116.900 14.130 C 111.229 14.471,111.397 14.417,111.422 15.900 L 111.444 17.200 109.202 17.200 C 107.969 17.200,106.744 17.416,106.480 17.680 C 106.216 17.944,106.000 18.012,106.000 17.831 C 106.000 17.650,105.730 17.726,105.400 18.000 C 105.070 18.274,104.800 18.926,104.800 19.449 C 104.800 20.266,104.606 20.400,103.425 20.400 C 101.907 20.400,99.293 22.379,99.776 23.162 C 99.925 23.403,99.857 23.600,99.624 23.600 C 99.391 23.600,99.197 23.375,99.194 23.100 C 99.189 22.726,99.112 22.719,98.889 23.070 C 98.724 23.329,97.872 23.599,96.995 23.670 C 95.530 23.789,95.390 23.903,95.277 25.063 C 95.158 26.297,95.096 26.333,92.677 26.608 C 89.989 26.913,89.421 27.134,89.360 27.900 C 89.338 28.175,89.293 28.670,89.260 29.000 C 89.220 29.404,88.756 29.600,87.843 29.600 C 86.409 29.600,86.000 30.096,86.000 31.833 C 86.000 32.747,85.870 32.800,83.633 32.800 C 80.527 32.800,80.071 33.017,79.766 34.639 C 79.537 35.861,79.376 36.000,78.191 36.000 C 76.962 36.000,76.852 36.111,76.600 37.600 C 76.346 39.101,76.245 39.200,74.965 39.200 C 73.676 39.200,73.600 39.277,73.600 40.575 C 73.600 42.046,73.424 42.122,69.050 42.563 C 67.841 42.684,66.992 43.682,67.336 44.578 C 67.475 44.939,67.053 45.185,66.013 45.351 C 64.502 45.593,64.000 46.156,64.000 47.607 C 64.000 48.152,63.654 48.383,62.700 48.475 C 61.567 48.584,61.352 48.793,61.029 50.100 C 60.778 51.117,60.435 51.600,59.962 51.600 C 58.505 51.600,58.000 52.074,58.000 53.443 C 58.000 54.760,57.952 54.800,56.400 54.800 C 54.804 54.800,54.800 54.804,54.800 56.376 C 54.800 57.908,54.758 57.955,53.300 58.076 C 51.949 58.188,51.788 58.322,51.680 59.434 C 51.577 60.489,51.344 60.722,50.080 61.034 C 48.794 61.352,48.584 61.571,48.475 62.700 C 48.383 63.654,48.152 64.000,47.607 64.000 C 46.156 64.000,45.593 64.502,45.351 66.013 C 45.187 67.042,44.937 67.474,44.585 67.339 C 43.529 66.934,42.570 67.898,42.466 69.469 C 42.411 70.311,42.170 71.068,41.932 71.150 C 41.522 71.292,40.814 71.992,39.700 73.354 C 39.425 73.691,39.200 74.498,39.200 75.148 C 39.200 76.215,39.045 76.356,37.600 76.600 C 36.111 76.852,36.000 76.962,36.000 78.191 C 36.000 79.376,35.861 79.537,34.639 79.766 C 33.019 80.070,32.800 80.528,32.800 83.609 L 32.800 85.952 31.300 86.076 C 29.886 86.193,29.793 86.285,29.677 87.676 C 29.566 89.013,29.434 89.164,28.277 89.276 C 27.007 89.399,26.998 89.415,26.665 92.277 C 26.332 95.133,26.320 95.156,25.065 95.277 C 23.886 95.392,23.792 95.515,23.677 97.100 C 23.570 98.576,23.432 98.800,22.626 98.800 C 21.600 98.800,20.595 99.745,20.972 100.355 C 21.105 100.569,21.030 100.858,20.807 100.996 C 20.583 101.134,20.400 102.047,20.400 103.024 C 20.400 104.597,20.297 104.801,19.500 104.806 C 17.860 104.817,17.509 105.384,17.296 108.355 C 17.136 110.597,16.955 111.210,16.446 111.246 C 14.348 111.396,14.508 111.094,14.135 115.591 C 13.952 117.795,12.000 121.464,12.000 119.604 C 12.000 119.407,12.400 118.965,12.889 118.623 C 13.378 118.280,13.586 118.000,13.351 118.000 C 12.728 118.000,11.600 119.358,11.600 120.108 C 11.600 120.463,11.420 120.864,11.200 121.000 C 10.980 121.136,10.800 122.497,10.800 124.024 L 10.800 126.800 9.400 126.800 L 8.000 126.800 8.000 131.376 L 8.000 135.952 6.500 136.076 L 5.000 136.200 4.887 140.900 C 4.783 145.250,4.716 145.604,3.987 145.650 C 2.440 145.748,2.201 145.843,2.300 146.318 C 2.355 146.583,2.213 146.800,1.985 146.800 C 1.757 146.800,1.605 147.205,1.647 147.700 C 2.065 152.559,1.566 158.001,0.700 158.040 C -0.163 158.078,-0.159 158.093,0.800 158.400 C 1.759 158.707,1.763 158.722,0.900 158.760 L 0.000 158.800 0.000 200.200 C 0.000 241.333,0.005 241.600,0.800 241.600 C 1.591 241.600,1.777 243.674,1.740 252.100 C 1.738 252.485,1.865 252.800,2.022 252.800 C 2.178 252.800,2.399 253.153,2.512 253.585 C 2.653 254.125,2.977 254.320,3.550 254.210 C 4.702 253.988,4.725 254.073,4.840 259.011 C 4.947 263.644,5.088 263.984,6.900 263.994 L 8.000 264.000 8.061 267.900 C 8.094 270.045,8.140 272.063,8.162 272.385 C 8.184 272.707,8.764 273.132,9.450 273.329 C 10.667 273.678,10.704 273.758,10.899 276.489 C 11.009 278.030,11.257 279.405,11.450 279.545 C 11.642 279.685,11.800 280.070,11.800 280.400 C 11.800 280.730,12.070 281.008,12.400 281.018 C 12.730 281.028,12.951 281.267,12.890 281.548 C 12.830 281.829,12.952 281.953,13.162 281.823 C 13.373 281.693,13.461 281.126,13.359 280.561 C 13.256 279.997,13.333 279.635,13.528 279.756 C 13.723 279.876,13.917 281.192,13.958 282.678 C 13.999 284.165,14.281 285.881,14.585 286.491 C 14.974 287.269,15.002 287.600,14.680 287.600 C 14.428 287.600,14.622 287.880,15.112 288.223 C 15.601 288.566,16.182 288.735,16.404 288.598 C 16.926 288.275,17.155 288.948,17.356 291.400 C 17.446 292.500,17.538 293.527,17.560 293.681 C 17.582 293.836,18.230 294.261,19.000 294.627 C 20.186 295.190,20.400 295.494,20.400 296.622 C 20.400 297.354,20.595 298.073,20.832 298.220 C 21.070 298.367,21.160 298.907,21.031 299.419 C 20.902 299.932,20.976 300.461,21.194 300.596 C 21.430 300.742,21.484 300.564,21.327 300.155 C 21.149 299.689,21.215 299.562,21.532 299.758 C 21.789 299.917,22.000 300.287,22.000 300.579 C 22.000 300.872,22.315 301.086,22.700 301.056 C 23.222 301.014,23.434 301.356,23.533 302.398 C 23.696 304.122,24.225 304.800,25.403 304.800 C 26.267 304.800,26.709 306.211,26.971 309.800 C 26.987 310.020,27.585 310.372,28.300 310.583 C 29.415 310.911,29.600 311.147,29.600 312.240 C 29.600 313.586,30.126 314.000,31.833 314.000 C 32.754 314.000,32.800 314.120,32.800 316.536 L 32.800 319.071 34.395 319.836 C 35.636 320.430,35.992 320.827,35.995 321.620 C 36.001 322.940,36.688 323.600,38.055 323.600 C 38.997 323.600,39.167 323.781,39.275 324.900 C 39.385 326.049,39.563 326.223,40.800 326.400 C 42.223 326.603,42.814 328.200,42.590 331.238 C 42.552 331.756,42.948 332.146,43.839 332.468 C 44.990 332.885,45.617 333.712,45.757 335.000 C 45.825 335.633,46.436 335.926,47.457 335.814 C 48.289 335.722,48.400 335.876,48.400 337.122 C 48.400 337.898,48.511 338.422,48.648 338.286 C 48.784 338.150,49.157 338.300,49.476 338.619 C 49.796 338.939,50.404 339.200,50.829 339.200 C 51.515 339.200,51.739 339.763,51.566 341.055 C 51.504 341.515,52.578 341.988,53.700 341.994 C 54.789 342.000,54.965 342.384,54.916 344.647 C 54.911 344.892,55.108 345.089,55.353 345.084 C 57.538 345.036,58.000 345.226,58.000 346.167 C 58.000 347.820,58.423 348.400,59.627 348.400 C 60.602 348.400,60.834 348.622,61.223 349.920 C 61.625 351.259,61.817 351.431,62.839 351.360 C 63.877 351.288,64.000 351.405,64.000 352.463 C 64.000 353.142,64.169 353.543,64.395 353.403 C 64.616 353.266,64.692 353.415,64.568 353.739 C 64.404 354.166,64.777 354.393,65.974 354.596 C 66.870 354.747,67.497 355.043,67.367 355.253 C 67.080 355.718,68.255 357.600,68.833 357.600 C 69.061 357.600,69.117 357.389,68.957 357.131 C 68.798 356.873,69.097 356.963,69.623 357.331 C 70.148 357.699,71.247 358.000,72.064 358.000 C 73.447 358.000,73.558 358.089,73.675 359.300 C 73.782 360.413,73.973 360.620,74.999 360.736 C 76.389 360.894,76.785 361.372,76.794 362.900 C 76.799 363.882,76.945 364.000,78.153 364.000 C 79.388 364.000,80.113 364.751,80.082 366.000 C 80.070 366.474,81.077 367.021,82.000 367.041 C 86.052 367.129,85.942 367.084,86.076 368.700 C 86.193 370.119,86.281 370.207,87.700 370.324 C 88.525 370.392,89.222 370.617,89.250 370.824 C 89.278 371.031,89.327 371.605,89.359 372.100 C 89.399 372.715,89.637 372.963,90.109 372.882 C 90.489 372.818,90.800 372.953,90.800 373.182 C 90.800 373.422,91.738 373.600,93.000 373.600 C 94.902 373.600,95.200 373.704,95.200 374.367 C 95.200 375.948,95.647 376.400,97.209 376.400 C 98.054 376.400,98.823 376.623,98.935 376.900 C 99.096 377.300,99.143 377.300,99.168 376.900 C 99.186 376.625,99.386 376.400,99.614 376.400 C 99.888 376.400,99.875 376.686,99.577 377.243 C 99.235 377.883,99.245 378.196,99.622 378.543 C 100.001 378.893,100.045 378.872,99.807 378.455 C 99.625 378.135,99.717 377.775,100.030 377.582 C 100.802 377.104,101.320 377.573,100.763 378.245 C 100.381 378.705,100.406 378.773,100.892 378.586 C 101.238 378.453,101.599 378.621,101.736 378.977 C 101.890 379.378,102.478 379.600,103.387 379.600 C 104.547 379.600,104.800 379.748,104.800 380.424 C 104.800 380.951,104.969 381.143,105.268 380.958 C 105.585 380.762,105.651 380.889,105.473 381.355 C 105.316 381.763,105.370 381.942,105.605 381.797 C 105.822 381.663,106.000 381.763,106.000 382.019 C 106.000 382.276,106.270 382.382,106.600 382.255 C 106.930 382.129,107.200 382.199,107.200 382.413 C 107.200 382.626,108.100 382.800,109.200 382.800 C 111.262 382.800,111.217 382.759,111.363 384.762 C 111.412 385.439,111.927 385.545,116.700 385.868 C 120.281 386.109,120.400 386.149,120.400 387.087 C 120.400 388.705,121.284 389.200,124.171 389.200 C 126.864 389.200,127.001 389.298,126.766 391.055 C 126.677 391.721,128.136 391.988,131.900 391.994 L 136.000 392.000 136.047 393.100 C 136.073 393.705,136.074 394.332,136.050 394.493 C 135.976 394.972,137.566 395.196,141.796 395.301 C 145.764 395.399,145.792 395.407,145.796 396.400 C 145.800 397.504,146.552 398.200,147.265 397.760 C 147.559 397.578,147.614 397.654,147.418 397.971 C 147.213 398.302,147.357 398.439,147.856 398.386 C 152.230 397.924,158.354 398.449,158.518 399.300 L 158.691 400.200 158.746 399.300 C 158.813 398.187,159.600 398.095,159.600 399.200 C 159.600 399.995,159.867 400.000,200.600 400.000 C 241.333 400.000,241.600 399.995,241.600 399.200 C 241.600 398.440,247.469 397.993,252.300 398.384 C 252.795 398.424,253.200 398.264,253.200 398.029 C 253.200 397.793,253.425 397.645,253.700 397.700 C 253.983 397.757,254.256 397.313,254.329 396.676 C 254.491 395.265,254.533 395.253,259.600 395.114 L 263.800 395.000 263.924 393.500 L 264.048 392.000 268.124 391.953 C 270.366 391.927,272.416 391.932,272.679 391.965 C 272.943 391.999,273.277 391.397,273.421 390.630 L 273.683 389.233 276.541 389.117 L 279.400 389.000 279.524 387.500 L 279.648 386.000 282.424 385.950 C 285.037 385.903,285.721 385.840,286.200 385.600 C 286.310 385.545,286.745 385.478,287.167 385.450 C 287.588 385.423,288.083 385.250,288.267 385.067 C 288.594 384.739,288.650 384.552,288.750 383.447 C 288.785 383.056,289.566 382.844,291.399 382.728 C 292.866 382.634,294.216 382.327,294.499 382.022 C 294.898 381.593,294.898 381.540,294.500 381.765 C 294.225 381.920,294.000 381.876,294.000 381.666 C 294.000 381.457,294.289 381.175,294.642 381.039 C 295.008 380.899,295.185 380.537,295.054 380.197 C 294.872 379.723,295.193 379.600,296.613 379.600 C 297.596 379.600,298.400 379.426,298.400 379.213 C 298.400 378.999,298.700 378.940,299.066 379.081 C 299.565 379.272,299.646 379.194,299.389 378.768 C 299.103 378.293,299.151 378.285,299.688 378.719 C 300.182 379.120,300.397 379.129,300.626 378.758 C 300.827 378.433,300.740 378.371,300.362 378.568 C 299.950 378.781,299.960 378.718,300.400 378.330 C 300.730 378.038,301.000 377.530,301.000 377.200 C 301.000 376.857,301.428 376.552,302.000 376.488 C 304.007 376.263,304.829 375.967,304.768 375.489 C 304.549 373.774,304.758 373.600,307.026 373.600 C 309.869 373.600,310.800 373.109,310.800 371.610 C 310.800 370.556,310.939 370.437,312.300 370.324 C 313.719 370.207,313.807 370.119,313.924 368.700 L 314.048 367.200 316.124 367.195 C 319.306 367.186,319.944 366.904,320.231 365.378 C 320.454 364.186,320.637 364.030,321.940 363.922 C 323.313 363.807,323.407 363.710,323.524 362.300 C 323.642 360.881,323.723 360.800,325.024 360.800 C 326.322 360.800,326.400 360.723,326.400 359.439 C 326.400 358.091,326.421 358.075,328.500 357.857 C 332.168 357.473,332.180 357.468,332.583 356.100 C 332.866 355.138,333.197 354.800,333.854 354.800 C 335.022 354.800,336.000 353.784,336.000 352.571 C 336.000 351.975,336.231 351.600,336.600 351.600 C 337.661 351.600,337.788 351.554,338.500 350.910 C 338.885 350.561,339.200 349.854,339.200 349.338 C 339.200 348.533,339.398 348.400,340.600 348.400 C 341.967 348.400,342.000 348.362,342.000 346.800 L 342.000 345.200 343.600 345.200 L 345.200 345.200 345.200 343.600 L 345.200 342.000 346.800 342.000 C 348.362 342.000,348.400 341.967,348.400 340.600 C 348.400 339.398,348.533 339.200,349.338 339.200 C 350.159 339.200,351.971 337.787,351.700 337.358 C 351.274 336.685,351.808 336.050,352.985 335.829 C 354.156 335.610,354.407 335.367,354.615 334.259 C 354.810 333.223,355.127 332.870,356.131 332.574 C 356.829 332.368,357.411 331.930,357.424 331.600 C 357.469 330.457,358.115 328.996,358.956 328.138 C 360.519 326.541,360.800 326.039,360.800 324.841 C 360.800 323.751,360.930 323.638,362.300 323.524 C 363.719 323.407,363.807 323.319,363.924 321.900 C 364.026 320.663,364.202 320.399,364.924 320.394 C 366.592 320.382,366.963 319.785,367.130 316.845 L 367.288 314.043 368.744 313.922 C 370.112 313.807,370.207 313.710,370.324 312.300 C 370.420 311.147,370.628 310.788,371.224 310.750 C 372.680 310.656,372.829 310.600,373.208 310.000 C 373.417 309.670,373.591 308.376,373.594 307.125 C 373.600 304.853,373.601 304.851,374.900 304.725 C 376.120 304.608,376.208 304.496,376.323 302.900 C 376.438 301.315,376.694 301.022,377.847 301.158 C 378.569 301.243,379.312 300.070,379.085 299.202 C 378.969 298.761,379.038 298.400,379.237 298.400 C 379.437 298.400,379.600 297.596,379.600 296.613 C 379.600 295.163,379.717 294.870,380.219 295.063 C 380.573 295.198,381.100 294.979,381.449 294.550 C 381.788 294.134,381.944 294.067,381.800 294.400 C 381.657 294.730,381.824 294.651,382.170 294.224 C 382.582 293.716,382.800 292.642,382.800 291.124 C 382.800 289.554,382.962 288.786,383.300 288.757 C 383.575 288.734,384.160 288.689,384.600 288.657 C 385.141 288.619,385.432 288.277,385.498 287.600 C 385.960 282.910,386.143 282.159,387.025 281.342 C 387.534 280.870,388.061 280.595,388.196 280.730 C 388.332 280.865,388.332 280.689,388.198 280.339 C 388.052 279.959,388.205 279.607,388.577 279.464 C 389.058 279.280,389.200 278.594,389.200 276.457 L 389.200 273.689 390.613 273.424 C 391.390 273.278,391.999 272.943,391.965 272.679 C 391.932 272.416,391.927 270.366,391.953 268.124 L 392.000 264.048 393.500 263.924 L 395.000 263.800 395.113 259.100 C 395.231 254.185,395.250 254.139,397.070 254.363 C 397.328 254.395,397.671 254.209,397.832 253.949 C 398.026 253.634,397.936 253.574,397.562 253.768 C 397.253 253.928,397.315 253.801,397.700 253.486 C 398.307 252.988,398.400 252.157,398.400 247.256 C 398.400 241.867,398.438 241.600,399.200 241.600 C 399.995 241.600,400.000 241.333,400.000 200.200 L 400.000 158.800 399.100 158.760 C 398.237 158.722,398.241 158.707,399.200 158.400 C 400.159 158.093,400.163 158.078,399.300 158.040 C 398.446 158.002,397.926 152.210,398.386 147.856 C 398.439 147.357,398.302 147.213,397.971 147.418 C 397.654 147.614,397.578 147.559,397.760 147.265 C 398.200 146.552,397.504 145.800,396.400 145.796 C 395.407 145.792,395.399 145.764,395.301 141.796 C 395.196 137.566,394.972 135.976,394.493 136.050 C 394.332 136.074,393.705 136.073,393.100 136.047 L 392.000 136.000 391.994 131.900 C 391.988 128.136,391.721 126.677,391.055 126.766 C 389.285 127.003,389.200 126.877,389.200 124.029 C 389.200 122.048,389.021 121.079,388.574 120.632 C 388.230 120.288,388.046 119.849,388.165 119.657 C 388.423 119.239,387.039 117.894,386.700 118.233 C 386.571 118.362,386.547 118.917,386.646 119.466 C 386.746 120.015,386.667 120.365,386.472 120.244 C 386.277 120.124,386.084 118.825,386.043 117.358 C 386.003 115.891,385.803 114.379,385.599 113.998 C 385.395 113.617,385.330 113.203,385.455 113.078 C 385.907 112.626,384.577 111.382,383.700 111.436 C 382.871 111.486,382.800 111.321,382.800 109.322 C 382.800 108.117,382.638 107.253,382.435 107.378 C 382.234 107.502,382.121 107.288,382.183 106.902 C 382.326 106.008,380.941 104.660,380.179 104.953 C 379.734 105.123,379.600 104.812,379.600 103.611 C 379.600 102.751,379.428 101.941,379.217 101.811 C 379.007 101.681,378.948 101.281,379.085 100.922 C 379.242 100.515,379.175 100.368,378.910 100.532 C 378.676 100.677,378.376 100.515,378.245 100.172 C 378.102 99.800,377.804 99.671,377.503 99.851 C 377.207 100.029,377.247 99.847,377.600 99.407 C 378.155 98.717,378.133 98.679,377.300 98.893 C 376.470 99.107,376.400 98.991,376.400 97.405 C 376.400 95.635,375.999 95.200,374.367 95.200 C 373.714 95.200,373.600 94.905,373.600 93.224 C 373.600 92.137,373.420 91.136,373.200 91.000 C 372.980 90.864,372.800 90.414,372.800 89.999 C 372.800 89.484,372.568 89.291,372.066 89.387 C 370.941 89.604,370.478 89.125,370.333 87.597 C 370.209 86.300,370.093 86.191,368.700 86.076 C 367.094 85.943,367.034 85.791,367.061 81.932 C 367.067 81.086,366.751 80.713,365.539 80.132 C 364.232 79.507,364.009 79.210,364.005 78.100 C 364.001 76.951,363.872 76.799,362.900 76.794 C 361.372 76.785,360.894 76.389,360.736 74.999 C 360.620 73.973,360.413 73.782,359.300 73.675 C 358.075 73.557,358.000 73.459,358.000 71.975 C 358.000 71.109,357.845 70.400,357.655 70.400 C 357.465 70.400,357.340 69.995,357.378 69.500 C 357.457 68.461,356.874 67.507,356.355 67.828 C 356.160 67.949,356.000 67.862,356.000 67.636 C 356.000 67.410,355.754 67.319,355.454 67.434 C 354.985 67.614,354.339 66.021,354.444 64.943 C 354.488 64.487,353.422 64.012,352.340 64.006 C 351.419 64.001,351.290 63.847,351.360 62.839 C 351.431 61.817,351.259 61.625,349.920 61.223 C 348.743 60.871,348.400 60.564,348.400 59.864 C 348.400 58.650,347.675 58.000,346.320 58.000 C 345.208 58.000,345.034 57.629,345.084 55.353 C 345.089 55.108,344.892 54.911,344.647 54.916 C 342.371 54.966,342.000 54.792,342.000 53.680 C 342.000 52.320,341.349 51.600,340.120 51.600 C 339.436 51.600,339.197 51.369,339.187 50.700 C 339.168 49.309,338.252 48.400,336.868 48.400 C 335.958 48.400,335.684 48.248,335.843 47.831 C 336.078 47.219,335.362 45.583,334.888 45.647 C 333.955 45.774,332.879 44.973,332.472 43.849 C 332.138 42.924,331.747 42.549,331.102 42.534 C 326.091 42.418,326.460 42.544,326.324 40.900 C 326.211 39.531,326.087 39.389,324.900 39.275 C 323.781 39.167,323.600 38.997,323.600 38.055 C 323.600 36.688,322.940 36.001,321.620 35.995 C 320.827 35.992,320.430 35.636,319.836 34.395 L 319.071 32.800 316.536 32.800 C 314.120 32.800,314.000 32.754,314.000 31.833 C 314.000 30.096,313.591 29.600,312.157 29.600 C 311.083 29.600,310.790 29.433,310.750 28.800 C 310.723 28.360,310.678 27.775,310.650 27.500 C 310.619 27.186,309.523 26.874,307.700 26.662 C 305.046 26.353,304.800 26.247,304.800 25.411 C 304.800 24.225,304.125 23.696,302.398 23.533 C 301.356 23.434,301.014 23.222,301.056 22.700 C 301.086 22.315,300.872 22.000,300.579 22.000 C 300.287 22.000,299.917 21.789,299.758 21.532 C 299.562 21.215,299.689 21.149,300.155 21.327 C 300.564 21.484,300.742 21.430,300.596 21.194 C 300.461 20.976,299.932 20.902,299.419 21.031 C 298.907 21.160,298.367 21.070,298.220 20.832 C 298.073 20.595,297.354 20.400,296.622 20.400 C 295.494 20.400,295.190 20.186,294.627 19.000 C 294.261 18.230,293.746 17.573,293.481 17.541 C 293.217 17.508,292.730 17.445,292.400 17.400 C 292.070 17.355,291.066 17.292,290.168 17.259 C 288.603 17.202,288.538 17.148,288.568 15.915 C 288.596 14.785,288.471 14.628,287.533 14.615 C 286.947 14.607,286.332 14.465,286.167 14.300 C 286.002 14.135,284.457 14.000,282.733 14.000 C 279.381 14.000,279.439 14.043,279.624 11.700 C 279.659 11.246,278.036 10.884,275.758 10.840 C 273.809 10.802,273.699 10.740,273.343 9.500 L 272.971 8.200 268.585 8.064 C 263.588 7.910,264.000 8.041,263.825 6.546 C 263.621 4.799,263.620 4.797,263.300 4.847 C 260.710 5.256,254.400 4.710,254.400 4.076 C 254.400 3.055,253.393 1.807,252.530 1.759 C 252.128 1.737,249.505 1.692,246.700 1.659 C 241.886 1.603,241.600 1.555,241.600 0.800 C 241.600 0.005,241.333 0.000,200.600 0.000 C 159.867 0.000,159.600 0.005,159.600 0.800 C 159.600 1.891,158.897 1.815,158.682 0.700 L 158.509 -0.200 158.454 0.700 M223.692 37.548 C 224.733 37.782,226.353 38.323,227.292 38.750 C 228.353 39.233,230.779 39.703,233.693 39.990 C 238.791 40.491,240.400 40.846,241.827 41.781 C 242.338 42.116,244.379 42.652,246.364 42.973 C 249.922 43.549,251.205 43.986,252.419 45.040 C 252.759 45.335,254.338 45.850,255.927 46.185 C 258.630 46.753,260.800 47.728,260.800 48.373 C 260.800 48.527,262.156 48.973,263.814 49.364 C 265.495 49.761,267.308 50.476,267.914 50.983 C 268.511 51.483,269.998 52.181,271.219 52.533 C 272.439 52.886,273.867 53.633,274.392 54.192 C 274.918 54.751,276.077 55.405,276.968 55.645 C 277.859 55.885,279.220 56.576,279.994 57.181 C 280.767 57.786,281.918 58.407,282.551 58.561 C 283.184 58.715,284.219 59.358,284.851 59.989 C 285.482 60.621,286.659 61.356,287.466 61.622 C 288.273 61.888,289.668 62.779,290.566 63.601 C 291.465 64.423,292.610 65.223,293.111 65.378 C 293.612 65.534,294.300 66.086,294.640 66.605 C 294.980 67.124,295.741 67.658,296.329 67.790 C 296.918 67.922,298.277 68.828,299.348 69.804 C 300.420 70.779,301.618 71.679,302.012 71.804 C 302.406 71.929,303.029 72.489,303.395 73.049 C 303.762 73.609,304.665 74.319,305.402 74.627 C 306.139 74.935,306.853 75.536,306.989 75.964 C 307.124 76.392,307.860 77.111,308.624 77.561 C 309.388 78.012,310.176 78.812,310.377 79.339 C 310.581 79.875,311.202 80.414,311.784 80.560 C 312.358 80.704,313.030 81.266,313.277 81.809 C 313.524 82.352,314.346 83.161,315.103 83.608 C 315.861 84.055,316.575 84.783,316.691 85.226 C 316.807 85.669,317.393 86.286,317.995 86.597 C 318.596 86.908,319.312 87.705,319.587 88.368 C 319.861 89.031,320.433 89.684,320.858 89.818 C 321.283 89.953,322.076 90.769,322.620 91.632 C 323.165 92.494,323.857 93.200,324.159 93.200 C 324.462 93.200,325.003 93.820,325.362 94.577 C 325.722 95.335,326.429 96.280,326.933 96.677 C 327.438 97.075,328.353 98.258,328.967 99.307 C 329.581 100.355,330.421 101.450,330.834 101.739 C 331.247 102.028,331.849 102.898,332.173 103.674 C 332.497 104.449,333.220 105.383,333.781 105.751 C 334.341 106.118,334.800 106.673,334.800 106.985 C 334.800 107.296,335.503 108.364,336.363 109.357 C 337.222 110.350,338.145 111.846,338.412 112.681 C 338.680 113.517,339.404 114.673,340.021 115.251 C 340.638 115.830,341.334 117.011,341.567 117.877 C 341.800 118.744,342.445 119.879,343.000 120.400 C 343.555 120.921,344.195 122.037,344.421 122.879 C 344.648 123.721,345.342 124.993,345.964 125.705 C 346.585 126.417,347.395 128.042,347.763 129.316 C 348.130 130.589,348.774 131.974,349.193 132.393 C 349.918 133.118,350.258 134.045,351.211 137.900 C 351.442 138.835,351.813 139.600,352.035 139.600 C 352.625 139.600,353.981 142.799,353.991 144.215 C 353.996 144.884,354.380 146.144,354.844 147.015 C 355.309 147.887,355.940 149.071,356.248 149.648 C 356.555 150.224,356.985 152.105,357.204 153.829 C 357.446 155.741,357.991 157.709,358.603 158.879 C 359.329 160.268,359.713 161.870,359.997 164.698 C 360.581 170.506,360.794 171.642,361.635 173.428 C 362.782 175.863,363.166 180.062,363.442 193.147 C 363.830 211.555,363.134 221.505,361.075 227.000 C 360.745 227.880,360.264 230.400,360.006 232.600 C 359.748 234.800,359.093 237.860,358.550 239.400 C 358.008 240.940,357.225 243.774,356.811 245.698 C 356.397 247.621,355.692 249.710,355.244 250.338 C 354.796 250.967,354.043 252.893,353.570 254.618 C 353.096 256.343,352.287 258.395,351.772 259.177 C 351.257 259.960,350.570 261.622,350.247 262.872 C 349.596 265.385,348.945 266.800,348.441 266.800 C 348.259 266.800,347.796 267.798,347.412 269.017 C 347.029 270.236,346.132 272.081,345.421 273.117 C 344.709 274.153,343.909 275.661,343.643 276.468 C 343.377 277.275,342.874 278.173,342.525 278.462 C 342.176 278.752,341.543 279.801,341.118 280.794 C 340.694 281.787,339.958 283.015,339.483 283.521 C 339.009 284.028,338.076 285.403,337.410 286.578 C 335.418 290.092,332.829 293.770,327.800 300.230 C 326.480 301.926,325.193 303.669,324.939 304.104 C 324.371 305.081,317.124 312.867,313.600 316.288 C 312.170 317.676,309.619 320.159,307.932 321.806 C 306.244 323.453,304.701 324.800,304.502 324.800 C 304.302 324.800,303.703 325.266,303.170 325.836 C 302.636 326.406,301.300 327.525,300.200 328.323 C 299.100 329.120,298.056 330.004,297.880 330.286 C 297.704 330.569,296.984 331.095,296.280 331.456 C 295.576 331.817,294.460 332.545,293.800 333.074 C 290.685 335.570,288.840 336.863,287.000 337.840 C 285.900 338.424,284.845 339.169,284.655 339.496 C 284.465 339.824,283.173 340.607,281.784 341.236 C 280.395 341.866,279.139 342.575,278.993 342.812 C 278.846 343.049,277.710 343.692,276.467 344.242 C 275.225 344.791,273.838 345.589,273.385 346.014 C 272.932 346.439,271.499 347.153,270.200 347.600 C 268.901 348.047,267.470 348.755,267.019 349.174 C 266.569 349.593,265.030 350.234,263.600 350.600 C 262.170 350.966,260.640 351.588,260.200 351.982 C 258.978 353.078,258.006 353.484,255.486 353.950 C 254.144 354.198,252.604 354.814,251.810 355.419 C 250.826 356.170,249.457 356.631,246.922 357.068 C 244.985 357.401,242.495 358.102,241.388 358.624 C 239.937 359.310,237.876 359.743,233.988 360.179 C 230.388 360.583,228.065 361.052,226.987 361.591 C 222.140 364.015,181.046 364.330,174.522 361.992 C 171.085 360.761,169.841 360.504,165.017 360.029 C 161.759 359.708,160.158 359.348,158.777 358.626 C 157.671 358.048,155.568 357.469,153.582 357.198 C 151.747 356.946,149.726 356.439,149.090 356.070 C 146.106 354.339,145.322 354.001,144.287 354.001 C 142.878 354.000,140.437 352.991,139.556 352.045 C 139.185 351.646,137.807 351.109,136.495 350.851 C 135.182 350.592,133.319 349.862,132.354 349.227 C 131.389 348.592,129.793 347.858,128.807 347.596 C 127.820 347.334,126.428 346.605,125.712 345.976 C 124.996 345.348,123.667 344.634,122.759 344.389 C 121.851 344.144,120.677 343.513,120.150 342.987 C 119.623 342.460,118.474 341.835,117.597 341.599 C 116.618 341.336,115.663 340.712,115.125 339.985 C 114.644 339.333,114.006 338.800,113.709 338.800 C 112.808 338.800,110.261 337.343,109.230 336.239 C 108.697 335.668,108.008 335.200,107.700 335.200 C 107.391 335.200,106.593 334.654,105.926 333.987 C 105.259 333.320,104.147 332.527,103.456 332.225 C 102.765 331.923,101.420 330.946,100.468 330.055 C 99.515 329.163,98.406 328.329,98.004 328.201 C 97.601 328.073,96.987 327.535,96.640 327.005 C 96.293 326.475,95.377 325.742,94.604 325.375 C 93.832 325.009,93.200 324.462,93.200 324.159 C 93.200 323.857,92.494 323.165,91.632 322.620 C 90.769 322.076,89.953 321.283,89.818 320.858 C 89.684 320.433,89.063 319.875,88.440 319.617 C 87.817 319.358,87.062 318.689,86.762 318.129 C 86.462 317.569,85.804 316.953,85.299 316.761 C 84.794 316.569,84.024 315.808,83.588 315.069 C 83.152 314.331,82.352 313.524,81.809 313.277 C 81.266 313.030,80.706 312.365,80.564 311.800 C 80.422 311.234,79.790 310.505,79.160 310.179 C 78.529 309.853,77.742 309.062,77.411 308.422 C 77.080 307.781,76.444 307.141,75.998 306.999 C 75.551 306.858,74.938 306.148,74.635 305.423 C 74.332 304.698,73.737 303.856,73.311 303.552 C 72.886 303.249,71.879 301.965,71.074 300.700 C 70.269 299.435,69.444 298.400,69.241 298.400 C 69.038 298.400,68.478 297.587,67.997 296.593 C 67.516 295.599,66.799 294.613,66.403 294.402 C 66.008 294.190,65.507 293.518,65.291 292.908 C 65.075 292.299,64.258 291.146,63.476 290.348 C 62.617 289.470,61.945 288.314,61.778 287.425 C 61.614 286.551,61.133 285.713,60.592 285.358 C 60.092 285.030,59.285 283.825,58.800 282.681 C 58.314 281.536,57.501 280.150,56.993 279.600 C 56.485 279.050,55.876 277.868,55.639 276.974 C 55.403 276.080,54.751 274.918,54.192 274.392 C 53.633 273.867,52.885 272.439,52.531 271.219 C 52.176 269.998,51.475 268.460,50.972 267.800 C 50.470 267.140,49.745 265.340,49.361 263.800 C 48.973 262.243,48.352 260.777,47.962 260.499 C 47.187 259.944,46.680 258.553,45.999 255.107 C 45.750 253.846,45.377 252.709,45.170 252.582 C 44.314 252.053,43.510 249.708,42.934 246.067 C 42.598 243.940,42.065 241.910,41.749 241.555 C 40.885 240.583,40.498 238.854,39.990 233.693 C 39.702 230.771,39.234 228.353,38.748 227.287 C 36.049 221.358,36.142 181.605,38.872 174.631 C 39.296 173.549,39.912 170.669,40.242 168.231 C 40.864 163.628,41.275 161.878,42.238 159.733 C 42.550 159.036,43.137 156.852,43.542 154.879 C 43.946 152.907,44.684 150.636,45.180 149.833 C 45.676 149.030,46.427 146.992,46.849 145.304 C 47.271 143.616,47.960 141.867,48.381 141.417 C 48.801 140.968,49.498 139.283,49.929 137.672 C 50.360 136.062,51.074 134.352,51.516 133.872 C 51.958 133.393,52.618 132.100,52.983 131.000 C 53.348 129.900,54.068 128.370,54.584 127.600 C 55.100 126.830,56.003 125.165,56.590 123.900 C 57.177 122.635,57.804 121.600,57.983 121.600 C 58.161 121.600,58.703 120.624,59.187 119.432 C 59.671 118.239,60.438 116.934,60.892 116.532 C 61.345 116.129,62.055 115.043,62.469 114.118 C 62.883 113.193,63.633 111.933,64.135 111.318 C 64.638 110.703,65.541 109.345,66.141 108.300 C 66.742 107.255,67.373 106.400,67.543 106.400 C 67.713 106.400,68.244 105.703,68.723 104.852 C 69.201 104.001,69.876 103.069,70.221 102.782 C 70.567 102.496,71.481 101.347,72.253 100.230 C 73.025 99.114,74.095 97.570,74.632 96.800 C 76.783 93.715,93.195 76.933,96.085 74.863 C 96.902 74.279,98.882 72.711,100.485 71.380 C 102.088 70.049,103.985 68.615,104.700 68.194 C 105.415 67.772,106.000 67.301,106.000 67.146 C 106.000 66.992,106.675 66.458,107.500 65.959 C 108.325 65.461,109.617 64.524,110.371 63.877 C 111.125 63.229,112.385 62.432,113.171 62.104 C 113.957 61.776,115.255 60.918,116.055 60.196 C 116.855 59.474,118.048 58.765,118.705 58.621 C 119.362 58.477,120.315 57.916,120.824 57.375 C 121.332 56.834,122.437 56.205,123.279 55.979 C 124.121 55.752,125.423 55.029,126.171 54.372 C 126.919 53.715,128.438 52.908,129.547 52.579 C 130.655 52.250,132.066 51.562,132.681 51.050 C 133.296 50.539,135.105 49.804,136.700 49.417 C 138.295 49.030,139.600 48.557,139.600 48.366 C 139.600 47.666,141.491 46.812,144.397 46.201 C 146.036 45.856,147.742 45.247,148.188 44.847 C 149.286 43.863,150.011 43.634,154.186 42.953 C 156.158 42.632,158.048 42.129,158.386 41.835 C 159.406 40.949,161.566 40.447,166.400 39.974 C 169.534 39.667,171.729 39.218,173.287 38.563 C 174.768 37.940,176.953 37.472,179.487 37.235 C 184.776 36.741,221.251 36.999,223.692 37.548 M192.600 70.273 C 191.940 70.357,189.510 70.862,187.200 71.395 C 184.890 71.927,180.969 72.642,178.486 72.982 C 176.003 73.322,173.573 73.849,173.086 74.154 C 172.599 74.458,170.220 75.015,167.800 75.391 C 164.949 75.835,162.555 76.475,161.000 77.211 C 159.680 77.835,157.880 78.462,157.000 78.603 C 155.033 78.920,153.197 79.569,152.400 80.229 C 152.070 80.503,150.450 81.179,148.800 81.732 C 145.230 82.928,139.244 85.504,138.400 86.208 C 138.070 86.484,136.810 87.199,135.600 87.799 C 134.390 88.398,133.038 89.220,132.595 89.625 C 132.152 90.030,130.982 90.737,129.995 91.196 C 129.008 91.655,127.120 92.839,125.800 93.826 C 124.480 94.814,122.500 96.225,121.400 96.963 C 120.300 97.701,119.057 98.686,118.638 99.152 C 118.219 99.618,117.690 100.000,117.462 100.000 C 117.235 100.000,116.408 100.617,115.624 101.371 C 113.937 102.995,112.259 104.566,109.000 107.573 C 107.680 108.791,105.021 111.590,103.092 113.794 C 98.109 119.485,97.680 119.997,96.267 121.949 C 95.570 122.911,94.320 124.621,93.488 125.749 C 92.656 126.877,91.507 128.700,90.934 129.800 C 90.361 130.900,89.460 132.317,88.932 132.948 C 88.403 133.580,87.698 134.747,87.366 135.543 C 87.034 136.338,86.431 137.352,86.027 137.795 C 85.332 138.556,81.200 147.106,81.200 147.782 C 81.200 147.957,80.581 149.472,79.823 151.150 C 79.066 152.827,78.253 155.068,78.015 156.130 C 77.778 157.191,77.158 158.901,76.638 159.930 C 76.118 160.958,75.409 163.420,75.064 165.400 C 74.718 167.380,74.075 170.009,73.635 171.242 C 73.194 172.475,72.639 174.725,72.401 176.242 C 72.162 177.759,71.607 180.530,71.166 182.400 C 69.011 191.536,69.100 206.239,71.361 214.800 C 71.913 216.890,72.654 220.310,73.007 222.400 C 73.361 224.490,73.882 226.560,74.165 227.000 C 74.598 227.673,75.447 231.471,76.199 236.091 C 76.296 236.690,76.819 237.860,77.361 238.691 C 77.903 239.521,78.615 241.525,78.945 243.145 C 79.286 244.822,79.884 246.457,80.334 246.945 C 80.768 247.415,81.518 249.150,82.001 250.800 C 82.485 252.450,83.132 254.084,83.440 254.432 C 83.748 254.779,84.467 256.219,85.037 257.632 C 85.607 259.044,86.413 260.568,86.828 261.017 C 87.244 261.467,87.797 262.457,88.058 263.217 C 88.319 263.978,89.223 265.390,90.066 266.356 C 90.912 267.325,91.600 268.535,91.600 269.053 C 91.600 269.594,92.110 270.448,92.800 271.063 C 93.460 271.651,94.000 272.358,94.000 272.633 C 94.000 272.909,94.830 274.094,95.845 275.267 C 96.860 276.440,97.933 277.963,98.230 278.651 C 98.527 279.340,99.039 280.006,99.367 280.132 C 99.695 280.258,100.329 281.077,100.775 281.951 C 101.221 282.826,101.960 283.660,102.416 283.805 C 102.872 283.950,103.530 284.665,103.878 285.395 C 104.226 286.125,104.936 286.916,105.456 287.153 C 105.975 287.389,106.400 287.776,106.400 288.012 C 106.400 288.553,111.470 293.600,112.014 293.600 C 112.236 293.600,112.629 294.064,112.887 294.632 C 113.146 295.200,114.029 296.007,114.850 296.425 C 115.670 296.844,116.458 297.553,116.600 298.000 C 116.742 298.447,117.565 299.174,118.429 299.615 C 119.293 300.056,120.000 300.589,120.000 300.800 C 120.000 301.011,120.675 301.528,121.500 301.950 C 122.325 302.371,123.693 303.370,124.541 304.169 C 125.388 304.969,126.679 305.873,127.409 306.178 C 128.139 306.483,128.936 307.108,129.182 307.566 C 129.449 308.065,130.024 308.400,130.613 308.400 C 131.175 308.400,132.256 308.995,133.131 309.785 C 133.974 310.547,135.549 311.549,136.632 312.012 C 137.714 312.475,138.960 313.178,139.400 313.573 C 139.840 313.969,141.100 314.622,142.200 315.025 C 143.300 315.427,144.830 316.159,145.600 316.651 C 146.370 317.142,148.052 317.814,149.338 318.144 C 150.624 318.474,152.334 319.195,153.138 319.747 C 153.942 320.299,155.856 321.038,157.391 321.391 C 158.926 321.743,160.944 322.477,161.875 323.023 C 163.071 323.724,164.812 324.190,167.804 324.610 C 170.134 324.937,172.706 325.537,173.520 325.944 C 174.334 326.351,176.980 326.983,179.400 327.349 C 181.820 327.715,185.600 328.470,187.800 329.028 C 193.769 330.540,206.075 330.557,212.811 329.061 C 215.335 328.501,219.380 327.759,221.800 327.412 C 224.220 327.066,227.060 326.419,228.111 325.975 C 229.162 325.531,231.592 324.982,233.511 324.754 C 235.771 324.486,237.916 323.930,239.600 323.177 C 241.030 322.537,243.048 321.831,244.085 321.609 C 245.121 321.386,247.011 320.685,248.285 320.050 C 249.558 319.416,251.140 318.774,251.800 318.623 C 254.352 318.039,263.814 313.271,268.519 310.200 C 269.530 309.540,271.394 308.370,272.662 307.600 C 273.929 306.830,276.324 305.166,277.983 303.902 C 279.642 302.639,281.540 301.199,282.200 300.702 C 288.265 296.142,299.917 284.165,303.705 278.600 C 304.304 277.720,305.704 275.740,306.817 274.200 C 307.930 272.660,309.101 270.794,309.419 270.054 C 309.737 269.314,310.522 268.111,311.163 267.381 C 311.805 266.650,312.460 265.640,312.620 265.136 C 312.780 264.631,313.516 263.339,314.256 262.264 C 314.995 261.190,315.600 260.140,315.600 259.933 C 315.600 259.725,316.156 258.440,316.836 257.078 C 317.516 255.715,318.488 253.520,318.995 252.200 C 319.502 250.880,320.381 248.720,320.949 247.400 C 321.517 246.080,321.985 244.670,321.991 244.267 C 321.996 243.864,322.561 242.256,323.247 240.694 C 323.932 239.131,324.647 236.626,324.836 235.125 C 325.024 233.624,325.625 231.092,326.170 229.498 C 326.716 227.904,327.531 224.440,327.982 221.800 C 328.433 219.160,329.075 216.010,329.408 214.800 C 330.890 209.423,330.541 192.746,328.815 186.400 C 328.366 184.750,327.656 181.305,327.237 178.744 C 326.818 176.183,326.194 173.657,325.850 173.132 C 325.505 172.606,324.952 170.239,324.619 167.872 C 324.174 164.703,323.735 163.090,322.953 161.755 C 322.368 160.758,321.638 158.740,321.330 157.271 C 321.022 155.802,320.314 153.942,319.757 153.138 C 319.200 152.334,318.471 150.629,318.136 149.350 C 317.802 148.071,317.193 146.552,316.783 145.976 C 316.372 145.400,315.646 143.864,315.168 142.564 C 314.690 141.264,313.974 139.840,313.577 139.400 C 313.179 138.960,312.474 137.711,312.009 136.625 C 311.544 135.539,310.811 134.403,310.380 134.101 C 309.426 133.433,308.400 131.532,308.400 130.434 C 308.400 129.991,308.037 129.434,307.594 129.197 C 307.151 128.959,306.408 127.957,305.944 126.970 C 305.480 125.983,304.768 124.997,304.363 124.780 C 303.957 124.563,303.133 123.534,302.532 122.493 C 301.932 121.452,301.205 120.455,300.917 120.279 C 300.630 120.102,300.039 119.260,299.604 118.408 C 299.169 117.555,298.447 116.742,298.000 116.600 C 297.553 116.458,296.844 115.670,296.425 114.850 C 296.007 114.029,295.200 113.146,294.632 112.887 C 294.064 112.629,293.600 112.241,293.600 112.026 C 293.600 111.515,289.705 107.581,288.330 106.704 C 287.742 106.328,287.144 105.653,287.001 105.204 C 286.859 104.754,286.142 104.136,285.409 103.830 C 284.677 103.524,283.957 102.894,283.809 102.430 C 283.662 101.966,282.826 101.221,281.951 100.775 C 281.077 100.329,280.264 99.710,280.145 99.400 C 280.026 99.090,278.946 98.282,277.746 97.605 C 276.546 96.927,275.460 96.102,275.333 95.770 C 275.206 95.438,274.359 94.789,273.451 94.327 C 272.543 93.866,271.404 93.064,270.919 92.544 C 270.435 92.025,269.670 91.600,269.220 91.600 C 268.770 91.600,267.705 90.970,266.853 90.201 C 266.002 89.431,264.545 88.533,263.616 88.206 C 262.687 87.878,261.408 87.173,260.774 86.639 C 260.139 86.105,258.941 85.452,258.110 85.187 C 257.280 84.922,255.700 84.201,254.600 83.586 C 253.500 82.971,251.544 82.194,250.253 81.860 C 248.962 81.525,247.495 80.865,246.993 80.393 C 246.430 79.865,244.862 79.271,242.915 78.848 C 241.174 78.470,239.193 77.765,238.513 77.280 C 237.665 76.677,235.813 76.149,232.628 75.605 C 230.071 75.168,227.458 74.540,226.819 74.210 C 226.181 73.880,223.820 73.333,221.573 72.996 C 219.326 72.658,215.847 72.006,213.844 71.546 C 211.840 71.086,209.300 70.564,208.200 70.384 C 206.213 70.061,194.896 69.980,192.600 70.273 M387.727 119.846 C 387.448 120.572,387.227 120.380,387.004 119.219 C 386.864 118.493,386.936 118.415,387.392 118.794 C 387.700 119.049,387.851 119.523,387.727 119.846 " stroke="none" fill="#f8f2e5" fill-rule="evenodd"></path></g></svg>