<svg id="svg" version="1.1" xmlns="http://www.w3.org/2000/svg" xmlns:xlink="http://www.w3.org/1999/xlink" width="400" height="400" viewBox="0, 0, 400,400"><g id="svgg"><path id="path0" d="M228.400 10.187 C 227.630 10.465,225.830 11.523,224.400 12.538 C 222.970 13.553,220.630 15.019,219.200 15.797 C 212.707 19.330,208.134 22.266,206.354 24.046 C 205.939 24.461,205.336 24.800,205.014 24.800 C 204.692 24.800,203.837 25.307,203.114 25.928 C 202.391 26.548,200.855 27.658,199.700 28.395 C 198.545 29.132,197.600 29.846,197.600 29.981 C 197.600 30.117,197.015 30.572,196.300 30.993 C 193.034 32.917,185.575 39.204,180.169 44.588 C 175.820 48.921,173.924 51.083,169.985 56.200 C 166.554 60.659,166.007 61.436,166.004 61.869 C 166.002 62.128,165.400 63.124,164.667 64.085 C 162.587 66.810,162.454 67.159,162.888 68.762 C 163.309 70.314,166.779 73.955,168.867 75.035 C 172.232 76.775,176.749 80.859,179.247 84.421 C 185.680 93.592,179.249 112.488,168.303 116.575 C 159.206 119.972,156.373 118.994,153.018 111.298 C 152.610 110.361,152.007 109.371,151.677 109.098 C 151.347 108.824,150.589 107.520,149.993 106.200 C 149.397 104.880,148.525 103.457,148.055 103.038 C 147.585 102.619,147.200 102.063,147.200 101.802 C 147.200 101.542,146.615 100.786,145.900 100.124 C 145.185 99.461,144.223 98.487,143.763 97.960 C 138.243 91.634,127.832 90.385,120.945 95.222 C 119.318 96.366,115.052 98.069,112.498 98.596 C 109.494 99.215,100.000 94.387,100.000 92.240 C 100.000 91.970,99.465 91.237,98.811 90.610 C 98.157 89.984,97.326 88.555,96.966 87.435 C 96.605 86.316,95.880 84.649,95.356 83.730 C 94.831 82.812,94.129 80.742,93.795 79.130 C 93.462 77.519,92.846 75.300,92.426 74.200 C 92.006 73.100,91.281 70.072,90.814 67.472 C 90.348 64.871,89.632 61.896,89.224 60.861 C 88.816 59.825,88.186 57.400,87.825 55.473 C 87.148 51.862,86.511 50.000,85.951 50.000 C 85.117 50.000,84.055 51.879,83.620 54.122 C 83.356 55.485,82.884 57.680,82.571 59.000 C 82.258 60.320,81.550 64.249,80.998 67.732 C 80.446 71.215,79.823 74.383,79.615 74.772 C 79.407 75.161,78.778 77.981,78.219 81.040 C 77.659 84.098,76.839 87.745,76.398 89.144 C 75.614 91.626,75.448 92.810,74.202 104.800 C 73.284 113.634,73.438 117.209,75.188 127.807 C 75.687 130.825,78.651 136.788,80.016 137.519 C 81.920 138.537,87.566 137.734,93.200 135.643 C 100.226 133.035,108.723 136.808,113.722 144.757 C 115.114 146.969,115.631 148.265,117.253 153.600 C 118.676 158.283,116.867 168.185,113.986 171.474 C 113.373 172.174,112.755 173.112,112.614 173.557 C 111.658 176.567,107.225 178.188,104.259 176.611 C 103.236 176.067,101.369 175.323,100.110 174.957 C 98.850 174.590,97.341 173.937,96.755 173.503 C 93.290 170.941,84.591 170.978,80.982 173.570 C 80.040 174.246,79.111 174.800,78.918 174.800 C 78.470 174.800,75.538 177.881,74.720 179.211 C 74.114 180.196,73.513 180.951,70.955 183.944 C 70.269 184.745,69.391 186.030,69.003 186.800 C 66.099 192.557,62.103 196.287,57.969 197.102 C 53.847 197.914,48.168 197.351,45.000 195.817 C 43.900 195.284,41.830 194.291,40.400 193.610 C 35.256 191.162,32.983 189.918,32.000 189.012 C 31.450 188.506,30.370 187.774,29.600 187.386 C 28.830 186.999,27.660 186.294,27.000 185.820 C 26.340 185.347,25.350 184.756,24.800 184.508 C 16.588 180.799,14.210 180.271,13.351 181.966 C 12.900 182.855,12.979 183.017,14.363 184.019 C 15.189 184.617,16.097 185.668,16.381 186.353 C 16.665 187.039,17.041 187.600,17.216 187.600 C 17.391 187.600,17.942 188.275,18.441 189.100 C 18.939 189.925,19.868 191.207,20.504 191.949 C 21.141 192.691,21.866 193.771,22.115 194.349 C 22.364 194.927,23.070 195.991,23.684 196.714 C 24.298 197.437,24.800 198.275,24.800 198.576 C 24.800 198.878,25.456 199.906,26.258 200.862 C 27.060 201.818,27.977 203.230,28.296 204.000 C 28.616 204.770,29.210 205.762,29.618 206.204 C 30.026 206.646,30.830 207.996,31.405 209.204 C 33.100 212.760,34.960 215.904,36.073 217.092 C 36.644 217.701,37.495 218.965,37.964 219.900 C 38.433 220.835,38.959 221.600,39.134 221.600 C 39.309 221.600,39.844 222.297,40.323 223.148 C 40.801 223.999,41.483 224.937,41.837 225.231 C 42.191 225.525,43.066 226.673,43.780 227.783 C 46.496 232.000,54.594 239.273,58.381 240.897 C 59.382 241.326,61.010 242.064,62.000 242.538 C 64.739 243.849,73.085 243.824,74.494 242.500 C 75.021 242.005,75.697 241.600,75.998 241.600 C 76.582 241.600,81.600 236.576,81.600 235.991 C 81.600 235.799,82.005 235.195,82.500 234.650 C 82.995 234.105,84.300 232.625,85.400 231.360 C 92.668 223.005,98.761 220.593,104.753 223.700 C 105.919 224.305,107.115 224.800,107.410 224.800 C 108.073 224.800,112.800 229.432,112.800 230.083 C 112.800 230.343,113.245 231.021,113.789 231.589 C 114.334 232.157,115.690 234.741,116.804 237.331 C 119.466 243.522,119.239 245.342,115.573 247.213 C 114.789 247.614,113.891 248.249,113.579 248.625 C 113.267 249.002,112.289 249.622,111.406 250.004 C 109.658 250.761,100.000 259.770,100.000 260.644 C 100.000 260.934,99.459 261.788,98.799 262.540 C 97.039 264.544,96.898 266.532,98.169 271.400 C 100.003 278.427,98.869 288.294,95.722 292.679 C 95.325 293.233,94.640 294.266,94.200 294.975 C 93.169 296.637,89.747 300.000,89.087 300.000 C 88.807 300.000,87.620 300.720,86.449 301.600 C 85.278 302.480,84.099 303.200,83.828 303.200 C 83.558 303.200,82.519 303.742,81.519 304.404 C 80.519 305.066,78.653 305.969,77.372 306.410 C 76.091 306.850,74.673 307.449,74.221 307.741 C 73.770 308.032,72.140 308.595,70.600 308.993 C 69.060 309.391,66.764 310.228,65.499 310.853 C 64.233 311.478,62.343 312.193,61.299 312.442 C 59.169 312.950,50.802 316.829,50.801 317.310 C 50.799 317.904,53.029 318.497,57.400 319.067 C 59.820 319.382,63.124 320.006,64.742 320.452 C 66.360 320.899,70.140 321.608,73.142 322.026 C 76.144 322.445,80.400 323.222,82.600 323.755 C 94.297 326.585,123.753 326.543,128.488 323.689 C 129.209 323.254,130.761 322.586,131.937 322.205 C 137.867 320.280,139.214 315.850,138.586 300.332 C 138.198 290.742,138.350 289.913,140.938 287.467 C 143.651 284.905,144.452 284.530,148.870 283.760 C 163.984 281.123,177.122 287.171,171.001 293.947 C 170.231 294.799,169.213 296.374,168.738 297.448 C 168.263 298.522,167.544 299.850,167.139 300.400 C 165.716 302.332,165.425 310.193,166.657 313.404 C 168.182 317.379,175.017 325.615,182.063 331.968 C 185.917 335.443,189.006 339.014,190.424 341.634 C 191.888 344.338,191.192 356.059,189.353 359.692 C 188.826 360.732,188.029 362.560,187.582 363.755 C 187.135 364.950,186.492 366.158,186.152 366.440 C 185.813 366.722,184.990 368.032,184.323 369.352 C 183.657 370.671,182.806 372.212,182.431 372.776 C 182.057 373.339,180.994 374.920,180.070 376.288 C 179.146 377.656,178.232 379.186,178.039 379.688 C 177.847 380.190,177.039 381.563,176.245 382.740 C 175.450 383.917,174.800 385.277,174.800 385.762 C 174.800 386.248,174.350 387.255,173.800 388.000 C 172.734 389.444,172.423 392.120,173.260 392.637 C 173.526 392.802,174.048 392.473,174.494 391.861 C 174.919 391.277,175.582 390.800,175.968 390.800 C 176.353 390.800,177.301 390.125,178.074 389.300 C 179.939 387.310,182.777 385.110,186.200 383.001 C 187.740 382.052,189.810 380.619,190.800 379.817 C 193.733 377.441,197.480 374.800,197.917 374.800 C 198.141 374.800,199.041 374.215,199.916 373.500 C 200.791 372.785,202.023 371.884,202.654 371.497 C 203.284 371.111,204.880 369.989,206.200 369.004 C 207.520 368.019,209.545 366.653,210.700 365.969 C 211.855 365.284,212.800 364.585,212.800 364.415 C 212.800 364.245,213.565 363.601,214.500 362.984 C 215.435 362.367,216.661 361.398,217.225 360.831 C 217.789 360.264,219.634 358.631,221.325 357.202 C 223.016 355.773,224.400 354.464,224.400 354.293 C 224.400 354.122,225.923 352.408,227.783 350.485 C 231.522 346.620,235.704 340.800,237.614 336.801 C 238.297 335.371,239.139 333.888,239.485 333.506 C 240.405 332.490,238.450 329.755,236.044 328.690 C 235.078 328.263,233.548 327.240,232.644 326.418 C 231.740 325.596,230.708 324.760,230.351 324.561 C 229.406 324.035,225.571 318.835,224.922 317.200 C 224.617 316.430,224.017 315.151,223.590 314.357 C 221.805 311.043,221.032 302.562,222.051 297.486 C 223.476 290.391,229.732 284.889,237.628 283.786 C 241.726 283.214,242.921 284.122,246.600 290.603 C 247.260 291.766,248.102 293.051,248.471 293.458 C 248.841 293.866,249.494 295.010,249.923 296.000 C 250.691 297.771,252.542 300.309,255.100 303.096 C 255.815 303.875,256.400 304.661,256.400 304.843 C 256.400 305.424,260.763 308.422,262.498 309.035 C 266.958 310.608,272.144 310.151,276.800 307.774 C 286.437 302.855,287.887 302.609,292.703 305.074 C 295.658 306.586,300.000 310.294,300.000 311.305 C 300.000 311.612,300.570 312.723,301.266 313.774 C 302.798 316.088,305.327 323.245,306.399 328.304 C 306.830 330.341,307.438 332.501,307.749 333.104 C 308.060 333.707,308.685 335.954,309.139 338.098 C 309.593 340.242,310.512 343.119,311.182 344.492 C 311.852 345.865,312.401 347.351,312.401 347.794 C 312.405 349.509,313.884 351.200,315.380 351.200 C 317.317 351.200,317.439 350.841,318.612 341.736 C 319.173 337.371,320.061 332.000,320.585 329.800 C 321.109 327.600,321.751 324.090,322.013 322.000 C 322.275 319.910,322.925 316.490,323.457 314.400 C 325.355 306.958,326.138 287.850,325.033 275.955 C 324.147 266.413,323.455 265.718,316.248 267.135 C 310.654 268.234,309.541 268.224,303.871 267.023 C 297.472 265.668,296.244 265.307,295.152 264.454 C 294.628 264.045,293.480 263.343,292.600 262.895 C 289.864 261.502,284.806 256.037,283.000 252.523 C 281.259 249.135,280.677 242.144,281.924 239.600 C 285.008 233.309,290.543 228.865,293.668 230.171 C 297.096 231.603,310.718 232.721,316.400 232.036 C 324.348 231.078,325.917 229.842,327.970 222.916 C 328.440 221.330,329.300 219.440,329.882 218.716 C 332.551 215.395,335.191 213.047,337.800 211.674 L 340.600 210.200 346.000 210.200 C 350.842 210.200,351.689 210.308,354.200 211.245 C 355.740 211.820,357.990 212.517,359.200 212.794 C 360.410 213.071,361.940 213.622,362.600 214.018 C 363.260 214.414,365.305 215.287,367.145 215.958 C 368.985 216.628,370.711 217.360,370.980 217.583 C 371.249 217.807,372.221 218.254,373.139 218.578 C 374.057 218.902,375.572 219.682,376.504 220.312 C 377.437 220.941,378.830 221.694,379.600 221.986 C 380.370 222.278,381.630 222.995,382.400 223.580 C 387.036 227.102,389.930 225.373,386.500 221.130 C 385.098 219.397,384.497 218.437,381.400 212.986 C 378.704 208.241,377.742 206.623,376.563 204.855 C 375.883 203.835,375.109 202.341,374.844 201.535 C 374.578 200.730,374.094 199.968,373.767 199.843 C 373.441 199.717,372.656 198.463,372.024 197.054 C 371.393 195.646,370.662 194.362,370.400 194.200 C 370.138 194.038,369.393 192.802,368.743 191.453 C 366.843 187.511,364.919 184.264,364.079 183.584 C 363.650 183.236,363.022 182.423,362.684 181.776 C 362.345 181.129,361.733 180.240,361.323 179.800 C 360.913 179.360,360.142 178.370,359.610 177.600 C 357.993 175.263,352.038 168.672,350.471 167.486 C 344.385 162.880,338.692 160.410,333.456 160.105 L 329.911 159.898 326.558 161.598 C 324.277 162.754,322.956 163.701,322.428 164.555 C 322.001 165.246,321.197 166.207,320.640 166.690 C 320.084 167.174,319.167 168.431,318.602 169.485 C 312.491 180.889,306.554 184.682,299.281 181.832 C 296.194 180.622,292.384 177.368,290.788 174.578 C 290.132 173.432,289.324 172.269,288.993 171.995 C 288.663 171.720,288.100 170.484,287.744 169.248 C 287.388 168.011,286.789 166.550,286.414 166.000 C 286.038 165.450,285.606 164.782,285.452 164.516 C 284.991 163.717,287.958 160.836,290.777 159.347 C 295.377 156.917,296.470 156.132,299.769 152.893 C 309.157 143.675,312.322 129.388,307.626 117.434 C 305.469 111.945,305.657 110.305,308.751 107.600 C 313.217 103.694,319.171 100.574,323.271 99.991 C 324.740 99.782,326.900 99.234,328.070 98.772 C 329.241 98.311,332.313 97.512,334.899 96.996 C 337.484 96.481,340.153 95.783,340.831 95.445 C 341.508 95.107,343.781 94.458,345.880 94.003 C 350.162 93.075,350.623 92.880,353.300 90.866 C 356.253 88.643,355.725 88.357,346.886 87.390 C 343.743 87.047,340.053 86.424,338.686 86.006 C 336.249 85.262,331.573 84.498,324.000 83.608 C 321.910 83.362,319.030 82.908,317.600 82.599 C 304.927 79.857,281.588 80.304,271.968 83.474 C 262.821 86.488,261.213 90.445,264.198 102.600 C 267.380 115.554,258.598 123.350,244.811 119.811 C 234.298 117.113,229.430 111.711,232.757 106.435 C 237.898 98.281,235.943 87.882,227.350 77.683 C 226.663 76.867,225.664 75.570,225.130 74.800 C 223.990 73.158,222.895 71.917,218.700 67.510 C 216.995 65.720,215.600 64.121,215.600 63.958 C 215.600 63.795,215.128 63.100,214.550 62.414 C 209.993 56.998,208.327 47.557,211.002 42.302 C 211.366 41.586,212.010 39.901,212.431 38.557 C 212.852 37.213,213.693 35.467,214.299 34.676 C 214.904 33.885,216.210 31.861,217.200 30.179 C 218.190 28.496,219.720 26.253,220.600 25.193 C 222.968 22.341,224.674 19.907,224.956 18.977 C 225.093 18.524,226.014 17.321,227.003 16.304 C 227.991 15.287,228.800 14.089,228.800 13.641 C 228.800 13.194,229.139 12.647,229.553 12.425 C 231.593 11.334,230.594 9.395,228.400 10.187 M216.814 122.158 C 219.131 122.477,222.011 123.115,223.214 123.577 C 224.416 124.038,226.635 124.677,228.144 124.995 C 229.653 125.314,231.633 126.006,232.544 126.533 C 233.455 127.060,235.135 127.796,236.277 128.170 C 237.420 128.544,238.835 129.227,239.422 129.689 C 240.460 130.505,241.674 131.197,247.300 134.179 C 248.785 134.966,250.000 135.786,250.000 136.000 C 250.000 136.214,250.675 136.831,251.500 137.370 C 253.315 138.557,256.051 141.194,259.800 145.371 C 261.340 147.086,263.169 149.055,263.863 149.745 C 265.176 151.049,267.626 154.520,268.703 156.600 C 269.044 157.260,269.821 158.430,270.429 159.200 C 271.037 159.970,271.810 161.544,272.145 162.697 C 272.481 163.851,273.191 165.381,273.724 166.097 C 274.257 166.814,274.811 168.030,274.955 168.800 C 275.099 169.570,275.747 171.302,276.396 172.649 C 277.044 173.995,277.951 176.833,278.411 178.955 C 278.870 181.077,279.511 183.448,279.835 184.222 C 281.770 188.854,281.718 210.871,279.761 215.555 C 279.432 216.343,278.791 218.700,278.338 220.792 C 277.885 222.885,277.082 225.449,276.554 226.492 C 276.025 227.534,275.337 229.370,275.024 230.573 C 274.711 231.775,274.085 233.263,273.634 233.879 C 273.183 234.496,272.455 236.052,272.016 237.337 C 271.577 238.623,270.674 240.294,270.009 241.051 C 269.344 241.808,268.800 242.600,268.800 242.810 C 268.800 243.408,265.366 248.466,264.055 249.800 C 263.406 250.460,261.352 252.754,259.490 254.899 C 257.628 257.043,254.956 259.804,253.552 261.034 C 252.148 262.265,250.699 263.619,250.330 264.043 C 249.683 264.789,246.954 266.507,243.175 268.551 C 242.171 269.094,241.091 269.849,240.775 270.230 C 240.459 270.611,239.030 271.448,237.601 272.089 C 236.171 272.731,234.714 273.516,234.363 273.833 C 234.012 274.151,232.703 274.677,231.456 275.002 C 230.208 275.327,228.309 276.038,227.236 276.582 C 226.164 277.125,223.332 278.026,220.943 278.584 C 218.554 279.141,215.610 279.898,214.400 280.265 C 210.546 281.435,192.458 281.288,188.000 280.051 C 186.130 279.532,182.710 278.699,180.400 278.200 C 178.090 277.701,175.570 276.923,174.800 276.472 C 174.030 276.021,172.500 275.442,171.400 275.186 C 169.136 274.659,161.805 271.114,158.200 268.804 C 156.880 267.957,154.791 266.726,153.558 266.066 C 152.325 265.407,150.795 264.401,150.158 263.831 C 147.973 261.875,141.400 255.233,139.600 253.162 C 138.610 252.022,137.273 250.530,136.630 249.845 C 135.592 248.741,133.786 246.020,132.000 242.869 C 131.670 242.287,130.826 240.877,130.125 239.736 C 129.423 238.595,128.570 236.722,128.229 235.574 C 127.888 234.426,127.148 232.699,126.584 231.737 C 126.020 230.775,125.307 228.668,124.998 227.056 C 124.690 225.443,124.060 223.166,123.598 221.995 C 120.526 214.200,120.522 189.081,123.592 180.008 C 124.226 178.134,124.862 175.790,125.004 174.800 C 125.147 173.810,125.862 171.733,126.594 170.184 C 127.325 168.635,128.122 166.655,128.363 165.784 C 128.604 164.913,129.341 163.408,130.001 162.440 C 130.660 161.472,131.200 160.473,131.200 160.221 C 131.200 159.324,136.175 152.007,138.400 149.632 C 138.950 149.045,140.550 147.222,141.956 145.582 C 144.473 142.645,146.870 140.360,151.200 136.768 C 153.225 135.088,154.622 134.226,160.200 131.215 C 161.300 130.621,162.830 129.765,163.600 129.312 C 164.370 128.859,165.720 128.264,166.600 127.990 C 167.480 127.716,168.920 127.080,169.800 126.576 C 170.680 126.072,172.750 125.381,174.400 125.041 C 176.050 124.701,178.480 124.040,179.800 123.572 C 181.899 122.828,187.301 122.012,193.800 121.457 C 197.658 121.127,212.642 121.584,216.814 122.158 M193.400 129.086 C 192.740 129.177,191.210 129.501,190.000 129.805 C 188.790 130.109,186.000 130.637,183.800 130.979 C 181.600 131.320,178.090 132.131,176.000 132.780 C 173.910 133.429,171.176 134.241,169.925 134.584 C 168.673 134.927,167.395 135.462,167.084 135.773 C 166.773 136.084,165.281 136.899,163.768 137.586 C 162.254 138.272,160.653 139.165,160.208 139.570 C 159.764 139.975,158.802 140.609,158.072 140.978 C 156.304 141.872,152.394 144.867,149.415 147.610 C 148.087 148.832,146.550 150.117,146.000 150.465 C 145.450 150.813,143.920 152.696,142.600 154.649 C 141.280 156.602,139.851 158.520,139.425 158.912 C 137.720 160.478,132.265 171.223,131.156 175.200 C 130.757 176.630,129.985 179.060,129.440 180.600 C 126.925 187.707,126.915 211.838,129.424 218.974 C 129.970 220.528,130.785 223.060,131.234 224.600 C 131.683 226.140,132.309 227.799,132.626 228.287 C 132.942 228.775,133.572 230.113,134.024 231.261 C 134.476 232.408,135.360 233.932,135.988 234.647 C 136.616 235.362,137.258 236.364,137.416 236.874 C 137.574 237.383,138.496 238.880,139.466 240.200 C 140.436 241.520,141.807 243.403,142.514 244.384 C 144.450 247.069,151.902 254.242,155.205 256.600 C 155.822 257.040,157.801 258.452,159.603 259.737 C 161.406 261.023,163.536 262.348,164.337 262.683 C 165.138 263.018,166.297 263.715,166.913 264.234 C 167.529 264.752,169.330 265.562,170.916 266.033 C 172.502 266.504,174.430 267.204,175.200 267.589 C 175.970 267.973,177.950 268.611,179.600 269.006 C 181.250 269.402,183.320 270.031,184.200 270.405 C 191.175 273.367,216.204 273.370,222.887 270.410 C 223.925 269.950,226.164 269.218,227.862 268.784 C 229.559 268.350,231.320 267.754,231.774 267.459 C 232.228 267.164,233.770 266.523,235.200 266.034 C 236.640 265.541,239.138 264.178,240.800 262.978 C 242.450 261.787,244.771 260.165,245.958 259.374 C 248.807 257.475,255.871 250.575,257.839 247.769 C 258.697 246.544,259.961 244.880,260.647 244.071 C 261.333 243.262,262.304 241.790,262.805 240.800 C 263.306 239.810,264.119 238.460,264.611 237.800 C 265.104 237.140,265.640 236.150,265.802 235.600 C 265.964 235.050,266.687 233.520,267.409 232.200 C 268.131 230.880,268.852 229.170,269.012 228.400 C 269.171 227.630,269.808 225.920,270.426 224.600 C 271.178 222.992,271.756 220.748,272.177 217.800 C 272.522 215.380,273.119 212.050,273.502 210.400 C 274.493 206.141,274.499 192.620,273.513 188.600 C 273.135 187.060,272.545 183.910,272.202 181.600 C 271.794 178.853,271.221 176.708,270.546 175.400 C 269.979 174.300,269.244 172.500,268.913 171.400 C 268.582 170.300,267.994 168.950,267.607 168.400 C 267.219 167.850,266.405 166.410,265.798 165.200 C 265.190 163.990,264.312 162.528,263.846 161.950 C 263.381 161.373,262.688 160.383,262.306 159.750 C 261.925 159.118,260.708 157.430,259.602 156.000 C 258.497 154.570,257.241 152.860,256.813 152.200 C 256.384 151.540,254.676 149.846,253.017 148.436 C 251.357 147.026,250.000 145.734,250.000 145.565 C 250.000 145.264,248.255 143.995,244.200 141.345 C 243.100 140.626,241.850 139.724,241.422 139.341 C 240.994 138.957,239.554 138.077,238.222 137.385 C 236.890 136.693,235.080 135.748,234.200 135.286 C 232.036 134.150,224.530 131.807,220.600 131.041 C 218.840 130.697,215.690 130.055,213.600 129.614 C 209.976 128.848,197.483 128.521,193.400 129.086 M388.400 226.400 C 388.400 226.620,388.771 226.800,389.224 226.800 C 389.677 226.800,389.936 226.620,389.800 226.400 C 389.664 226.180,389.293 226.000,388.976 226.000 C 388.659 226.000,388.400 226.180,388.400 226.400 " stroke="none" fill="#070706" fill-rule="evenodd"></path><path id="path1" d="M167.200 0.800 C 167.200 1.570,166.933 1.600,160.029 1.600 C 152.248 1.600,151.600 1.771,151.600 3.829 L 151.600 4.800 146.029 4.800 C 139.979 4.800,139.200 5.054,139.200 7.029 C 139.200 7.989,139.158 8.000,135.374 8.000 C 131.087 8.000,130.000 8.367,130.000 9.814 C 130.000 10.707,129.839 10.800,128.300 10.804 C 124.493 10.814,123.600 11.165,123.600 12.652 L 123.600 14.000 120.250 14.000 C 115.234 14.000,114.523 14.217,114.218 15.843 C 113.965 17.191,113.949 17.200,111.756 17.200 C 108.916 17.200,108.000 17.691,108.000 19.214 C 108.000 20.397,107.994 20.400,105.600 20.400 C 102.991 20.400,101.600 21.235,101.600 22.800 C 101.600 23.467,101.333 23.600,100.000 23.600 C 98.450 23.600,98.400 23.642,98.400 24.946 C 98.400 26.365,97.260 26.800,93.544 26.800 C 92.513 26.800,92.400 26.932,92.400 28.143 L 92.400 29.485 89.517 29.753 C 86.558 30.028,86.017 30.356,86.006 31.876 C 86.001 32.598,85.737 32.774,84.500 32.876 C 83.081 32.993,82.993 33.081,82.876 34.500 C 82.757 35.940,82.692 36.000,81.276 36.001 C 79.423 36.003,77.200 37.308,77.200 38.394 C 77.200 39.039,76.937 39.200,75.880 39.200 C 74.273 39.200,73.600 39.807,73.600 41.256 C 73.600 42.233,73.438 42.365,72.100 42.476 C 70.731 42.589,70.589 42.713,70.475 43.900 C 70.372 44.963,70.178 45.200,69.407 45.200 C 67.705 45.200,67.200 45.616,67.200 47.019 C 67.200 48.270,67.108 48.359,65.700 48.476 C 64.281 48.593,64.193 48.681,64.076 50.100 C 63.959 51.508,63.870 51.600,62.619 51.600 C 61.211 51.600,60.800 52.104,60.800 53.833 C 60.800 54.672,60.614 54.800,59.400 54.800 C 58.033 54.800,58.000 54.838,58.000 56.400 L 58.000 58.000 56.400 58.000 C 54.838 58.000,54.800 58.033,54.800 59.400 C 54.800 60.614,54.672 60.800,53.833 60.800 C 52.104 60.800,51.600 61.211,51.600 62.619 C 51.600 63.870,51.508 63.959,50.100 64.076 C 48.681 64.193,48.593 64.281,48.476 65.700 C 48.359 67.108,48.270 67.200,47.019 67.200 C 45.616 67.200,45.200 67.705,45.200 69.407 C 45.200 70.178,44.963 70.372,43.900 70.475 C 42.713 70.589,42.589 70.731,42.476 72.100 C 42.365 73.438,42.233 73.600,41.256 73.600 C 39.612 73.600,39.200 74.292,39.200 77.056 L 39.200 79.552 37.700 79.676 C 36.286 79.793,36.193 79.885,36.077 81.277 C 35.962 82.665,35.865 82.762,34.477 82.877 C 33.101 82.992,32.992 83.097,32.880 84.423 C 32.778 85.636,32.573 85.901,31.480 86.223 C 30.244 86.587,30.187 86.699,29.832 89.500 L 29.464 92.400 28.132 92.400 C 26.933 92.400,26.800 92.514,26.800 93.544 C 26.800 97.260,26.365 98.400,24.946 98.400 C 23.647 98.400,23.600 98.455,23.600 99.968 C 23.600 101.386,23.485 101.562,22.397 101.801 C 20.846 102.141,20.400 103.029,20.400 105.774 C 20.400 107.814,20.325 108.001,19.500 108.006 C 17.806 108.018,17.437 108.605,17.271 111.554 L 17.112 114.356 15.861 114.478 C 14.394 114.621,14.062 115.745,14.023 120.700 L 14.000 123.600 12.652 123.600 C 11.165 123.600,10.814 124.493,10.804 128.300 C 10.801 129.715,10.670 130.000,10.023 130.000 C 8.550 130.000,8.000 131.492,8.000 135.489 C 8.000 138.933,7.943 139.200,7.200 139.200 C 5.207 139.200,4.800 140.388,4.800 146.200 L 4.800 151.600 3.829 151.600 C 1.830 151.600,1.600 152.347,1.600 158.829 C 1.600 164.533,1.564 164.800,0.800 164.800 C 0.006 164.800,0.000 165.067,0.000 200.200 C 0.000 235.333,0.006 235.600,0.800 235.600 C 1.563 235.600,1.600 235.867,1.600 241.367 C 1.600 247.284,1.748 248.390,2.543 248.413 C 4.331 248.465,4.800 249.780,4.800 254.736 C 4.800 259.963,5.108 260.800,7.029 260.800 C 7.994 260.800,8.000 260.824,8.000 264.920 C 8.000 269.268,8.263 270.000,9.827 270.000 C 10.625 270.000,10.711 270.248,10.893 273.082 C 11.007 274.863,11.282 276.227,11.545 276.315 C 11.795 276.398,12.000 276.718,12.000 277.024 C 12.000 277.331,12.450 277.876,13.000 278.237 C 13.857 278.798,14.000 279.193,14.000 280.996 C 14.000 284.698,14.306 285.493,15.843 285.782 C 17.191 286.035,17.200 286.051,17.200 288.244 C 17.200 291.084,17.691 292.000,19.214 292.000 L 20.400 292.000 20.400 294.571 C 20.400 297.416,20.973 298.400,22.629 298.400 C 23.495 298.400,23.600 298.573,23.600 300.000 C 23.600 301.289,23.744 301.600,24.338 301.600 C 25.516 301.600,26.292 302.832,26.605 305.200 C 26.914 307.531,27.254 307.984,28.700 307.994 C 29.501 307.999,29.604 308.210,29.640 309.900 C 29.705 313.021,30.056 313.783,31.493 313.924 C 32.632 314.035,32.766 314.191,32.877 315.524 C 32.993 316.915,33.086 317.007,34.500 317.124 C 35.909 317.241,36.000 317.329,36.000 318.583 C 36.000 319.964,37.702 322.400,38.667 322.400 C 38.967 322.400,39.203 323.136,39.278 324.300 C 39.399 326.182,39.414 326.201,40.900 326.324 C 42.358 326.445,42.400 326.492,42.400 328.024 C 42.400 329.558,42.437 329.600,43.800 329.600 C 45.014 329.600,45.200 329.728,45.200 330.567 C 45.200 332.296,45.611 332.800,47.019 332.800 C 48.270 332.800,48.359 332.892,48.476 334.300 C 48.593 335.714,48.685 335.807,50.077 335.923 C 51.465 336.038,51.562 336.135,51.677 337.523 C 51.793 338.915,51.886 339.007,53.300 339.124 C 54.719 339.242,54.800 339.323,54.800 340.624 C 54.800 341.690,54.965 342.000,55.530 342.000 C 56.428 342.000,58.000 343.608,58.000 344.526 C 58.000 345.030,58.354 345.200,59.400 345.200 C 60.676 345.200,60.800 345.302,60.800 346.351 C 60.800 349.406,62.871 351.600,65.756 351.600 C 67.080 351.600,67.158 351.677,67.276 353.100 C 67.393 354.519,67.481 354.607,68.900 354.724 C 70.308 354.841,70.400 354.930,70.400 356.181 C 70.400 357.584,70.905 358.000,72.607 358.000 C 73.378 358.000,73.572 358.237,73.675 359.300 C 73.789 360.487,73.931 360.611,75.300 360.724 C 76.661 360.837,76.800 360.956,76.800 362.010 C 76.800 363.506,77.731 364.000,80.550 364.000 L 82.752 364.000 82.876 365.500 C 82.993 366.919,83.081 367.007,84.500 367.124 C 85.868 367.237,86.000 367.353,86.000 368.434 C 86.000 369.890,87.089 370.400,90.202 370.400 L 92.352 370.400 92.476 371.900 C 92.593 373.319,92.681 373.407,94.100 373.524 C 95.350 373.628,95.600 373.798,95.600 374.544 C 95.600 375.984,96.379 376.400,99.080 376.400 C 101.479 376.400,101.600 376.447,101.600 377.367 C 101.600 379.412,101.888 379.600,105.019 379.600 L 107.952 379.600 108.076 381.100 L 108.200 382.600 111.100 382.718 C 113.856 382.829,114.000 382.882,114.000 383.789 C 114.000 385.486,114.973 386.000,118.183 386.000 C 120.862 386.000,121.163 386.084,121.763 387.000 C 122.124 387.550,122.607 388.000,122.838 388.000 C 123.068 388.000,123.527 388.270,123.857 388.600 C 124.263 389.006,125.270 389.200,126.971 389.200 C 129.464 389.200,129.487 389.211,129.856 390.500 L 130.229 391.800 134.691 391.913 L 139.153 392.026 139.277 393.513 L 139.400 395.000 144.076 395.112 L 148.751 395.225 148.876 396.497 C 149.042 398.193,149.590 398.312,157.500 398.360 C 163.720 398.398,164.000 398.434,164.000 399.200 C 164.000 399.994,164.267 400.000,200.000 400.000 C 235.733 400.000,236.000 399.994,236.000 399.200 C 236.000 398.431,236.267 398.400,242.826 398.400 C 250.243 398.400,250.974 398.231,251.335 396.427 L 251.575 395.226 256.087 395.113 L 260.600 395.000 260.724 393.500 L 260.848 392.000 265.406 392.000 L 269.964 392.000 270.226 390.600 L 270.489 389.200 273.345 389.153 C 277.644 389.081,278.509 388.807,279.172 387.300 C 279.730 386.033,279.808 386.000,282.244 386.000 C 285.004 386.000,286.000 385.414,286.000 383.789 C 286.000 382.882,286.144 382.829,288.900 382.718 L 291.800 382.600 291.923 381.116 L 292.046 379.633 295.123 379.516 L 298.200 379.400 298.323 377.917 L 298.446 376.434 301.299 376.317 C 304.148 376.200,304.152 376.198,304.487 374.900 C 304.764 373.827,305.016 373.600,305.931 373.600 C 307.342 373.600,308.000 372.938,308.000 371.520 C 308.000 370.419,308.041 370.400,310.367 370.400 C 313.564 370.400,314.000 370.182,314.000 368.581 C 314.000 367.330,314.092 367.241,315.500 367.124 C 316.919 367.007,317.007 366.919,317.124 365.500 L 317.248 364.000 319.724 363.994 C 322.662 363.987,323.012 363.805,323.382 362.100 C 323.633 360.942,323.813 360.800,325.032 360.800 C 326.324 360.800,326.400 360.724,326.400 359.424 C 326.400 358.123,326.481 358.042,327.900 357.924 C 329.314 357.807,329.407 357.715,329.523 356.323 C 329.638 354.935,329.735 354.838,331.123 354.723 C 332.515 354.607,332.607 354.514,332.724 353.100 C 332.845 351.634,332.886 351.599,334.524 351.553 C 337.864 351.458,338.580 351.131,338.800 349.600 C 338.969 348.424,339.188 348.174,340.200 348.003 C 341.118 347.848,341.486 347.509,341.765 346.565 C 342.027 345.674,342.474 345.227,343.365 344.965 C 344.264 344.699,344.701 344.256,344.973 343.335 C 345.249 342.398,345.639 342.012,346.482 341.844 C 347.623 341.615,347.750 341.445,348.150 339.600 C 348.269 339.050,348.779 338.420,349.283 338.200 C 349.787 337.980,350.378 337.395,350.595 336.900 C 350.812 336.404,351.581 335.804,352.304 335.566 C 353.784 335.077,354.800 333.209,354.800 330.975 C 354.800 329.731,354.893 329.641,356.300 329.524 C 357.719 329.407,357.807 329.319,357.924 327.900 C 358.042 326.481,358.123 326.400,359.424 326.400 C 360.763 326.400,360.800 326.357,360.800 324.800 C 360.800 323.293,360.869 323.200,361.986 323.200 C 363.508 323.200,364.000 322.284,364.000 319.450 L 364.000 317.248 365.500 317.124 C 366.919 317.007,367.007 316.919,367.124 315.500 C 367.241 314.093,367.330 314.000,368.577 314.000 C 370.120 314.000,370.386 313.429,370.395 310.100 C 370.400 308.068,370.436 308.000,371.520 308.000 C 372.993 308.000,373.600 307.334,373.600 305.720 C 373.600 304.584,373.737 304.400,374.586 304.400 C 375.890 304.400,376.400 303.347,376.400 300.650 L 376.400 298.448 377.900 298.324 L 379.400 298.200 379.516 295.123 L 379.633 292.046 381.116 291.923 L 382.600 291.800 382.718 288.900 C 382.829 286.144,382.882 286.000,383.789 286.000 C 385.421 286.000,386.000 285.007,386.000 282.203 C 386.000 279.723,386.027 279.658,387.167 279.407 C 388.660 279.079,388.845 278.574,389.097 274.143 L 389.305 270.486 390.552 270.129 L 391.800 269.771 391.913 265.309 L 392.026 260.847 393.513 260.723 L 395.000 260.600 395.112 255.924 L 395.225 251.249 396.497 251.124 C 398.193 250.958,398.312 250.410,398.360 242.500 C 398.398 236.280,398.434 236.000,399.200 236.000 C 399.994 236.000,400.000 235.733,400.000 200.000 C 400.000 164.891,399.981 164.000,399.240 164.000 C 398.527 164.000,398.470 163.564,398.340 157.061 C 398.190 149.622,397.972 148.800,396.151 148.800 C 395.208 148.800,395.200 148.762,395.200 144.480 C 395.200 139.789,394.970 139.200,393.133 139.200 L 392.026 139.200 391.913 134.725 L 391.800 130.249 390.500 129.913 C 389.214 129.581,389.200 129.551,389.200 127.166 C 389.200 123.266,388.521 121.204,387.147 120.929 C 386.019 120.704,386.000 120.655,386.000 117.979 C 386.000 114.976,385.454 114.000,383.771 114.000 C 382.852 114.000,382.800 113.873,382.800 111.633 C 382.800 108.425,382.584 108.000,380.957 108.000 L 379.600 108.000 379.600 105.280 C 379.600 102.272,379.220 101.600,377.520 101.600 C 376.462 101.600,376.400 101.502,376.400 99.826 C 376.400 97.383,375.823 96.071,374.614 95.768 C 373.895 95.587,373.600 95.245,373.600 94.589 C 373.600 92.897,373.181 92.400,371.757 92.400 L 370.400 92.400 370.400 90.226 C 370.400 87.089,369.893 86.000,368.434 86.000 C 367.353 86.000,367.237 85.868,367.124 84.500 C 367.008 83.093,366.911 82.993,365.554 82.879 L 364.108 82.758 363.873 80.479 C 363.638 78.198,362.691 76.800,361.380 76.800 C 361.054 76.800,360.800 76.219,360.724 75.300 C 360.611 73.931,360.487 73.789,359.300 73.675 C 358.237 73.572,358.000 73.378,358.000 72.607 C 358.000 70.905,357.584 70.400,356.181 70.400 C 354.930 70.400,354.841 70.308,354.724 68.900 C 354.607 67.486,354.515 67.393,353.123 67.277 C 351.735 67.162,351.638 67.065,351.523 65.677 C 351.407 64.289,351.311 64.193,349.923 64.077 C 348.535 63.962,348.438 63.865,348.323 62.477 C 348.207 61.085,348.114 60.993,346.700 60.876 C 345.281 60.758,345.200 60.677,345.200 59.376 C 345.200 58.310,345.035 58.000,344.470 58.000 C 343.572 58.000,342.000 56.392,342.000 55.474 C 342.000 54.970,341.646 54.800,340.600 54.800 C 339.324 54.800,339.200 54.698,339.200 53.649 C 339.200 50.583,337.128 48.400,334.220 48.400 C 332.872 48.400,332.800 48.331,332.800 47.043 C 332.800 45.609,332.304 45.200,330.567 45.200 C 329.728 45.200,329.600 45.014,329.600 43.800 C 329.600 42.437,329.558 42.400,328.024 42.400 C 326.492 42.400,326.445 42.358,326.324 40.900 C 326.207 39.481,326.119 39.393,324.700 39.276 C 323.463 39.174,323.199 38.998,323.194 38.276 C 323.183 36.706,322.598 36.324,319.871 36.105 L 317.242 35.894 317.121 34.447 C 317.008 33.094,316.904 32.992,315.524 32.877 C 314.191 32.766,314.035 32.632,313.924 31.493 C 313.783 30.056,313.021 29.705,309.900 29.640 C 308.308 29.606,308.000 29.476,308.000 28.833 C 308.000 27.383,307.533 26.800,306.373 26.800 C 305.243 26.800,305.062 26.670,303.700 24.881 C 303.165 24.178,302.458 23.906,300.700 23.725 C 298.778 23.527,298.400 23.361,298.400 22.718 C 298.400 20.830,297.730 20.400,294.786 20.400 L 292.000 20.400 292.000 19.043 C 292.000 17.420,291.572 17.200,288.412 17.200 L 286.089 17.200 285.835 15.844 C 285.522 14.176,285.012 14.013,280.100 14.005 L 276.400 14.000 276.400 12.650 C 276.400 11.123,275.627 10.800,271.975 10.800 C 270.096 10.800,270.048 10.769,269.925 9.500 L 269.800 8.200 265.300 8.087 L 260.800 7.974 260.800 6.867 C 260.800 4.955,260.298 4.800,254.120 4.800 L 248.400 4.800 248.400 3.680 C 248.400 1.738,247.932 1.600,241.320 1.600 C 235.467 1.600,235.200 1.565,235.200 0.800 C 235.200 0.006,234.933 0.000,201.200 0.000 C 167.467 0.000,167.200 0.006,167.200 0.800 M230.525 11.450 C 230.405 11.765,229.967 12.204,229.553 12.425 C 229.139 12.647,228.800 13.194,228.800 13.641 C 228.800 14.089,227.991 15.287,227.003 16.304 C 226.014 17.321,225.093 18.524,224.956 18.977 C 224.674 19.907,222.968 22.341,220.600 25.193 C 219.720 26.253,218.190 28.496,217.200 30.179 C 216.210 31.861,214.904 33.885,214.299 34.676 C 213.693 35.467,212.852 37.213,212.431 38.557 C 212.010 39.901,211.366 41.586,211.002 42.302 C 208.327 47.557,209.993 56.998,214.550 62.414 C 215.128 63.100,215.600 63.795,215.600 63.958 C 215.600 64.121,216.995 65.720,218.700 67.510 C 222.895 71.917,223.990 73.158,225.130 74.800 C 225.664 75.570,226.663 76.867,227.350 77.683 C 235.943 87.882,237.898 98.281,232.757 106.435 C 229.430 111.711,234.298 117.113,244.811 119.811 C 258.598 123.350,267.380 115.554,264.198 102.600 C 261.213 90.445,262.821 86.488,271.968 83.474 C 281.588 80.304,304.927 79.857,317.600 82.599 C 319.030 82.908,321.910 83.362,324.000 83.608 C 331.573 84.498,336.249 85.262,338.686 86.006 C 340.053 86.424,343.743 87.047,346.886 87.390 C 355.725 88.357,356.253 88.643,353.300 90.866 C 350.623 92.880,350.162 93.075,345.880 94.003 C 343.781 94.458,341.508 95.107,340.831 95.445 C 340.153 95.783,337.484 96.481,334.899 96.996 C 332.313 97.512,329.241 98.311,328.070 98.772 C 326.900 99.234,324.740 99.782,323.271 99.991 C 319.171 100.574,313.217 103.694,308.751 107.600 C 305.657 110.305,305.469 111.945,307.626 117.434 C 312.322 129.388,309.157 143.675,299.769 152.893 C 296.470 156.132,295.377 156.917,290.777 159.347 C 287.958 160.836,284.991 163.717,285.452 164.516 C 285.606 164.782,286.038 165.450,286.414 166.000 C 286.789 166.550,287.388 168.011,287.744 169.248 C 288.100 170.484,288.663 171.720,288.993 171.995 C 289.324 172.269,290.132 173.432,290.788 174.578 C 292.384 177.368,296.194 180.622,299.281 181.832 C 306.554 184.682,312.491 180.889,318.602 169.485 C 319.167 168.431,320.084 167.174,320.640 166.690 C 321.197 166.207,322.001 165.246,322.428 164.555 C 322.956 163.701,324.277 162.754,326.558 161.598 L 329.911 159.898 333.456 160.105 C 338.692 160.410,344.385 162.880,350.471 167.486 C 352.038 168.672,357.993 175.263,359.610 177.600 C 360.142 178.370,360.913 179.360,361.323 179.800 C 361.733 180.240,362.345 181.129,362.684 181.776 C 363.022 182.423,363.650 183.236,364.079 183.584 C 364.919 184.264,366.843 187.511,368.743 191.453 C 369.393 192.802,370.138 194.038,370.400 194.200 C 370.662 194.362,371.393 195.646,372.024 197.054 C 372.656 198.463,373.441 199.717,373.767 199.843 C 374.094 199.968,374.578 200.730,374.844 201.535 C 375.109 202.341,375.883 203.835,376.563 204.855 C 377.742 206.623,378.704 208.241,381.400 212.986 C 384.497 218.437,385.098 219.397,386.500 221.130 C 389.930 225.373,387.036 227.102,382.400 223.580 C 381.630 222.995,380.370 222.278,379.600 221.986 C 378.830 221.694,377.437 220.941,376.504 220.312 C 375.572 219.682,374.057 218.902,373.139 218.578 C 372.221 218.254,371.249 217.807,370.980 217.583 C 370.711 217.360,368.985 216.628,367.145 215.958 C 365.305 215.287,363.260 214.414,362.600 214.018 C 361.940 213.622,360.410 213.071,359.200 212.794 C 357.990 212.517,355.740 211.820,354.200 211.245 C 351.689 210.308,350.842 210.200,346.000 210.200 L 340.600 210.200 337.800 211.674 C 335.191 213.047,332.551 215.395,329.882 218.716 C 329.300 219.440,328.440 221.330,327.970 222.916 C 325.917 229.842,324.348 231.078,316.400 232.036 C 310.718 232.721,297.096 231.603,293.668 230.171 C 290.543 228.865,285.008 233.309,281.924 239.600 C 278.831 245.907,284.796 258.922,292.600 262.895 C 293.480 263.343,294.628 264.045,295.152 264.454 C 296.244 265.307,297.472 265.668,303.871 267.023 C 309.541 268.224,310.654 268.234,316.248 267.135 C 323.455 265.718,324.147 266.413,325.033 275.955 C 326.138 287.850,325.355 306.958,323.457 314.400 C 322.925 316.490,322.275 319.910,322.013 322.000 C 321.751 324.090,321.109 327.600,320.585 329.800 C 320.061 332.000,319.173 337.371,318.612 341.736 C 317.439 350.841,317.317 351.200,315.380 351.200 C 313.884 351.200,312.405 349.509,312.401 347.794 C 312.401 347.351,311.852 345.865,311.182 344.492 C 310.512 343.119,309.593 340.242,309.139 338.098 C 308.685 335.954,308.060 333.707,307.749 333.104 C 307.438 332.501,306.830 330.341,306.399 328.304 C 305.327 323.245,302.798 316.088,301.266 313.774 C 300.570 312.723,300.000 311.612,300.000 311.305 C 300.000 310.294,295.658 306.586,292.703 305.074 C 287.887 302.609,286.437 302.855,276.800 307.774 C 272.144 310.151,266.958 310.608,262.498 309.035 C 260.763 308.422,256.400 305.424,256.400 304.843 C 256.400 304.661,255.815 303.875,255.100 303.096 C 252.542 300.309,250.691 297.771,249.923 296.000 C 249.494 295.010,248.841 293.866,248.471 293.458 C 248.102 293.051,247.260 291.766,246.600 290.603 C 242.921 284.122,241.726 283.214,237.628 283.786 C 229.732 284.889,223.476 290.391,222.051 297.486 C 221.032 302.562,221.805 311.043,223.590 314.357 C 224.017 315.151,224.617 316.430,224.922 317.200 C 225.571 318.835,229.406 324.035,230.351 324.561 C 230.708 324.760,231.740 325.596,232.644 326.418 C 233.548 327.240,235.078 328.263,236.044 328.690 C 238.450 329.755,240.405 332.490,239.485 333.506 C 239.139 333.888,238.297 335.371,237.614 336.801 C 235.704 340.800,231.522 346.620,227.783 350.485 C 225.923 352.408,224.400 354.122,224.400 354.293 C 224.400 354.464,223.016 355.773,221.325 357.202 C 219.634 358.631,217.789 360.264,217.225 360.831 C 216.661 361.398,215.435 362.367,214.500 362.984 C 213.565 363.601,212.800 364.245,212.800 364.415 C 212.800 364.585,211.855 365.284,210.700 365.969 C 209.545 366.653,207.520 368.019,206.200 369.004 C 204.880 369.989,203.284 371.111,202.654 371.497 C 202.023 371.884,200.791 372.785,199.916 373.500 C 199.041 374.215,198.141 374.800,197.917 374.800 C 197.480 374.800,193.733 377.441,190.800 379.817 C 189.810 380.619,187.740 382.052,186.200 383.001 C 182.777 385.110,179.939 387.310,178.074 389.300 C 177.301 390.125,176.353 390.800,175.968 390.800 C 175.582 390.800,174.919 391.277,174.494 391.861 C 174.048 392.473,173.526 392.802,173.260 392.637 C 172.423 392.120,172.734 389.444,173.800 388.000 C 174.350 387.255,174.800 386.248,174.800 385.762 C 174.800 385.277,175.450 383.917,176.245 382.740 C 177.039 381.563,177.847 380.190,178.039 379.688 C 178.232 379.186,179.146 377.656,180.070 376.288 C 180.994 374.920,182.057 373.339,182.431 372.776 C 182.806 372.212,183.657 370.671,184.323 369.352 C 184.990 368.032,185.813 366.722,186.152 366.440 C 186.492 366.158,187.135 364.950,187.582 363.755 C 188.029 362.560,188.826 360.732,189.353 359.692 C 191.192 356.059,191.888 344.338,190.424 341.634 C 189.006 339.014,185.917 335.443,182.063 331.968 C 175.017 325.615,168.182 317.379,166.657 313.404 C 165.425 310.193,165.716 302.332,167.139 300.400 C 167.544 299.850,168.263 298.522,168.738 297.448 C 169.213 296.374,170.231 294.799,171.001 293.947 C 177.122 287.171,163.984 281.123,148.870 283.760 C 144.452 284.530,143.651 284.905,140.938 287.467 C 138.350 289.913,138.198 290.742,138.586 300.332 C 139.214 315.850,137.867 320.280,131.937 322.205 C 130.761 322.586,129.209 323.254,128.488 323.689 C 123.753 326.543,94.297 326.585,82.600 323.755 C 80.400 323.222,76.144 322.445,73.142 322.026 C 70.140 321.608,66.360 320.899,64.742 320.452 C 63.124 320.006,59.820 319.382,57.400 319.067 C 53.029 318.497,50.799 317.904,50.801 317.310 C 50.802 316.829,59.169 312.950,61.299 312.442 C 62.343 312.193,64.233 311.478,65.499 310.853 C 66.764 310.228,69.060 309.391,70.600 308.993 C 72.140 308.595,73.770 308.032,74.221 307.741 C 74.673 307.449,76.091 306.850,77.372 306.410 C 78.653 305.969,80.519 305.066,81.519 304.404 C 82.519 303.742,83.558 303.200,83.828 303.200 C 84.099 303.200,85.278 302.480,86.449 301.600 C 87.620 300.720,88.807 300.000,89.087 300.000 C 89.747 300.000,93.169 296.637,94.200 294.975 C 94.640 294.266,95.325 293.233,95.722 292.679 C 98.869 288.294,100.003 278.427,98.169 271.400 C 96.898 266.532,97.039 264.544,98.799 262.540 C 99.459 261.788,100.000 260.934,100.000 260.644 C 100.000 259.770,109.658 250.761,111.406 250.004 C 112.289 249.622,113.267 249.002,113.579 248.625 C 113.891 248.249,114.789 247.614,115.573 247.213 C 119.239 245.342,119.466 243.522,116.804 237.331 C 115.690 234.741,114.334 232.157,113.789 231.589 C 113.245 231.021,112.800 230.343,112.800 230.083 C 112.800 229.432,108.073 224.800,107.410 224.800 C 107.115 224.800,105.919 224.305,104.753 223.700 C 98.761 220.593,92.668 223.005,85.400 231.360 C 84.300 232.625,82.995 234.105,82.500 234.650 C 82.005 235.195,81.600 235.799,81.600 235.991 C 81.600 236.576,76.582 241.600,75.998 241.600 C 75.697 241.600,75.021 242.005,74.494 242.500 C 73.085 243.824,64.739 243.849,62.000 242.538 C 61.010 242.064,59.382 241.326,58.381 240.897 C 54.594 239.273,46.496 232.000,43.780 227.783 C 43.066 226.673,42.191 225.525,41.837 225.231 C 41.483 224.937,40.801 223.999,40.323 223.148 C 39.844 222.297,39.309 221.600,39.134 221.600 C 38.959 221.600,38.433 220.835,37.964 219.900 C 37.495 218.965,36.644 217.701,36.073 217.092 C 34.960 215.904,33.100 212.760,31.405 209.204 C 30.830 207.996,30.026 206.646,29.618 206.204 C 29.210 205.762,28.616 204.770,28.296 204.000 C 27.977 203.230,27.060 201.818,26.258 200.862 C 25.456 199.906,24.800 198.878,24.800 198.576 C 24.800 198.275,24.298 197.437,23.684 196.714 C 23.070 195.991,22.364 194.927,22.115 194.349 C 21.866 193.771,21.141 192.691,20.504 191.949 C 19.868 191.207,18.939 189.925,18.441 189.100 C 17.942 188.275,17.391 187.600,17.216 187.600 C 17.041 187.600,16.665 187.039,16.381 186.353 C 16.097 185.668,15.189 184.617,14.363 184.019 C 12.979 183.017,12.900 182.855,13.351 181.966 C 14.210 180.271,16.588 180.799,24.800 184.508 C 25.350 184.756,26.340 185.347,27.000 185.820 C 27.660 186.294,28.830 186.999,29.600 187.386 C 30.370 187.774,31.450 188.506,32.000 189.012 C 32.983 189.918,35.256 191.162,40.400 193.610 C 41.830 194.291,43.900 195.284,45.000 195.817 C 48.168 197.351,53.847 197.914,57.969 197.102 C 62.103 196.287,66.099 192.557,69.003 186.800 C 69.391 186.030,70.269 184.745,70.955 183.944 C 73.513 180.951,74.114 180.196,74.720 179.211 C 75.538 177.881,78.470 174.800,78.918 174.800 C 79.111 174.800,80.040 174.246,80.982 173.570 C 84.591 170.978,93.290 170.941,96.755 173.503 C 97.341 173.937,98.850 174.590,100.110 174.957 C 101.369 175.323,103.236 176.067,104.259 176.611 C 107.225 178.188,111.658 176.567,112.614 173.557 C 112.755 173.112,113.373 172.174,113.986 171.474 C 116.867 168.185,118.676 158.283,117.253 153.600 C 115.631 148.265,115.114 146.969,113.722 144.757 C 108.723 136.808,100.226 133.035,93.200 135.643 C 87.566 137.734,81.920 138.537,80.016 137.519 C 78.651 136.788,75.687 130.825,75.188 127.807 C 73.438 117.209,73.284 113.634,74.202 104.800 C 75.448 92.810,75.614 91.626,76.398 89.144 C 76.839 87.745,77.659 84.098,78.219 81.040 C 78.778 77.981,79.407 75.161,79.615 74.772 C 79.823 74.383,80.446 71.215,80.998 67.732 C 81.550 64.249,82.258 60.320,82.571 59.000 C 82.884 57.680,83.356 55.485,83.620 54.122 C 84.055 51.879,85.117 50.000,85.951 50.000 C 86.511 50.000,87.148 51.862,87.825 55.473 C 88.186 57.400,88.816 59.825,89.224 60.861 C 89.632 61.896,90.348 64.871,90.814 67.472 C 91.281 70.072,92.006 73.100,92.426 74.200 C 92.846 75.300,93.462 77.519,93.795 79.130 C 94.129 80.742,94.831 82.812,95.356 83.730 C 95.880 84.649,96.605 86.316,96.966 87.435 C 97.326 88.555,98.157 89.984,98.811 90.610 C 99.465 91.237,100.000 91.970,100.000 92.240 C 100.000 94.387,109.494 99.215,112.498 98.596 C 115.052 98.069,119.318 96.366,120.945 95.222 C 127.832 90.385,138.243 91.634,143.763 97.960 C 144.223 98.487,145.185 99.461,145.900 100.124 C 146.615 100.786,147.200 101.542,147.200 101.802 C 147.200 102.063,147.585 102.619,148.055 103.038 C 148.525 103.457,149.397 104.880,149.993 106.200 C 150.589 107.520,151.347 108.824,151.677 109.098 C 152.007 109.371,152.610 110.361,153.018 111.298 C 156.373 118.994,159.206 119.972,168.303 116.575 C 179.249 112.488,185.680 93.592,179.247 84.421 C 176.749 80.859,172.232 76.775,168.867 75.035 C 166.779 73.955,163.309 70.314,162.888 68.762 C 162.454 67.159,162.587 66.810,164.667 64.085 C 165.400 63.124,166.002 62.128,166.004 61.869 C 166.007 61.436,166.554 60.659,169.985 56.200 C 173.924 51.083,175.820 48.921,180.169 44.588 C 185.575 39.204,193.034 32.917,196.300 30.993 C 197.015 30.572,197.600 30.117,197.600 29.981 C 197.600 29.846,198.545 29.132,199.700 28.395 C 200.855 27.658,202.391 26.548,203.114 25.928 C 203.837 25.307,204.692 24.800,205.014 24.800 C 205.336 24.800,205.939 24.461,206.354 24.046 C 208.134 22.266,212.707 19.330,219.200 15.797 C 220.630 15.019,222.970 13.553,224.400 12.538 C 228.531 9.607,231.430 9.092,230.525 11.450 M193.800 121.457 C 187.301 122.012,181.899 122.828,179.800 123.572 C 178.480 124.040,176.050 124.701,174.400 125.041 C 172.750 125.381,170.680 126.072,169.800 126.576 C 168.920 127.080,167.480 127.716,166.600 127.990 C 165.720 128.264,164.370 128.859,163.600 129.312 C 162.830 129.765,161.300 130.621,160.200 131.215 C 154.622 134.226,153.225 135.088,151.200 136.768 C 146.870 140.360,144.473 142.645,141.956 145.582 C 140.550 147.222,138.950 149.045,138.400 149.632 C 136.175 152.007,131.200 159.324,131.200 160.221 C 131.200 160.473,130.660 161.472,130.001 162.440 C 129.341 163.408,128.604 164.913,128.363 165.784 C 128.122 166.655,127.325 168.635,126.594 170.184 C 125.862 171.733,125.147 173.810,125.004 174.800 C 124.862 175.790,124.226 178.134,123.592 180.008 C 120.522 189.081,120.526 214.200,123.598 221.995 C 124.060 223.166,124.690 225.443,124.998 227.056 C 125.307 228.668,126.020 230.775,126.584 231.737 C 127.148 232.699,127.888 234.426,128.229 235.574 C 128.570 236.722,129.423 238.595,130.125 239.736 C 130.826 240.877,131.670 242.287,132.000 242.869 C 133.786 246.020,135.592 248.741,136.630 249.845 C 137.273 250.530,138.610 252.022,139.600 253.162 C 141.400 255.233,147.973 261.875,150.158 263.831 C 150.795 264.401,152.325 265.407,153.558 266.066 C 154.791 266.726,156.880 267.957,158.200 268.804 C 161.805 271.114,169.136 274.659,171.400 275.186 C 172.500 275.442,174.030 276.021,174.800 276.472 C 175.570 276.923,178.090 277.701,180.400 278.200 C 182.710 278.699,186.130 279.532,188.000 280.051 C 192.458 281.288,210.546 281.435,214.400 280.265 C 215.610 279.898,218.554 279.141,220.943 278.584 C 223.332 278.026,226.164 277.125,227.236 276.582 C 228.309 276.038,230.208 275.327,231.456 275.002 C 232.703 274.677,234.012 274.151,234.363 273.833 C 234.714 273.516,236.171 272.731,237.601 272.089 C 239.030 271.448,240.459 270.611,240.775 270.230 C 241.091 269.849,242.171 269.094,243.175 268.551 C 246.954 266.507,249.683 264.789,250.330 264.043 C 250.699 263.619,252.148 262.265,253.552 261.034 C 254.956 259.804,257.628 257.043,259.490 254.899 C 261.352 252.754,263.406 250.460,264.055 249.800 C 265.366 248.466,268.800 243.408,268.800 242.810 C 268.800 242.600,269.344 241.808,270.009 241.051 C 270.674 240.294,271.577 238.623,272.016 237.337 C 272.455 236.052,273.183 234.496,273.634 233.879 C 274.085 233.263,274.711 231.775,275.024 230.573 C 275.337 229.370,276.025 227.534,276.554 226.492 C 277.082 225.449,277.885 222.885,278.338 220.792 C 278.791 218.700,279.432 216.343,279.761 215.555 C 281.718 210.871,281.770 188.854,279.835 184.222 C 279.511 183.448,278.870 181.077,278.411 178.955 C 277.951 176.833,277.044 173.995,276.396 172.649 C 275.747 171.302,275.099 169.570,274.955 168.800 C 274.811 168.030,274.257 166.814,273.724 166.097 C 273.191 165.381,272.481 163.851,272.145 162.697 C 271.810 161.544,271.037 159.970,270.429 159.200 C 269.821 158.430,269.044 157.260,268.703 156.600 C 267.626 154.520,265.176 151.049,263.863 149.745 C 263.169 149.055,261.340 147.086,259.800 145.371 C 256.051 141.194,253.315 138.557,251.500 137.370 C 250.675 136.831,250.000 136.214,250.000 136.000 C 250.000 135.786,248.785 134.966,247.300 134.179 C 241.674 131.197,240.460 130.505,239.422 129.689 C 238.835 129.227,237.420 128.544,236.277 128.170 C 235.135 127.796,233.455 127.060,232.544 126.533 C 231.633 126.006,229.653 125.314,228.144 124.995 C 226.635 124.677,224.416 124.038,223.214 123.577 C 219.079 121.990,201.984 120.758,193.800 121.457 M213.600 129.614 C 215.690 130.055,218.840 130.697,220.600 131.041 C 224.530 131.807,232.036 134.150,234.200 135.286 C 235.080 135.748,236.890 136.693,238.222 137.385 C 239.554 138.077,240.994 138.957,241.422 139.341 C 241.850 139.724,243.100 140.626,244.200 141.345 C 248.255 143.995,250.000 145.264,250.000 145.565 C 250.000 145.734,251.357 147.026,253.017 148.436 C 254.676 149.846,256.384 151.540,256.813 152.200 C 257.241 152.860,258.497 154.570,259.602 156.000 C 260.708 157.430,261.925 159.118,262.306 159.750 C 262.688 160.383,263.381 161.373,263.846 161.950 C 264.312 162.528,265.190 163.990,265.798 165.200 C 266.405 166.410,267.219 167.850,267.607 168.400 C 267.994 168.950,268.582 170.300,268.913 171.400 C 269.244 172.500,269.979 174.300,270.546 175.400 C 271.221 176.708,271.794 178.853,272.202 181.600 C 272.545 183.910,273.135 187.060,273.513 188.600 C 274.499 192.620,274.493 206.141,273.502 210.400 C 273.119 212.050,272.522 215.380,272.177 217.800 C 271.756 220.748,271.178 222.992,270.426 224.600 C 269.808 225.920,269.171 227.630,269.012 228.400 C 268.852 229.170,268.131 230.880,267.409 232.200 C 266.687 233.520,265.964 235.050,265.802 235.600 C 265.640 236.150,265.104 237.140,264.611 237.800 C 264.119 238.460,263.306 239.810,262.805 240.800 C 262.304 241.790,261.333 243.262,260.647 244.071 C 259.961 244.880,258.697 246.544,257.839 247.769 C 255.871 250.575,248.807 257.475,245.958 259.374 C 244.771 260.165,242.450 261.787,240.800 262.978 C 239.138 264.178,236.640 265.541,235.200 266.034 C 233.770 266.523,232.228 267.164,231.774 267.459 C 231.320 267.754,229.559 268.350,227.862 268.784 C 226.164 269.218,223.925 269.950,222.887 270.410 C 216.204 273.370,191.175 273.367,184.200 270.405 C 183.320 270.031,181.250 269.402,179.600 269.006 C 177.950 268.611,175.970 267.973,175.200 267.589 C 174.430 267.204,172.502 266.504,170.916 266.033 C 169.330 265.562,167.529 264.752,166.913 264.234 C 166.297 263.715,165.138 263.018,164.337 262.683 C 163.536 262.348,161.406 261.023,159.603 259.737 C 157.801 258.452,155.822 257.040,155.205 256.600 C 151.902 254.242,144.450 247.069,142.514 244.384 C 141.807 243.403,140.436 241.520,139.466 240.200 C 138.496 238.880,137.574 237.383,137.416 236.874 C 137.258 236.364,136.616 235.362,135.988 234.647 C 135.360 233.932,134.476 232.408,134.024 231.261 C 133.572 230.113,132.942 228.775,132.626 228.287 C 132.309 227.799,131.683 226.140,131.234 224.600 C 130.785 223.060,129.970 220.528,129.424 218.974 C 126.915 211.838,126.925 187.707,129.440 180.600 C 129.985 179.060,130.757 176.630,131.156 175.200 C 132.265 171.223,137.720 160.478,139.425 158.912 C 139.851 158.520,141.280 156.602,142.600 154.649 C 143.920 152.696,145.450 150.813,146.000 150.465 C 146.550 150.117,148.087 148.832,149.415 147.610 C 152.394 144.867,156.304 141.872,158.072 140.978 C 158.802 140.609,159.764 139.975,160.208 139.570 C 160.653 139.165,162.254 138.272,163.768 137.586 C 165.281 136.899,166.773 136.084,167.084 135.773 C 167.395 135.462,168.673 134.927,169.925 134.584 C 171.176 134.241,173.910 133.429,176.000 132.780 C 178.090 132.131,181.600 131.320,183.800 130.979 C 186.000 130.637,188.790 130.109,190.000 129.805 C 195.114 128.519,207.931 128.415,213.600 129.614 M389.800 226.400 C 389.936 226.620,389.677 226.800,389.224 226.800 C 388.771 226.800,388.400 226.620,388.400 226.400 C 388.400 226.180,388.659 226.000,388.976 226.000 C 389.293 226.000,389.664 226.180,389.800 226.400 " stroke="none" fill="#fbfbc4" fill-rule="evenodd"></path></g></svg>