<svg id="svg" version="1.1" xmlns="http://www.w3.org/2000/svg" xmlns:xlink="http://www.w3.org/1999/xlink" width="400" height="400" viewBox="0, 0, 400,400"><g id="svgg"><path id="path0" d="M262.939 5.532 C 263.303 5.935,263.499 6.367,263.374 6.492 C 263.249 6.618,263.339 6.839,263.573 6.984 C 264.238 7.395,264.074 6.131,263.371 5.429 C 262.494 4.551,262.130 4.639,262.939 5.532 M187.400 31.437 C 182.611 31.644,174.710 32.366,170.200 33.010 C 168.000 33.324,163.140 33.873,159.400 34.230 C 154.217 34.724,151.791 35.152,149.200 36.026 C 147.330 36.658,144.900 37.370,143.800 37.609 C 142.700 37.847,140.851 38.490,139.692 39.037 C 138.533 39.584,136.373 40.400,134.892 40.851 C 133.411 41.301,131.821 41.912,131.357 42.207 C 130.894 42.502,129.367 43.120,127.963 43.581 C 126.560 44.042,124.779 44.831,124.006 45.336 C 123.233 45.841,121.814 46.564,120.853 46.942 C 119.892 47.321,118.491 48.100,117.740 48.673 C 116.990 49.245,115.796 50.022,115.088 50.399 C 113.074 51.471,111.462 54.410,111.280 57.342 C 111.071 60.714,112.671 74.473,113.562 76.967 C 116.480 85.134,118.617 88.856,121.661 91.077 C 122.618 91.775,124.120 92.998,125.000 93.796 C 125.880 94.593,127.500 95.931,128.600 96.769 C 129.700 97.607,130.943 98.677,131.362 99.147 C 131.781 99.616,132.313 100.000,132.543 100.000 C 132.773 100.000,133.510 100.529,134.181 101.176 C 135.373 102.327,135.955 102.775,139.878 105.568 C 140.935 106.321,142.476 107.536,143.301 108.268 C 144.127 109.001,145.027 109.604,145.301 109.609 C 145.576 109.614,146.230 109.949,146.756 110.353 L 147.712 111.088 146.852 111.948 C 145.819 112.981,143.578 112.813,141.000 111.511 C 139.045 110.524,131.613 107.846,127.800 106.756 C 126.260 106.315,123.200 105.430,121.000 104.789 C 118.800 104.148,115.305 103.338,113.234 102.988 C 106.492 101.850,105.305 100.292,103.186 89.800 C 102.742 87.600,101.948 84.540,101.422 83.000 C 100.896 81.460,100.271 78.569,100.034 76.576 C 99.048 68.301,96.931 65.196,94.117 67.900 C 93.487 68.505,91.477 70.350,89.650 72.000 C 85.849 75.432,75.599 85.743,75.000 86.736 C 74.780 87.101,74.113 87.940,73.517 88.600 C 70.087 92.399,68.388 94.507,66.670 97.092 C 65.614 98.683,64.584 100.087,64.381 100.212 C 63.604 100.692,58.150 109.361,56.195 113.223 C 55.465 114.666,54.582 116.083,54.234 116.372 C 53.885 116.661,53.600 117.138,53.600 117.432 C 53.600 117.725,52.790 119.501,51.800 121.379 C 50.810 123.256,50.000 125.028,50.000 125.317 C 50.000 125.606,49.527 126.791,48.950 127.950 C 46.324 133.220,42.380 145.708,41.164 152.600 C 40.738 155.020,39.948 159.250,39.409 162.000 C 36.848 175.067,36.834 198.369,39.382 207.600 C 39.898 209.470,40.625 212.350,40.998 214.000 C 41.370 215.650,41.928 217.399,42.238 217.887 C 42.548 218.375,43.184 219.815,43.651 221.087 C 44.118 222.359,44.871 223.807,45.324 224.304 C 45.777 224.802,46.519 225.819,46.974 226.565 C 48.509 229.085,51.192 232.359,52.642 233.483 C 53.435 234.097,54.778 235.165,55.626 235.855 C 58.135 237.897,62.878 240.304,66.045 241.143 C 67.670 241.573,69.518 242.127,70.152 242.373 C 70.786 242.618,73.576 243.177,76.352 243.613 C 79.128 244.049,83.020 244.848,85.000 245.388 C 86.980 245.929,90.466 246.663,92.747 247.020 C 95.027 247.378,98.337 248.102,100.103 248.631 C 101.868 249.159,104.782 249.774,106.578 249.997 C 108.374 250.220,110.824 250.674,112.022 251.005 C 113.220 251.336,115.714 252.024,117.564 252.533 C 121.164 253.522,123.306 255.437,125.000 259.178 C 125.344 259.937,126.062 261.130,126.595 261.830 C 129.143 265.169,129.648 268.480,128.403 273.675 C 127.964 275.504,127.604 278.209,127.603 279.686 C 127.601 281.163,127.414 284.223,127.188 286.486 C 126.961 288.749,126.518 293.210,126.203 296.400 C 125.888 299.590,125.435 306.610,125.197 312.000 C 124.960 317.390,124.564 325.040,124.318 329.000 C 123.403 343.739,123.509 346.488,125.260 353.400 C 127.116 360.727,138.866 367.210,147.431 365.633 C 149.764 365.203,149.815 365.138,150.343 361.918 C 150.605 360.313,151.290 356.424,151.863 353.275 C 153.075 346.623,153.005 341.891,151.631 337.677 C 149.937 332.484,149.972 328.316,151.737 324.916 C 152.104 324.210,152.679 322.410,153.016 320.916 C 153.796 317.450,155.845 312.392,157.062 310.931 L 158.004 309.800 159.582 311.529 C 161.218 313.321,161.733 314.679,162.992 320.522 C 163.362 322.239,163.994 324.399,164.397 325.322 C 164.800 326.245,165.430 328.620,165.796 330.600 C 166.162 332.580,166.806 335.225,167.227 336.477 C 167.648 337.729,168.460 340.964,169.030 343.666 C 169.601 346.368,170.248 348.917,170.470 349.330 C 170.691 349.744,171.221 351.819,171.648 353.941 C 172.785 359.594,172.438 359.400,181.400 359.400 C 190.981 359.400,190.135 360.240,191.152 349.716 C 191.581 345.270,192.022 341.488,192.131 341.312 C 192.382 340.905,193.470 332.747,193.799 328.800 C 195.060 313.668,195.808 312.149,201.783 312.566 C 206.989 312.929,206.579 311.339,206.720 331.694 C 206.800 343.223,206.983 349.138,207.269 349.483 C 208.094 350.477,211.734 350.135,212.830 348.961 C 213.364 348.390,214.443 347.593,215.228 347.190 C 216.013 346.787,217.387 345.859,218.282 345.129 C 219.176 344.398,220.423 343.489,221.054 343.110 C 222.143 342.454,223.860 341.319,228.959 337.885 C 233.297 334.963,233.813 333.091,232.400 325.400 C 230.946 317.484,231.417 315.126,234.664 314.076 C 237.432 313.180,241.605 315.175,241.599 317.391 C 241.598 317.616,241.949 318.520,242.379 319.400 C 243.094 320.864,244.717 325.569,246.243 330.600 C 247.031 333.200,246.708 336.694,245.305 340.732 C 243.748 345.214,243.742 352.577,245.292 357.800 C 245.879 359.780,246.571 362.570,246.829 364.000 C 247.682 368.716,249.547 369.482,255.658 367.629 C 257.056 367.205,260.423 366.492,263.139 366.045 C 270.380 364.854,270.728 364.377,272.266 353.545 C 273.654 343.771,273.811 339.771,273.054 333.443 C 271.279 318.603,271.000 312.509,271.000 288.600 C 271.000 262.672,271.070 261.843,273.477 259.291 C 274.204 258.520,274.800 257.778,274.800 257.644 C 274.800 257.224,279.749 253.725,280.800 253.403 C 281.350 253.234,282.790 252.604,284.000 252.003 C 286.387 250.818,288.852 250.184,292.600 249.794 C 293.920 249.657,296.800 249.119,299.000 248.600 C 301.200 248.080,305.250 247.364,308.000 247.009 C 310.750 246.653,314.350 245.996,316.000 245.548 C 317.650 245.100,320.975 244.392,323.389 243.974 C 325.803 243.556,329.223 242.781,330.989 242.252 C 332.755 241.723,335.227 240.993,336.482 240.630 C 339.768 239.680,345.900 235.649,349.585 232.015 C 354.100 227.563,358.343 220.759,359.598 215.957 C 359.850 214.991,360.498 212.785,361.036 211.055 C 363.490 203.176,363.590 173.830,361.188 166.841 C 360.764 165.609,359.959 162.284,359.398 159.454 C 358.838 156.624,358.200 153.973,357.981 153.564 C 357.762 153.155,357.131 151.081,356.579 148.957 C 356.027 146.833,355.155 144.173,354.642 143.047 C 354.129 141.921,353.401 139.937,353.025 138.637 C 352.649 137.338,351.814 135.288,351.171 134.081 C 350.527 132.875,350.000 131.530,350.000 131.093 C 350.000 130.410,347.898 126.041,341.200 112.802 C 340.430 111.280,339.422 109.622,338.960 109.117 C 338.497 108.613,338.017 107.908,337.892 107.551 C 337.632 106.809,334.472 101.977,333.110 100.238 C 332.610 99.599,331.930 98.600,331.600 98.018 C 330.753 96.525,328.495 93.488,326.500 91.159 C 325.565 90.067,324.800 88.969,324.800 88.720 C 324.800 88.471,324.358 87.802,323.818 87.233 C 323.278 86.665,321.351 84.490,319.534 82.400 C 315.251 77.472,312.515 75.200,310.860 75.200 C 310.702 75.200,309.599 75.828,308.408 76.595 C 307.217 77.362,305.603 78.200,304.821 78.457 C 304.040 78.715,302.770 79.341,301.999 79.850 C 301.229 80.358,299.539 81.139,298.243 81.585 C 296.947 82.031,295.687 82.547,295.444 82.732 C 295.200 82.918,293.920 83.486,292.600 83.995 C 291.280 84.505,288.951 85.524,287.424 86.261 C 285.897 86.997,284.421 87.600,284.143 87.600 C 283.866 87.600,282.211 88.228,280.466 88.995 C 278.721 89.762,275.878 90.742,274.147 91.173 C 272.416 91.604,269.859 92.326,268.464 92.778 C 262.538 94.699,256.880 93.193,261.819 91.009 C 263.039 90.469,264.700 89.481,265.510 88.814 C 266.320 88.146,267.154 87.600,267.365 87.600 C 268.259 87.600,281.203 78.991,284.355 76.300 C 285.322 75.475,286.297 74.800,286.523 74.800 C 286.749 74.800,287.398 74.368,287.967 73.839 C 288.535 73.311,290.428 71.556,292.174 69.939 C 298.198 64.362,298.136 64.464,296.883 62.123 C 296.283 61.002,294.124 59.315,289.814 56.600 C 289.115 56.160,288.016 55.381,287.372 54.870 C 285.711 53.552,282.208 51.427,279.400 50.035 C 278.080 49.380,276.370 48.499,275.600 48.076 C 272.382 46.311,267.692 44.082,266.200 43.609 C 265.320 43.331,263.970 42.768,263.200 42.359 C 262.430 41.951,260.540 41.275,259.000 40.858 C 257.460 40.442,255.120 39.647,253.800 39.092 C 252.480 38.538,249.900 37.780,248.066 37.409 C 246.232 37.037,243.712 36.378,242.466 35.944 C 240.370 35.214,230.011 33.483,220.000 32.190 C 215.907 31.662,193.945 31.154,187.400 31.437 M43.423 68.889 C 42.704 69.916,42.632 70.400,43.200 70.400 C 43.839 70.400,45.253 68.809,44.991 68.385 C 44.610 67.768,44.091 67.935,43.423 68.889 M355.049 68.321 C 354.831 68.674,356.010 69.943,357.179 70.613 C 357.589 70.848,357.529 70.553,356.976 69.605 C 356.153 68.196,355.426 67.711,355.049 68.321 M18.786 105.931 C 18.105 106.483,17.976 106.829,18.263 107.341 C 18.606 107.953,18.735 107.921,19.591 107.010 C 20.249 106.310,20.365 105.998,19.970 105.994 C 19.497 105.989,19.502 105.922,20.000 105.600 C 20.330 105.387,20.395 105.209,20.144 105.206 C 19.894 105.203,19.282 105.529,18.786 105.931 M380.400 105.831 L 381.400 106.433 380.400 106.165 L 379.400 105.898 380.542 106.968 C 381.169 107.557,381.889 107.954,382.142 107.851 C 382.466 107.718,382.458 107.654,382.113 107.632 C 381.844 107.614,381.722 107.349,381.839 107.042 C 382.051 106.489,380.606 105.187,379.811 105.214 C 379.585 105.222,379.850 105.499,380.400 105.831 M15.900 112.432 C 14.849 113.044,15.032 114.000,16.200 114.000 C 17.000 114.000,17.200 113.800,17.200 113.000 C 17.200 111.911,16.968 111.810,15.900 112.432 M382.800 113.000 C 382.800 113.800,383.000 114.000,383.800 114.000 C 385.004 114.000,385.145 113.013,384.026 112.414 C 382.922 111.823,382.800 111.881,382.800 113.000 M390.800 127.148 C 390.800 127.371,390.983 127.666,391.207 127.804 C 391.430 127.942,391.532 128.186,391.433 128.347 C 391.334 128.507,391.413 128.897,391.609 129.214 C 391.870 129.637,391.947 129.526,391.897 128.795 C 391.832 127.849,390.800 126.298,390.800 127.148 M394.122 136.714 C 394.495 137.126,394.800 137.704,394.800 137.998 C 394.800 138.293,394.906 138.427,395.037 138.297 C 395.437 137.896,394.807 136.488,394.107 136.220 C 393.502 135.988,393.504 136.030,394.122 136.714 M119.871 144.027 C 121.592 144.261,123.928 144.874,125.063 145.387 C 126.197 145.901,128.097 146.604,129.286 146.950 C 130.474 147.295,132.246 148.119,133.223 148.782 C 134.200 149.444,135.270 149.989,135.600 149.994 C 136.429 150.006,138.520 151.419,144.904 156.280 C 148.892 159.315,156.871 167.691,159.117 171.200 C 159.892 172.410,161.038 173.991,161.663 174.714 C 162.288 175.437,162.800 176.267,162.800 176.559 C 162.800 176.851,163.330 177.757,163.978 178.572 C 164.626 179.388,165.372 180.717,165.635 181.527 C 165.899 182.337,166.612 184.092,167.219 185.426 C 170.369 192.348,171.531 203.763,169.589 208.714 C 166.828 215.752,162.672 218.082,148.000 220.817 C 145.473 221.288,102.571 221.288,100.088 220.817 C 98.976 220.606,96.656 220.252,94.933 220.030 C 83.465 218.552,82.224 218.316,78.232 216.848 C 68.272 213.187,62.827 204.850,63.308 194.000 C 63.528 189.039,65.802 179.172,67.596 175.400 C 68.223 174.080,69.022 172.370,69.371 171.600 C 69.980 170.257,70.618 169.267,73.079 165.838 C 73.695 164.979,74.456 163.809,74.770 163.238 C 76.161 160.703,87.795 150.023,89.200 149.991 C 89.530 149.984,90.499 149.449,91.353 148.802 C 92.207 148.156,93.557 147.420,94.353 147.166 C 95.149 146.913,96.998 146.188,98.462 145.555 C 102.828 143.668,112.288 142.993,119.871 144.027 M302.527 146.126 C 305.705 147.189,308.566 148.405,309.258 148.987 C 309.920 149.544,310.785 150.000,311.180 150.000 C 312.452 150.000,324.275 159.526,324.757 160.939 C 324.844 161.193,325.564 162.134,326.357 163.032 C 330.435 167.643,332.547 171.096,335.022 177.200 C 336.974 182.012,337.236 182.908,337.816 186.760 C 340.681 205.763,335.071 215.514,318.868 219.693 L 313.800 221.000 278.400 221.000 L 243.000 221.000 240.254 219.658 C 236.585 217.864,234.770 216.137,233.150 212.898 L 231.800 210.200 231.803 202.800 L 231.806 195.400 233.352 190.244 C 235.187 184.130,237.537 179.347,241.727 173.200 C 242.102 172.650,242.879 171.480,243.455 170.600 C 244.031 169.720,244.900 168.640,245.387 168.200 C 245.874 167.760,247.786 165.713,249.636 163.651 C 251.486 161.590,254.080 159.017,255.400 157.935 C 256.720 156.853,258.430 155.413,259.200 154.735 C 260.909 153.230,265.944 150.000,266.581 150.000 C 266.835 150.000,267.844 149.500,268.822 148.888 C 270.408 147.896,279.419 144.728,282.000 144.255 C 282.550 144.154,286.150 144.118,290.000 144.175 L 297.000 144.278 302.527 146.126 M191.346 210.029 L 192.400 210.858 192.400 218.577 C 192.400 222.823,192.658 228.885,192.974 232.048 C 193.290 235.212,193.654 240.590,193.784 244.000 C 194.574 264.776,195.803 273.503,198.040 274.213 C 200.650 275.041,202.177 269.369,202.998 255.800 C 203.395 249.222,204.427 237.480,204.637 237.141 C 204.959 236.619,205.570 230.689,206.179 222.170 C 206.892 212.191,207.522 210.322,209.039 213.688 C 209.458 214.616,210.188 215.837,210.663 216.402 C 211.138 216.966,211.987 218.839,212.551 220.565 C 213.114 222.291,213.880 224.167,214.251 224.735 C 214.623 225.302,215.423 227.393,216.029 229.383 C 217.748 235.022,219.509 239.530,220.538 240.925 C 221.056 241.626,221.784 242.986,222.155 243.947 C 222.527 244.908,223.319 246.334,223.916 247.115 L 225.000 248.536 225.128 259.568 C 225.422 285.040,223.861 293.783,219.319 292.098 C 218.704 291.869,217.120 291.370,215.800 290.988 C 214.480 290.606,212.320 289.845,211.000 289.298 C 204.450 286.582,188.891 286.061,184.445 288.409 C 176.717 292.489,175.889 292.099,174.257 283.600 C 172.081 272.267,171.987 260.031,173.976 246.800 C 174.389 244.050,174.933 240.198,175.184 238.240 C 175.435 236.282,176.065 233.672,176.583 232.439 C 177.102 231.207,177.823 229.054,178.185 227.656 C 178.548 226.258,179.257 224.458,179.761 223.657 C 180.265 222.856,180.896 221.534,181.163 220.720 C 181.430 219.905,182.090 218.590,182.628 217.796 C 183.167 217.003,183.953 215.677,184.375 214.850 C 184.796 214.023,185.449 213.091,185.825 212.779 C 186.201 212.467,186.937 211.534,187.459 210.706 C 188.564 208.955,189.724 208.753,191.346 210.029 M4.800 262.509 C 4.800 262.638,5.083 263.026,5.429 263.371 C 6.131 264.074,7.395 264.238,6.984 263.573 C 6.839 263.339,6.618 263.249,6.492 263.374 C 6.367 263.499,5.935 263.303,5.532 262.939 C 5.130 262.574,4.800 262.381,4.800 262.509 M391.553 270.900 C 391.527 271.175,391.539 271.643,391.579 271.940 C 391.625 272.271,391.464 272.363,391.165 272.178 C 390.830 271.972,390.780 272.043,391.004 272.406 C 391.250 272.804,391.141 272.864,390.566 272.644 C 389.966 272.416,389.904 272.458,390.283 272.839 C 390.961 273.523,391.900 272.682,391.900 271.393 C 391.900 270.375,391.638 270.003,391.553 270.900 M8.000 271.767 C 8.000 272.209,9.087 273.200,9.571 273.200 C 9.807 273.200,10.000 272.990,10.000 272.733 C 10.000 272.477,9.880 272.387,9.732 272.534 C 9.585 272.681,9.135 272.503,8.732 272.139 C 8.330 271.774,8.000 271.607,8.000 271.767 M15.200 286.586 C 15.200 287.098,16.332 288.000,16.974 288.000 C 17.098 288.000,17.200 287.550,17.200 287.000 C 17.200 286.200,17.000 286.000,16.200 286.000 C 15.588 286.000,15.200 286.228,15.200 286.586 M382.800 287.000 C 382.800 288.119,382.922 288.177,384.026 287.586 C 385.145 286.987,385.004 286.000,383.800 286.000 C 383.000 286.000,382.800 286.200,382.800 287.000 M18.222 292.688 C 18.041 293.158,18.240 293.627,18.820 294.096 C 20.532 295.483,20.995 294.683,19.446 293.012 C 18.588 292.086,18.465 292.054,18.222 292.688 M380.604 293.196 C 379.974 293.854,379.575 294.508,379.717 294.650 C 380.147 295.080,382.079 293.584,381.854 292.996 C 381.739 292.697,381.860 292.364,382.122 292.257 C 382.396 292.146,382.419 292.050,382.175 292.032 C 381.941 292.014,381.234 292.538,380.604 293.196 M372.369 309.300 C 372.025 310.424,372.117 310.801,372.632 310.373 C 373.290 309.827,373.380 309.200,372.800 309.200 C 372.580 309.200,372.386 309.245,372.369 309.300 M43.057 330.451 C 43.556 331.306,44.173 331.817,44.741 331.846 L 45.639 331.893 44.719 330.910 C 43.018 329.090,42.117 328.842,43.057 330.451 M355.017 329.917 C 354.511 330.423,354.853 330.854,355.400 330.400 C 355.832 330.041,356.000 330.031,356.000 330.364 C 356.000 330.617,355.730 330.929,355.400 331.055 C 354.635 331.349,354.619 332.000,355.377 332.000 C 355.911 332.000,357.200 330.558,357.200 329.961 C 357.200 329.647,355.324 329.609,355.017 329.917 M319.446 365.769 C 319.689 366.409,319.609 366.489,318.969 366.246 C 318.352 366.011,318.299 366.052,318.700 366.456 C 319.089 366.848,319.307 366.853,319.680 366.480 C 320.053 366.107,320.048 365.889,319.656 365.500 C 319.252 365.099,319.211 365.152,319.446 365.769 M271.649 391.219 C 270.840 391.892,270.811 391.993,271.449 391.894 C 272.428 391.741,273.200 391.249,273.200 390.776 C 273.200 390.202,272.697 390.345,271.649 391.219 M136.220 394.107 C 136.488 394.807,137.896 395.437,138.297 395.037 C 138.427 394.906,138.293 394.800,137.998 394.800 C 137.704 394.800,137.126 394.495,136.714 394.122 C 136.030 393.504,135.988 393.502,136.220 394.107 " stroke="none" fill="#140c0d" fill-rule="evenodd"></path><path id="path1" d="M161.200 0.800 C 161.200 1.563,160.933 1.600,155.371 1.600 C 149.771 1.600,148.400 1.870,148.400 2.971 C 148.400 4.294,146.684 4.800,142.200 4.800 C 139.400 4.800,137.600 4.957,137.600 5.200 C 137.600 5.420,137.375 5.555,137.100 5.500 C 136.825 5.445,136.645 5.625,136.700 5.900 C 136.755 6.175,136.620 6.400,136.400 6.400 C 136.180 6.400,136.000 6.760,136.000 7.200 C 136.000 7.944,135.733 8.000,132.200 8.000 C 128.234 8.000,126.487 8.720,127.029 10.131 C 127.191 10.553,126.585 10.736,124.427 10.916 C 121.727 11.143,120.288 11.575,120.364 12.136 C 120.605 13.909,120.474 14.000,117.680 14.000 C 114.672 14.000,114.000 14.380,114.000 16.080 L 114.000 17.200 111.000 17.200 C 108.362 17.200,108.000 17.288,108.000 17.930 C 108.000 19.303,106.367 20.342,104.000 20.476 L 101.800 20.600 101.676 22.100 L 101.552 23.600 98.552 23.600 C 96.803 23.600,95.649 23.755,95.783 23.972 C 95.909 24.177,95.830 24.458,95.607 24.596 C 95.383 24.734,95.200 25.186,95.200 25.599 C 95.200 26.323,93.334 26.880,90.600 26.973 C 90.053 26.991,89.679 27.412,89.417 28.300 C 89.116 29.323,88.818 29.601,88.017 29.606 C 86.966 29.612,85.906 30.097,85.966 30.545 C 86.217 32.420,85.999 32.698,84.100 32.925 C 80.799 33.319,79.811 33.731,80.136 34.577 C 80.442 35.374,79.888 35.908,78.600 36.058 C 77.171 36.224,76.814 36.630,76.806 38.100 C 76.800 39.148,75.793 39.546,73.900 39.247 C 73.735 39.221,73.621 39.335,73.647 39.500 C 73.979 41.600,73.575 42.400,72.183 42.400 C 70.706 42.400,70.450 42.549,68.168 44.724 C 67.213 45.634,66.543 45.972,66.023 45.807 C 65.182 45.540,64.600 46.185,64.600 47.385 C 64.600 47.985,64.212 48.248,62.961 48.497 C 61.479 48.792,61.318 48.942,61.286 50.053 C 61.243 51.584,61.147 51.677,59.521 51.756 C 58.299 51.815,58.191 51.931,58.076 53.310 C 57.975 54.521,57.788 54.809,57.076 54.846 C 54.822 54.965,54.965 54.822,54.846 57.076 C 54.809 57.789,54.521 57.975,53.300 58.076 C 51.881 58.193,51.793 58.281,51.676 59.700 C 51.580 60.853,51.372 61.212,50.776 61.250 C 49.186 61.352,48.999 61.409,48.965 61.800 C 48.946 62.020,48.811 62.515,48.665 62.900 C 48.519 63.285,48.317 63.867,48.215 64.193 C 48.108 64.539,47.771 64.687,47.410 64.549 C 46.531 64.211,45.504 65.190,45.750 66.132 C 45.891 66.670,45.551 67.301,44.678 68.122 C 43.769 68.977,43.660 69.187,44.300 68.848 C 44.795 68.586,45.200 68.468,45.200 68.586 C 45.200 69.052,43.565 70.400,43.000 70.400 C 42.567 70.400,42.400 70.844,42.400 72.000 C 42.400 73.593,41.694 73.994,39.500 73.647 C 39.335 73.621,39.221 73.735,39.247 73.900 C 39.546 75.793,39.148 76.800,38.100 76.806 C 36.630 76.814,36.224 77.172,36.058 78.600 C 35.876 80.180,35.736 80.361,34.872 80.135 C 33.776 79.848,33.228 80.817,32.943 83.541 C 32.681 86.053,32.507 86.228,30.545 85.966 C 30.092 85.905,29.612 86.971,29.606 88.050 C 29.601 88.900,29.366 89.147,28.373 89.345 C 27.692 89.482,27.258 89.770,27.397 89.995 C 27.535 90.218,27.449 90.400,27.206 90.400 C 26.963 90.400,26.808 90.625,26.861 90.900 C 27.342 93.402,25.097 96.963,23.834 95.701 C 23.705 95.572,23.600 96.847,23.600 98.533 C 23.600 101.524,23.575 101.601,22.600 101.650 C 22.050 101.678,21.375 101.723,21.100 101.750 C 20.798 101.780,20.552 102.543,20.479 103.680 C 20.390 105.065,20.170 105.619,19.643 105.786 C 19.250 105.911,18.689 106.460,18.396 107.007 C 18.104 107.553,17.715 108.000,17.532 108.000 C 17.350 108.000,17.200 109.350,17.200 111.000 L 17.200 114.000 15.843 114.000 C 14.199 114.000,14.000 114.413,14.000 117.833 C 14.000 120.133,13.917 120.400,13.200 120.400 C 12.760 120.400,12.265 120.413,12.100 120.428 C 11.500 120.485,11.147 121.673,10.917 124.415 C 10.708 126.909,10.601 127.191,9.941 126.981 C 9.519 126.847,9.200 126.940,9.200 127.197 C 9.200 127.444,8.992 127.519,8.738 127.362 C 8.463 127.191,8.385 127.251,8.545 127.511 C 8.692 127.749,8.619 128.064,8.383 128.211 C 8.146 128.357,7.983 128.864,8.021 129.338 C 8.324 133.194,7.979 136.000,7.200 136.000 C 6.760 136.000,6.400 136.180,6.400 136.400 C 6.400 136.620,6.175 136.755,5.900 136.700 C 5.625 136.645,5.445 136.825,5.500 137.100 C 5.555 137.375,5.420 137.600,5.200 137.600 C 4.958 137.600,4.800 139.333,4.800 142.000 C 4.800 145.551,4.690 146.400,4.227 146.400 C 3.561 146.400,1.901 148.568,2.278 148.945 C 2.419 149.085,2.323 149.200,2.067 149.200 C 1.732 149.200,1.600 150.895,1.600 155.200 C 1.600 160.933,1.564 161.200,0.800 161.200 C 0.006 161.200,0.000 161.467,0.000 199.800 C 0.000 238.133,0.006 238.400,0.800 238.400 C 1.561 238.400,1.601 238.677,1.631 244.100 C 1.669 251.190,2.327 253.600,4.227 253.600 C 4.689 253.600,4.800 254.440,4.800 257.938 C 4.800 262.032,5.537 264.348,6.638 263.711 C 7.609 263.148,8.000 264.326,8.000 267.819 C 8.000 269.917,8.178 271.663,8.407 271.804 C 8.630 271.942,8.719 272.207,8.605 272.393 C 8.490 272.578,8.708 272.684,9.090 272.628 C 10.111 272.478,10.797 273.365,10.823 274.871 C 10.863 277.158,11.393 279.398,11.907 279.450 C 12.178 279.478,12.760 279.522,13.200 279.550 C 13.912 279.594,14.000 279.883,14.000 282.167 C 14.000 285.587,14.199 286.000,15.843 286.000 L 17.200 286.000 17.200 288.817 C 17.200 291.109,17.353 291.798,18.025 292.517 C 18.788 293.334,18.828 293.340,18.560 292.600 C 18.334 291.977,18.505 292.047,19.335 292.921 C 20.111 293.738,20.400 294.460,20.400 295.588 C 20.400 297.930,20.708 298.400,22.243 298.400 L 23.600 298.400 23.600 301.382 L 23.600 304.364 24.982 304.623 C 26.313 304.873,27.088 306.580,26.968 309.000 C 26.957 309.220,27.275 309.715,27.674 310.100 C 28.073 310.485,28.400 310.598,28.400 310.351 C 28.400 310.041,28.585 310.056,29.000 310.400 C 29.330 310.674,29.600 311.410,29.600 312.035 C 29.600 313.230,30.510 314.000,31.923 314.000 C 32.549 314.000,32.742 314.365,32.925 315.900 C 33.228 318.441,33.385 319.118,33.755 319.488 C 34.066 319.799,34.266 319.856,35.400 319.950 C 35.808 319.984,36.000 320.443,36.000 321.386 C 36.000 322.856,36.798 323.600,38.374 323.600 C 39.051 323.600,39.200 323.852,39.200 325.000 C 39.200 326.367,39.238 326.400,40.800 326.400 C 42.365 326.400,42.400 326.431,42.400 327.813 C 42.400 328.697,42.624 329.311,42.998 329.454 C 43.326 329.581,43.479 329.873,43.336 330.104 C 43.193 330.335,43.258 330.411,43.480 330.274 C 43.702 330.137,44.315 330.498,44.842 331.077 C 45.369 331.656,45.583 332.004,45.317 331.851 C 44.978 331.656,44.998 331.891,45.385 332.637 C 45.689 333.221,45.853 333.918,45.750 334.186 C 45.582 334.623,46.725 335.943,47.061 335.700 C 47.685 335.250,48.352 335.821,48.572 336.993 C 48.787 338.136,49.063 338.445,50.117 338.717 C 51.185 338.993,51.433 339.278,51.600 340.424 C 51.783 341.683,51.928 341.811,53.300 341.924 C 54.521 342.025,54.809 342.211,54.846 342.924 C 54.872 343.406,54.917 344.065,54.946 344.389 C 54.980 344.757,55.513 345.019,56.367 345.089 C 58.040 345.226,58.043 345.229,58.086 346.745 C 58.105 347.420,58.274 347.878,58.460 347.763 C 58.647 347.647,58.800 347.743,58.800 347.976 C 58.800 348.209,59.340 348.400,60.000 348.400 C 61.158 348.400,61.541 349.183,61.237 350.930 C 61.206 351.111,61.352 351.153,61.562 351.023 C 61.773 350.893,62.053 350.962,62.185 351.176 C 62.317 351.390,62.667 351.473,62.961 351.360 C 63.600 351.114,64.906 352.305,64.578 352.835 C 64.250 353.367,65.258 354.222,66.200 354.210 C 66.640 354.204,67.630 354.795,68.400 355.523 C 69.170 356.250,70.085 357.105,70.434 357.423 C 70.782 357.740,71.637 358.000,72.334 358.000 C 73.514 358.000,73.600 358.095,73.600 359.400 C 73.600 360.763,73.642 360.800,75.176 360.800 C 76.702 360.800,76.756 360.847,76.876 362.269 C 76.986 363.567,77.139 363.754,78.200 363.881 C 80.086 364.107,80.473 364.340,80.231 365.104 C 79.992 365.856,81.340 367.008,81.989 366.607 C 82.184 366.486,82.458 366.570,82.596 366.793 C 82.734 367.017,83.557 367.200,84.424 367.200 C 85.949 367.200,86.000 367.244,86.000 368.557 C 86.000 369.991,86.496 370.400,88.233 370.400 C 88.933 370.400,89.200 370.621,89.200 371.200 C 89.200 371.640,89.380 372.000,89.600 372.000 C 89.820 372.000,89.955 372.218,89.900 372.486 C 89.842 372.766,90.256 372.983,90.880 372.999 C 91.474 373.014,92.089 373.156,92.247 373.313 C 92.404 373.471,93.125 373.600,93.849 373.600 C 95.035 373.600,95.189 373.737,95.426 375.000 L 95.689 376.400 98.645 376.400 C 101.504 376.400,101.600 376.432,101.600 377.367 C 101.600 379.290,101.957 379.600,104.173 379.600 C 106.320 379.600,107.511 380.353,108.128 382.100 C 108.331 382.677,108.870 382.800,111.187 382.800 L 114.000 382.800 114.000 383.986 C 114.000 385.477,114.715 385.851,117.800 385.973 C 120.598 386.083,120.311 385.942,120.492 387.292 C 120.697 388.825,120.888 388.924,124.108 389.175 C 126.540 389.364,126.991 389.511,126.944 390.100 C 126.914 390.485,127.060 390.800,127.268 390.800 C 127.477 390.800,127.536 390.980,127.400 391.200 C 127.264 391.420,127.388 391.627,127.676 391.659 C 127.964 391.692,128.470 391.755,128.800 391.800 C 129.130 391.845,130.885 391.908,132.700 391.941 C 135.620 391.993,136.000 392.085,136.000 392.738 C 136.000 394.458,137.397 394.992,142.276 395.135 C 146.866 395.270,148.400 395.784,148.400 397.186 C 148.400 398.084,150.266 398.400,155.574 398.400 C 160.933 398.400,161.200 398.438,161.200 399.200 C 161.200 399.994,161.467 400.000,199.800 400.000 C 238.133 400.000,238.400 399.994,238.400 399.200 C 238.400 398.435,238.667 398.400,244.551 398.400 C 250.751 398.400,252.184 398.069,251.411 396.818 C 251.269 396.588,251.439 396.400,251.789 396.400 C 252.139 396.400,252.529 396.130,252.655 395.800 C 252.840 395.318,253.736 395.200,257.217 395.200 C 261.903 395.200,263.826 394.767,263.453 393.794 C 263.328 393.467,263.399 393.200,263.613 393.200 C 263.826 393.200,264.000 392.930,264.000 392.600 C 264.000 392.127,264.612 391.989,266.900 391.948 C 271.510 391.865,271.958 391.806,272.493 391.206 C 272.914 390.735,272.895 390.703,272.381 391.019 C 272.017 391.243,272.058 391.127,272.481 390.736 C 272.877 390.371,273.200 389.876,273.200 389.636 C 273.200 389.369,274.142 389.200,275.626 389.200 C 278.682 389.200,279.600 388.735,279.600 387.186 C 279.600 386.053,281.884 385.490,284.542 385.967 C 285.053 386.058,286.018 385.158,285.958 384.647 C 285.751 382.894,285.907 382.800,289.000 382.800 C 291.638 382.800,292.000 382.712,292.000 382.070 C 292.000 380.697,293.633 379.658,296.000 379.524 L 298.200 379.400 298.324 377.900 L 298.448 376.400 301.080 376.400 C 303.832 376.400,304.759 375.875,304.787 374.300 C 304.797 373.752,305.148 373.600,306.400 373.600 C 307.280 373.600,308.000 373.437,308.000 373.237 C 308.000 373.038,308.383 372.975,308.851 373.097 C 309.814 373.349,310.541 372.469,310.750 370.800 C 310.778 370.580,311.235 370.400,311.767 370.400 C 313.489 370.400,314.000 369.988,314.000 368.599 C 314.000 367.253,314.809 366.894,318.109 366.777 C 318.498 366.763,318.714 366.585,318.588 366.380 C 318.460 366.173,318.662 366.126,319.049 366.274 C 319.584 366.479,319.679 366.384,319.474 365.849 C 319.297 365.386,319.360 365.252,319.668 365.442 C 319.979 365.634,320.054 365.449,319.900 364.863 C 319.698 364.089,319.834 364.000,321.223 364.000 C 322.864 364.000,323.600 363.265,323.600 361.626 C 323.600 360.949,323.852 360.800,325.000 360.800 C 326.333 360.800,326.400 360.733,326.400 359.400 C 326.400 358.095,326.486 358.000,327.666 358.000 C 328.951 358.000,329.112 357.897,331.601 355.490 C 332.372 354.744,333.238 354.213,333.525 354.308 C 334.234 354.545,335.600 353.248,335.600 352.338 C 335.600 351.932,335.870 351.578,336.200 351.550 C 336.530 351.523,336.980 351.455,337.200 351.400 C 337.420 351.345,337.878 351.278,338.218 351.250 C 338.557 351.223,338.792 350.975,338.739 350.700 C 338.502 349.464,339.263 348.400,340.384 348.400 C 341.577 348.400,342.000 347.815,342.000 346.167 C 342.000 345.273,342.437 345.043,344.000 345.114 C 344.255 345.126,345.220 344.083,345.208 343.808 C 345.142 342.166,345.237 342.045,346.700 341.924 C 348.064 341.811,348.211 341.684,348.324 340.519 C 348.440 339.321,349.198 338.689,350.600 338.620 C 350.820 338.609,351.007 338.420,351.015 338.200 C 351.071 336.732,351.690 335.600,352.436 335.600 C 353.559 335.600,354.530 334.539,354.280 333.586 C 354.167 333.154,354.238 332.800,354.437 332.800 C 354.637 332.800,354.800 332.459,354.800 332.043 C 354.800 331.626,355.070 331.182,355.400 331.055 C 355.730 330.929,356.000 330.617,356.000 330.364 C 356.000 330.050,355.787 330.078,355.335 330.451 C 354.765 330.922,354.698 330.914,354.868 330.400 C 354.977 330.070,355.441 329.780,355.898 329.756 C 357.561 329.669,358.000 329.263,358.000 327.813 C 358.000 326.465,358.064 326.400,359.400 326.400 C 360.733 326.400,360.800 326.333,360.800 325.000 C 360.800 323.852,360.949 323.600,361.626 323.600 C 363.191 323.600,364.000 322.854,364.000 321.412 C 364.000 320.227,364.141 320.037,365.100 319.927 C 365.857 319.839,366.183 319.583,366.145 319.104 C 366.115 318.722,366.241 318.501,366.424 318.615 C 366.608 318.728,366.881 317.736,367.031 316.411 C 367.302 314.011,367.309 314.000,368.609 314.000 C 369.948 314.000,370.400 313.480,370.400 311.939 C 370.400 311.001,371.457 309.772,371.682 310.447 C 371.769 310.707,372.069 310.593,372.415 310.167 C 372.931 309.532,372.929 309.483,372.400 309.753 C 372.070 309.921,372.133 309.788,372.540 309.456 C 372.947 309.125,373.169 308.674,373.034 308.454 C 372.898 308.235,372.970 307.942,373.193 307.804 C 373.417 307.666,373.600 306.933,373.600 306.176 C 373.600 305.137,373.771 304.797,374.300 304.787 C 375.875 304.759,376.400 303.832,376.400 301.080 L 376.400 298.448 377.900 298.324 C 379.398 298.200,379.400 298.197,379.524 296.200 C 379.651 294.157,381.064 292.000,382.275 292.000 C 382.662 292.000,382.800 291.210,382.800 289.000 L 382.800 286.000 383.951 286.000 C 385.540 286.000,385.875 285.403,385.968 282.409 C 386.062 279.396,385.923 279.691,387.337 279.502 C 388.860 279.298,389.187 278.629,389.194 275.700 C 389.198 273.910,389.349 273.200,389.724 273.200 C 391.493 273.200,391.865 272.181,391.949 267.100 C 391.990 264.634,392.123 264.000,392.600 264.000 C 392.930 264.000,393.200 263.826,393.200 263.613 C 393.200 263.399,393.467 263.328,393.794 263.453 C 394.745 263.818,395.200 261.931,395.200 257.621 C 395.200 253.993,395.263 253.677,396.023 253.478 C 396.475 253.360,397.055 252.709,397.311 252.031 C 397.566 251.354,397.916 250.800,398.088 250.800 C 398.259 250.800,398.400 248.010,398.400 244.600 C 398.400 238.667,398.434 238.400,399.200 238.400 C 399.994 238.400,400.000 238.133,400.000 199.800 C 400.000 161.467,399.994 161.200,399.200 161.200 C 398.436 161.200,398.400 160.933,398.400 155.293 C 398.400 149.128,397.609 146.400,395.821 146.400 C 395.396 146.400,395.240 145.408,395.135 142.041 C 394.992 137.412,394.431 136.000,392.738 136.000 C 392.085 136.000,391.993 135.619,391.939 132.700 C 391.906 130.885,391.836 129.220,391.785 129.000 C 391.734 128.780,391.650 128.420,391.599 128.200 C 391.547 127.980,391.531 127.652,391.563 127.470 C 391.594 127.289,391.435 127.255,391.210 127.394 C 390.984 127.533,390.800 127.444,390.800 127.197 C 390.800 126.928,390.477 126.849,390.000 127.000 C 389.261 127.235,389.200 127.072,389.200 124.853 C 389.200 121.637,388.769 120.605,387.377 120.490 C 385.967 120.373,386.084 120.596,385.963 117.800 C 385.807 114.216,385.704 114.000,384.153 114.000 L 382.800 114.000 382.800 111.000 C 382.800 108.647,382.675 108.000,382.221 108.000 C 381.902 108.000,381.137 107.527,380.521 106.949 L 379.400 105.898 380.400 106.151 C 381.382 106.400,381.384 106.396,380.500 105.941 C 379.781 105.571,379.600 105.137,379.600 103.782 C 379.600 101.986,379.205 101.600,377.367 101.600 C 376.430 101.600,376.400 101.506,376.400 98.600 C 376.400 95.909,376.321 95.600,375.633 95.600 C 374.103 95.600,373.600 95.144,373.600 93.757 C 373.600 93.011,373.408 92.400,373.173 92.400 C 372.934 92.400,372.853 92.062,372.989 91.634 C 373.123 91.212,373.042 90.750,372.810 90.606 C 372.577 90.462,372.508 90.149,372.655 89.911 C 372.815 89.651,372.737 89.591,372.462 89.762 C 372.208 89.919,372.000 89.857,372.000 89.624 C 372.000 89.391,371.640 89.200,371.200 89.200 C 370.595 89.200,370.399 88.931,370.394 88.100 C 370.388 86.978,369.915 85.904,369.455 85.966 C 367.493 86.228,367.319 86.053,367.057 83.541 C 366.768 80.778,366.265 79.917,365.039 80.085 C 364.334 80.182,364.168 79.944,364.000 78.600 C 363.810 77.082,363.723 76.994,362.300 76.876 C 360.842 76.755,360.800 76.708,360.800 75.176 C 360.800 73.642,360.763 73.600,359.400 73.600 C 358.067 73.600,358.000 73.533,358.000 72.200 C 358.000 71.430,357.834 70.800,357.631 70.800 C 357.020 70.800,354.782 68.753,355.003 68.396 C 355.115 68.214,354.981 67.825,354.704 67.532 C 354.427 67.240,354.211 66.640,354.225 66.200 C 354.260 65.059,353.606 64.344,352.768 64.610 C 352.093 64.825,351.350 64.045,351.235 63.000 C 351.087 61.664,350.665 61.200,349.597 61.200 C 348.558 61.200,348.436 61.056,348.324 59.700 C 348.207 58.281,348.119 58.193,346.700 58.076 C 345.479 57.975,345.191 57.789,345.154 57.076 C 345.035 54.822,345.178 54.965,342.924 54.846 C 342.211 54.809,342.025 54.521,341.924 53.300 C 341.812 51.939,341.682 51.789,340.531 51.677 C 339.267 51.554,338.053 49.727,338.733 48.970 C 338.880 48.806,338.787 48.794,338.528 48.942 C 338.268 49.091,337.942 49.030,337.804 48.807 C 337.666 48.583,337.113 48.400,336.576 48.400 C 335.753 48.400,335.254 47.645,335.700 47.071 C 335.966 46.729,334.483 45.763,333.600 45.704 C 333.050 45.667,332.240 45.214,331.800 44.697 C 330.606 43.293,328.978 42.400,327.614 42.400 C 326.464 42.400,326.400 42.315,326.400 40.800 C 326.400 39.238,326.367 39.200,325.000 39.200 C 323.852 39.200,323.600 39.051,323.600 38.374 C 323.600 36.798,322.856 36.000,321.386 36.000 C 320.421 36.000,320.000 35.818,320.000 35.400 C 320.000 34.261,319.432 33.388,318.618 33.276 C 318.388 33.244,317.255 33.101,316.100 32.958 C 314.378 32.745,314.000 32.559,314.000 31.923 C 314.000 30.486,313.232 29.600,311.986 29.600 C 311.010 29.600,310.524 29.209,310.868 28.700 C 311.083 28.381,309.878 26.790,309.479 26.868 C 307.314 27.291,304.880 26.350,304.625 24.992 L 304.364 23.600 301.382 23.600 L 298.400 23.600 298.400 22.243 C 298.400 20.687,297.938 20.400,295.437 20.400 C 293.703 20.400,292.442 19.516,291.872 17.900 C 291.669 17.323,291.130 17.200,288.813 17.200 C 286.579 17.200,286.000 17.076,286.000 16.600 C 286.000 14.374,285.480 14.000,282.386 14.000 C 279.883 14.000,279.595 13.919,279.550 13.200 C 279.522 12.760,279.478 12.178,279.450 11.907 C 279.397 11.380,277.137 10.861,274.732 10.823 C 273.432 10.803,273.233 10.662,272.999 9.597 C 272.854 8.935,272.570 8.495,272.367 8.620 C 272.165 8.745,272.000 8.675,272.000 8.465 C 272.000 8.252,270.282 8.061,268.111 8.033 C 264.516 7.987,263.072 7.536,263.685 6.650 C 264.447 5.548,262.044 4.800,257.738 4.800 C 252.909 4.800,252.382 4.609,251.218 2.434 C 250.975 1.980,250.646 1.627,250.488 1.651 C 247.324 2.128,238.400 1.500,238.400 0.800 C 238.400 0.006,238.133 0.000,199.800 0.000 C 161.467 0.000,161.200 0.006,161.200 0.800 M220.000 32.190 C 230.011 33.483,240.370 35.214,242.466 35.944 C 243.712 36.378,246.232 37.037,248.066 37.409 C 249.900 37.780,252.480 38.538,253.800 39.092 C 255.120 39.647,257.460 40.442,259.000 40.858 C 260.540 41.275,262.430 41.951,263.200 42.359 C 263.970 42.768,265.320 43.331,266.200 43.609 C 267.692 44.082,272.382 46.311,275.600 48.076 C 276.370 48.499,278.080 49.380,279.400 50.035 C 282.208 51.427,285.711 53.552,287.372 54.870 C 288.016 55.381,289.115 56.160,289.814 56.600 C 294.124 59.315,296.283 61.002,296.883 62.123 C 298.136 64.464,298.198 64.362,292.174 69.939 C 290.428 71.556,288.535 73.311,287.967 73.839 C 287.398 74.368,286.749 74.800,286.523 74.800 C 286.297 74.800,285.322 75.475,284.355 76.300 C 282.219 78.124,280.881 79.082,276.120 82.194 C 269.507 86.517,267.753 87.600,267.365 87.600 C 267.154 87.600,266.320 88.146,265.510 88.814 C 264.700 89.481,263.039 90.469,261.819 91.009 C 256.880 93.193,262.538 94.699,268.464 92.778 C 269.859 92.326,272.416 91.604,274.147 91.173 C 275.878 90.742,278.721 89.762,280.466 88.995 C 282.211 88.228,283.866 87.600,284.143 87.600 C 284.421 87.600,285.897 86.997,287.424 86.261 C 288.951 85.524,291.280 84.505,292.600 83.995 C 293.920 83.486,295.200 82.918,295.444 82.732 C 295.687 82.547,296.947 82.031,298.243 81.585 C 299.539 81.139,301.229 80.358,301.999 79.850 C 302.770 79.341,304.040 78.715,304.821 78.457 C 305.603 78.200,307.217 77.362,308.408 76.595 C 309.599 75.828,310.702 75.200,310.860 75.200 C 312.515 75.200,315.251 77.472,319.534 82.400 C 321.351 84.490,323.278 86.665,323.818 87.233 C 324.358 87.802,324.800 88.471,324.800 88.720 C 324.800 88.969,325.565 90.067,326.500 91.159 C 328.495 93.488,330.753 96.525,331.600 98.018 C 331.930 98.600,332.610 99.599,333.110 100.238 C 334.472 101.977,337.632 106.809,337.892 107.551 C 338.017 107.908,338.497 108.613,338.960 109.117 C 339.422 109.622,340.430 111.280,341.200 112.802 C 347.898 126.041,350.000 130.410,350.000 131.093 C 350.000 131.530,350.527 132.875,351.171 134.081 C 351.814 135.288,352.649 137.338,353.025 138.637 C 353.401 139.937,354.129 141.921,354.642 143.047 C 355.155 144.173,356.027 146.833,356.579 148.957 C 357.131 151.081,357.762 153.155,357.981 153.564 C 358.200 153.973,358.838 156.624,359.398 159.454 C 359.959 162.284,360.764 165.609,361.188 166.841 C 363.590 173.830,363.490 203.176,361.036 211.055 C 360.498 212.785,359.850 214.991,359.598 215.957 C 357.071 225.624,345.437 238.042,336.482 240.630 C 335.227 240.993,332.755 241.723,330.989 242.252 C 329.223 242.781,325.803 243.556,323.389 243.974 C 320.975 244.392,317.650 245.100,316.000 245.548 C 314.350 245.996,310.750 246.653,308.000 247.009 C 305.250 247.364,301.200 248.080,299.000 248.600 C 296.800 249.119,293.920 249.657,292.600 249.794 C 288.852 250.184,286.387 250.818,284.000 252.003 C 282.790 252.604,281.350 253.234,280.800 253.403 C 279.749 253.725,274.800 257.224,274.800 257.644 C 274.800 257.778,274.204 258.520,273.477 259.291 C 271.070 261.843,271.000 262.672,271.000 288.600 C 271.000 312.509,271.279 318.603,273.054 333.443 C 273.811 339.771,273.654 343.771,272.266 353.545 C 270.728 364.377,270.380 364.854,263.139 366.045 C 260.423 366.492,257.056 367.205,255.658 367.629 C 249.547 369.482,247.682 368.716,246.829 364.000 C 246.571 362.570,245.879 359.780,245.292 357.800 C 243.742 352.577,243.748 345.214,245.305 340.732 C 246.708 336.694,247.031 333.200,246.243 330.600 C 244.717 325.569,243.094 320.864,242.379 319.400 C 241.949 318.520,241.598 317.616,241.599 317.391 C 241.605 315.175,237.432 313.180,234.664 314.076 C 231.417 315.126,230.946 317.484,232.400 325.400 C 233.813 333.091,233.297 334.963,228.959 337.885 C 223.860 341.319,222.143 342.454,221.054 343.110 C 220.423 343.489,219.176 344.398,218.282 345.129 C 217.387 345.859,216.013 346.787,215.228 347.190 C 214.443 347.593,213.364 348.390,212.830 348.961 C 211.734 350.135,208.094 350.477,207.269 349.483 C 206.983 349.138,206.800 343.223,206.720 331.694 C 206.579 311.339,206.989 312.929,201.783 312.566 C 195.808 312.149,195.060 313.668,193.799 328.800 C 193.470 332.747,192.382 340.905,192.131 341.312 C 192.022 341.488,191.581 345.270,191.152 349.716 C 190.135 360.240,190.981 359.400,181.400 359.400 C 172.438 359.400,172.785 359.594,171.648 353.941 C 171.221 351.819,170.691 349.744,170.470 349.330 C 170.248 348.917,169.601 346.368,169.030 343.666 C 168.460 340.964,167.648 337.729,167.227 336.477 C 166.806 335.225,166.162 332.580,165.796 330.600 C 165.430 328.620,164.800 326.245,164.397 325.322 C 163.994 324.399,163.362 322.239,162.992 320.522 C 161.733 314.679,161.218 313.321,159.582 311.529 L 158.004 309.800 157.062 310.931 C 155.845 312.392,153.796 317.450,153.016 320.916 C 152.679 322.410,152.104 324.210,151.737 324.916 C 149.972 328.316,149.937 332.484,151.631 337.677 C 153.005 341.891,153.075 346.623,151.863 353.275 C 151.290 356.424,150.605 360.313,150.343 361.918 C 149.815 365.138,149.764 365.203,147.431 365.633 C 138.866 367.210,127.116 360.727,125.260 353.400 C 123.509 346.488,123.403 343.739,124.318 329.000 C 124.564 325.040,124.960 317.390,125.197 312.000 C 125.435 306.610,125.888 299.590,126.203 296.400 C 126.518 293.210,126.961 288.749,127.188 286.486 C 127.414 284.223,127.601 281.163,127.603 279.686 C 127.604 278.209,127.964 275.504,128.403 273.675 C 129.648 268.480,129.143 265.169,126.595 261.830 C 126.062 261.130,125.344 259.937,125.000 259.178 C 123.306 255.437,121.164 253.522,117.564 252.533 C 115.714 252.024,113.220 251.336,112.022 251.005 C 110.824 250.674,108.374 250.220,106.578 249.997 C 104.782 249.774,101.868 249.159,100.103 248.631 C 98.337 248.102,95.027 247.378,92.747 247.020 C 90.466 246.663,86.980 245.929,85.000 245.388 C 83.020 244.848,79.128 244.049,76.352 243.613 C 73.576 243.177,70.786 242.618,70.152 242.373 C 69.518 242.127,67.670 241.573,66.045 241.143 C 62.878 240.304,58.135 237.897,55.626 235.855 C 54.778 235.165,53.435 234.097,52.642 233.483 C 51.192 232.359,48.509 229.085,46.974 226.565 C 46.519 225.819,45.777 224.802,45.324 224.304 C 44.871 223.807,44.118 222.359,43.651 221.087 C 43.184 219.815,42.548 218.375,42.238 217.887 C 41.928 217.399,41.370 215.650,40.998 214.000 C 40.625 212.350,39.898 209.470,39.382 207.600 C 36.834 198.369,36.848 175.067,39.409 162.000 C 39.948 159.250,40.738 155.020,41.164 152.600 C 42.380 145.708,46.324 133.220,48.950 127.950 C 49.527 126.791,50.000 125.606,50.000 125.317 C 50.000 125.028,50.810 123.256,51.800 121.379 C 52.790 119.501,53.600 117.725,53.600 117.432 C 53.600 117.138,53.885 116.661,54.234 116.372 C 54.582 116.083,55.465 114.666,56.195 113.223 C 58.150 109.361,63.604 100.692,64.381 100.212 C 64.584 100.087,65.614 98.683,66.670 97.092 C 68.388 94.507,70.087 92.399,73.517 88.600 C 74.113 87.940,74.780 87.101,75.000 86.736 C 75.599 85.743,85.849 75.432,89.650 72.000 C 91.477 70.350,93.487 68.505,94.117 67.900 C 96.931 65.196,99.048 68.301,100.034 76.576 C 100.271 78.569,100.896 81.460,101.422 83.000 C 101.948 84.540,102.742 87.600,103.186 89.800 C 105.305 100.292,106.492 101.850,113.234 102.988 C 115.305 103.338,118.800 104.148,121.000 104.789 C 123.200 105.430,126.260 106.315,127.800 106.756 C 131.613 107.846,139.045 110.524,141.000 111.511 C 143.578 112.813,145.819 112.981,146.852 111.948 L 147.712 111.088 146.756 110.353 C 146.230 109.949,145.576 109.614,145.301 109.609 C 145.027 109.604,144.127 109.001,143.301 108.268 C 142.476 107.536,140.935 106.321,139.878 105.568 C 135.955 102.775,135.373 102.327,134.181 101.176 C 133.510 100.529,132.773 100.000,132.543 100.000 C 132.313 100.000,131.781 99.616,131.362 99.147 C 130.943 98.677,129.700 97.607,128.600 96.769 C 127.500 95.931,125.880 94.593,125.000 93.796 C 124.120 92.998,122.618 91.775,121.661 91.077 C 118.617 88.856,116.480 85.134,113.562 76.967 C 112.671 74.473,111.071 60.714,111.280 57.342 C 111.462 54.410,113.074 51.471,115.088 50.399 C 115.796 50.022,116.990 49.245,117.740 48.673 C 118.491 48.100,119.892 47.321,120.853 46.942 C 121.814 46.564,123.233 45.841,124.006 45.336 C 124.779 44.831,126.560 44.042,127.963 43.581 C 129.367 43.120,130.894 42.502,131.357 42.207 C 131.821 41.912,133.411 41.301,134.892 40.851 C 136.373 40.400,138.533 39.584,139.692 39.037 C 140.851 38.490,142.700 37.847,143.800 37.609 C 144.900 37.370,147.330 36.658,149.200 36.026 C 151.791 35.152,154.217 34.724,159.400 34.230 C 163.140 33.873,168.000 33.324,170.200 33.010 C 182.821 31.209,209.055 30.777,220.000 32.190 M19.601 106.998 C 19.086 107.548,18.575 107.909,18.468 107.801 C 18.202 107.535,19.621 106.000,20.132 106.000 C 20.356 106.000,20.117 106.449,19.601 106.998 M103.262 144.049 C 102.086 144.244,99.926 144.922,98.462 145.555 C 96.998 146.188,95.149 146.913,94.353 147.166 C 93.557 147.420,92.207 148.156,91.353 148.802 C 90.499 149.449,89.530 149.984,89.200 149.991 C 87.795 150.023,76.161 160.703,74.770 163.238 C 74.456 163.809,73.695 164.979,73.079 165.838 C 70.618 169.267,69.980 170.257,69.371 171.600 C 69.022 172.370,68.223 174.080,67.596 175.400 C 65.802 179.172,63.528 189.039,63.308 194.000 C 62.827 204.850,68.272 213.187,78.232 216.848 C 82.224 218.316,83.465 218.552,94.933 220.030 C 96.656 220.252,98.976 220.606,100.088 220.817 C 102.571 221.288,145.473 221.288,148.000 220.817 C 162.672 218.082,166.828 215.752,169.589 208.714 C 171.531 203.763,170.369 192.348,167.219 185.426 C 166.612 184.092,165.899 182.337,165.635 181.527 C 165.372 180.717,164.626 179.388,163.978 178.572 C 163.330 177.757,162.800 176.851,162.800 176.559 C 162.800 176.267,162.288 175.437,161.663 174.714 C 161.038 173.991,159.892 172.410,159.117 171.200 C 156.871 167.691,148.892 159.315,144.904 156.280 C 138.520 151.419,136.429 150.006,135.600 149.994 C 135.270 149.989,134.200 149.444,133.223 148.782 C 132.246 148.119,130.474 147.295,129.286 146.950 C 128.097 146.604,126.197 145.901,125.063 145.387 C 121.437 143.745,109.498 143.012,103.262 144.049 M282.000 144.255 C 279.419 144.728,270.408 147.896,268.822 148.888 C 267.844 149.500,266.835 150.000,266.581 150.000 C 265.944 150.000,260.909 153.230,259.200 154.735 C 258.430 155.413,256.720 156.853,255.400 157.935 C 254.080 159.017,251.486 161.590,249.636 163.651 C 247.786 165.713,245.874 167.760,245.387 168.200 C 244.900 168.640,244.031 169.720,243.455 170.600 C 242.879 171.480,242.102 172.650,241.727 173.200 C 237.537 179.347,235.187 184.130,233.352 190.244 L 231.806 195.400 231.803 202.800 L 231.800 210.200 233.150 212.898 C 234.770 216.137,236.585 217.864,240.254 219.658 L 243.000 221.000 278.400 221.000 L 313.800 221.000 318.868 219.693 C 328.319 217.255,333.524 213.440,336.729 206.600 C 338.917 201.931,338.876 187.324,336.657 181.360 C 334.065 174.392,331.837 169.909,329.371 166.705 C 328.507 165.582,327.151 163.929,326.357 163.032 C 325.564 162.134,324.844 161.193,324.757 160.939 C 324.275 159.526,312.452 150.000,311.180 150.000 C 310.785 150.000,309.920 149.544,309.258 148.987 C 308.566 148.405,305.705 147.189,302.527 146.126 L 297.000 144.278 290.000 144.175 C 286.150 144.118,282.550 144.154,282.000 144.255 M187.459 210.706 C 186.937 211.534,186.201 212.467,185.825 212.779 C 185.449 213.091,184.796 214.023,184.375 214.850 C 183.953 215.677,183.167 217.003,182.628 217.796 C 182.090 218.590,181.430 219.905,181.163 220.720 C 180.896 221.534,180.265 222.856,179.761 223.657 C 179.257 224.458,178.548 226.258,178.185 227.656 C 177.823 229.054,177.102 231.207,176.583 232.439 C 176.065 233.672,175.435 236.282,175.184 238.240 C 174.933 240.198,174.389 244.050,173.976 246.800 C 171.987 260.031,172.081 272.267,174.257 283.600 C 175.527 290.211,175.564 290.286,177.756 290.614 C 179.536 290.881,180.139 290.682,184.445 288.409 C 188.891 286.061,204.450 286.582,211.000 289.298 C 212.320 289.845,214.480 290.606,215.800 290.988 C 217.120 291.370,218.704 291.869,219.319 292.098 C 223.861 293.783,225.422 285.040,225.128 259.568 L 225.000 248.536 223.916 247.115 C 223.319 246.334,222.527 244.908,222.155 243.947 C 221.784 242.986,221.056 241.626,220.538 240.925 C 219.509 239.530,217.748 235.022,216.029 229.383 C 215.423 227.393,214.623 225.302,214.251 224.735 C 213.880 224.167,213.114 222.291,212.551 220.565 C 211.987 218.839,211.138 216.966,210.663 216.402 C 210.188 215.837,209.458 214.616,209.039 213.688 C 207.522 210.322,206.892 212.191,206.179 222.170 C 205.570 230.689,204.959 236.619,204.637 237.141 C 204.427 237.480,203.395 249.222,202.998 255.800 C 202.177 269.369,200.650 275.041,198.040 274.213 C 195.803 273.503,194.574 264.776,193.784 244.000 C 193.654 240.590,193.290 235.212,192.974 232.048 C 192.658 228.885,192.400 222.823,192.400 218.577 L 192.400 210.858 191.346 210.029 C 189.724 208.753,188.564 208.955,187.459 210.706 " stroke="none" fill="#ccc4bd" fill-rule="evenodd"></path></g></svg>