<svg id="svg" version="1.1" xmlns="http://www.w3.org/2000/svg" xmlns:xlink="http://www.w3.org/1999/xlink" width="400" height="400" viewBox="0, 0, 400,400"><g id="svgg"><path id="path0" d="M176.600 25.845 C 175.500 25.931,172.350 26.267,169.600 26.592 C 166.850 26.918,160.910 27.557,156.400 28.012 C 151.890 28.468,147.210 29.106,146.000 29.430 C 144.790 29.755,141.371 30.466,138.402 31.011 C 135.433 31.556,132.396 32.203,131.652 32.449 L 130.299 32.895 131.508 33.660 C 132.806 34.482,137.616 35.192,141.923 35.197 C 143.311 35.199,146.191 35.554,148.323 35.986 C 150.455 36.418,155.620 37.145,159.800 37.601 C 163.980 38.058,168.750 38.774,170.400 39.192 C 172.050 39.611,176.235 40.403,179.701 40.953 C 183.166 41.503,186.174 42.060,186.385 42.191 C 186.596 42.321,189.070 43.028,191.884 43.762 C 197.547 45.238,203.747 47.426,207.364 49.225 C 208.664 49.871,209.963 50.400,210.250 50.400 C 210.537 50.400,211.363 50.903,212.086 51.518 C 212.809 52.132,213.871 52.931,214.448 53.293 C 216.085 54.320,218.000 58.048,218.000 60.207 C 218.000 65.343,213.920 68.744,204.820 71.195 C 201.840 71.997,191.578 72.888,182.400 73.141 L 173.000 73.400 173.129 74.994 C 173.282 76.887,173.395 76.975,177.000 78.019 C 178.540 78.465,180.700 79.282,181.800 79.836 C 183.551 80.716,186.328 81.552,193.200 83.268 C 195.477 83.836,206.686 83.867,209.600 83.312 C 213.345 82.600,218.932 80.803,220.405 79.836 C 221.178 79.329,222.178 78.797,222.627 78.655 C 223.077 78.512,224.676 77.586,226.182 76.598 C 227.687 75.609,229.148 74.800,229.429 74.800 C 229.709 74.800,230.447 74.376,231.069 73.859 C 235.208 70.414,241.636 68.635,249.085 68.872 L 254.666 69.051 258.233 70.778 C 265.175 74.140,272.600 82.054,275.178 88.840 C 275.607 89.967,276.233 91.195,276.571 91.568 C 277.117 92.171,278.890 96.909,280.700 102.600 C 281.673 105.660,281.675 120.410,280.703 122.478 C 277.984 128.259,272.335 126.865,266.611 119.000 C 265.971 118.120,264.952 116.860,264.347 116.200 C 263.088 114.826,261.796 113.071,259.915 110.177 C 259.192 109.064,258.370 107.804,258.089 107.377 C 257.807 106.949,257.267 106.080,256.889 105.445 C 256.510 104.810,255.830 103.843,255.378 103.295 L 254.555 102.300 253.423 103.645 L 252.291 104.991 252.516 109.595 C 252.906 117.605,257.220 129.327,261.460 133.903 C 261.977 134.461,262.400 135.060,262.400 135.234 C 262.400 135.409,263.120 136.383,264.000 137.400 C 264.880 138.417,265.600 139.415,265.600 139.618 C 265.600 140.570,277.969 152.164,280.201 153.304 C 280.861 153.642,281.761 154.316,282.201 154.802 C 282.640 155.289,283.810 156.123,284.800 156.657 C 291.749 160.406,295.264 162.139,297.000 162.670 C 298.100 163.007,299.990 163.693,301.200 164.196 C 302.410 164.698,304.750 165.322,306.400 165.583 C 313.205 166.658,313.663 167.801,311.017 177.105 C 310.471 179.027,309.652 182.400,309.198 184.600 C 308.745 186.800,308.025 189.410,307.599 190.400 C 307.173 191.390,306.626 193.010,306.383 194.000 C 305.986 195.615,303.798 200.616,302.096 203.800 C 301.743 204.460,301.040 205.789,300.534 206.754 C 297.226 213.060,291.051 218.098,288.858 216.281 C 288.152 215.697,285.364 209.652,284.492 206.814 C 282.957 201.825,283.879 190.180,286.166 185.667 C 286.702 184.609,287.434 182.614,287.791 181.234 C 288.149 179.853,288.792 177.835,289.221 176.747 C 292.721 167.868,282.735 171.919,277.936 181.326 C 277.491 182.198,276.797 183.266,276.394 183.698 C 275.992 184.130,275.453 185.050,275.198 185.742 C 274.943 186.434,274.138 188.170,273.409 189.600 C 269.855 196.570,268.309 209.180,268.506 229.600 L 268.600 239.400 267.046 244.200 C 265.470 249.065,262.399 255.446,260.404 258.000 C 259.802 258.770,258.998 260.009,258.617 260.753 C 256.664 264.570,246.867 273.078,241.185 275.893 C 227.959 282.445,207.542 274.725,206.885 262.923 C 206.506 256.124,214.436 245.500,223.272 240.969 C 224.002 240.594,225.119 239.854,225.753 239.325 C 226.388 238.795,227.648 237.986,228.553 237.527 C 229.459 237.068,230.763 236.222,231.452 235.646 C 232.140 235.071,234.004 233.700,235.595 232.600 C 238.805 230.379,245.297 223.775,247.545 220.443 C 250.195 216.515,251.573 214.229,252.876 211.600 C 253.585 210.170,254.577 208.390,255.082 207.645 C 255.586 206.900,256.197 205.550,256.440 204.645 C 256.683 203.740,257.230 202.280,257.657 201.400 C 258.083 200.520,258.961 197.730,259.606 195.200 C 260.252 192.670,261.057 189.610,261.394 188.400 C 261.731 187.190,262.282 183.410,262.619 180.000 C 262.955 176.590,263.402 172.720,263.612 171.400 C 264.228 167.529,264.173 167.283,262.543 166.602 C 261.187 166.035,260.999 166.048,259.843 166.782 C 259.159 167.216,257.599 168.103,256.376 168.753 C 255.153 169.403,253.905 170.233,253.603 170.597 C 253.301 170.961,252.399 171.592,251.600 172.000 C 250.801 172.408,249.891 173.049,249.579 173.425 C 249.267 173.802,248.227 174.446,247.268 174.857 C 246.309 175.268,244.871 176.143,244.071 176.802 C 243.272 177.461,242.451 178.000,242.247 178.000 C 242.043 178.000,241.252 178.475,240.490 179.056 C 238.403 180.649,228.316 186.124,224.400 187.791 C 223.410 188.212,222.150 188.856,221.600 189.222 C 221.050 189.588,219.610 190.203,218.400 190.588 C 217.190 190.974,215.210 191.716,214.000 192.236 C 206.757 195.353,190.616 197.364,184.993 195.849 C 180.577 194.660,174.620 192.865,172.314 192.029 C 164.738 189.282,144.355 188.877,132.000 191.227 C 129.575 191.688,119.635 194.734,119.000 195.211 C 118.780 195.376,117.280 196.069,115.667 196.752 C 114.054 197.434,112.243 198.342,111.643 198.770 C 111.042 199.197,110.050 199.673,109.437 199.827 C 108.824 199.980,107.568 200.667,106.647 201.353 C 105.725 202.039,104.348 202.922,103.586 203.316 C 102.823 203.710,101.539 204.610,100.731 205.316 C 99.923 206.022,98.213 207.353,96.931 208.273 C 94.096 210.309,85.465 218.969,83.251 222.000 C 82.367 223.210,80.824 225.294,79.822 226.632 C 78.820 227.970,78.000 229.250,78.000 229.476 C 78.000 229.702,77.372 230.678,76.604 231.644 C 75.836 232.610,75.209 233.580,75.210 233.800 C 75.212 234.020,74.501 235.640,73.631 237.400 C 64.231 256.418,61.581 281.146,66.943 299.800 C 67.259 300.900,67.971 303.420,68.526 305.400 C 69.081 307.380,70.089 310.170,70.767 311.600 C 71.445 313.030,72.000 314.453,72.000 314.762 C 72.000 315.070,72.599 316.420,73.331 317.762 C 74.063 319.103,74.900 320.960,75.191 321.890 C 75.483 322.819,76.039 323.920,76.427 324.337 C 76.816 324.754,77.607 325.974,78.187 327.047 C 79.159 328.849,80.219 330.513,83.400 335.233 C 89.032 343.589,100.479 354.588,108.337 359.196 C 109.512 359.885,111.204 360.978,112.097 361.624 C 112.990 362.271,113.932 362.800,114.191 362.800 C 114.451 362.800,115.459 363.318,116.431 363.950 C 117.404 364.583,119.460 365.494,121.000 365.974 C 122.540 366.455,124.292 367.116,124.894 367.443 C 126.867 368.516,141.375 371.098,147.000 371.377 C 154.497 371.749,190.251 370.950,197.800 370.242 C 201.320 369.912,208.250 369.346,213.200 368.983 C 218.150 368.620,223.640 368.069,225.400 367.758 C 227.160 367.447,232.020 366.740,236.200 366.187 C 240.380 365.634,245.420 364.752,247.400 364.228 C 249.380 363.704,252.710 362.975,254.800 362.607 C 256.890 362.239,259.860 361.512,261.400 360.992 C 262.940 360.472,265.910 359.654,268.000 359.175 C 270.090 358.696,271.980 358.165,272.200 357.995 C 272.420 357.825,274.130 357.207,276.000 356.621 C 277.870 356.034,279.961 355.225,280.647 354.822 C 281.332 354.420,283.032 353.686,284.424 353.192 C 285.816 352.697,287.667 351.777,288.537 351.147 C 289.408 350.516,290.318 349.996,290.560 349.991 C 290.802 349.986,291.433 349.649,291.963 349.242 L 292.926 348.501 291.781 347.751 C 290.738 347.067,289.365 346.975,276.418 346.715 C 240.044 345.986,238.235 345.747,233.904 341.089 C 229.694 336.562,231.951 330.648,238.812 328.228 C 240.015 327.804,241.810 327.053,242.800 326.560 C 243.790 326.067,246.130 325.376,248.000 325.023 C 249.870 324.671,252.660 324.038,254.200 323.616 C 258.679 322.391,272.854 320.878,286.200 320.199 C 294.347 319.784,306.858 318.410,309.800 317.607 C 311.340 317.186,314.310 316.447,316.400 315.963 C 318.490 315.480,321.010 314.685,322.000 314.197 C 322.990 313.709,324.520 313.076,325.400 312.792 C 328.502 311.788,338.326 306.328,341.000 304.122 C 346.588 299.511,349.775 296.704,350.410 295.835 C 350.746 295.376,351.884 294.100,352.939 293.000 C 355.320 290.520,358.130 286.887,359.030 285.128 C 359.404 284.398,360.201 283.170,360.803 282.400 C 361.404 281.630,362.392 280.010,362.999 278.800 C 363.606 277.590,364.416 276.150,364.799 275.600 C 365.182 275.050,365.630 274.150,365.795 273.600 C 365.960 273.050,367.424 269.873,369.048 266.541 C 370.671 263.208,372.000 260.297,372.000 260.072 C 372.000 259.847,372.540 258.075,373.200 256.134 C 374.962 250.953,374.709 248.669,372.499 249.822 C 371.895 250.137,371.195 250.396,370.943 250.398 C 370.692 250.399,369.308 251.615,367.867 253.100 C 366.426 254.585,364.233 256.610,362.993 257.600 C 361.753 258.590,359.988 260.036,359.070 260.813 C 355.891 263.503,351.346 266.431,347.200 268.460 C 345.770 269.160,344.143 270.048,343.584 270.434 C 343.025 270.819,341.418 271.522,340.012 271.996 C 338.607 272.469,336.814 273.183,336.029 273.582 C 335.243 273.981,333.430 274.606,332.000 274.971 C 330.570 275.336,328.460 276.064,327.312 276.589 C 326.163 277.115,323.855 277.921,322.182 278.379 C 320.510 278.838,318.480 279.545,317.671 279.951 C 316.862 280.356,314.850 281.008,313.200 281.399 C 311.550 281.791,309.714 282.356,309.120 282.656 C 308.526 282.955,307.200 283.200,306.174 283.200 L 304.308 283.200 304.954 282.214 C 305.309 281.672,305.600 280.923,305.600 280.549 C 305.600 280.176,306.905 278.175,308.500 276.103 C 310.095 274.031,311.850 271.743,312.400 271.019 C 314.030 268.872,319.117 263.210,322.163 260.150 C 328.409 253.877,340.943 240.736,342.168 239.177 C 344.162 236.638,348.632 231.602,348.892 231.601 C 349.052 231.600,349.534 230.913,349.963 230.073 C 350.391 229.234,351.043 228.296,351.411 227.991 C 352.420 227.153,357.417 219.693,359.040 216.600 C 359.617 215.500,360.526 214.018,361.060 213.306 C 361.594 212.595,362.290 211.278,362.607 210.380 C 362.924 209.482,363.547 208.237,363.991 207.613 C 365.372 205.673,367.632 198.851,368.832 193.000 C 369.464 189.920,370.298 186.050,370.687 184.400 C 371.826 179.560,371.706 160.550,370.499 154.800 C 370.014 152.490,369.334 148.652,368.988 146.272 C 368.642 143.891,368.174 141.461,367.948 140.872 C 367.722 140.282,366.913 137.461,366.150 134.602 C 365.387 131.743,364.529 129.043,364.243 128.602 C 363.957 128.161,363.311 126.540,362.807 125.000 C 362.303 123.460,361.471 121.474,360.958 120.587 C 360.445 119.700,359.774 118.260,359.465 117.387 C 358.614 114.976,355.572 108.729,354.700 107.600 C 354.275 107.050,353.669 105.981,353.353 105.225 C 353.037 104.469,352.153 102.908,351.389 101.757 C 350.625 100.606,350.000 99.394,350.000 99.063 C 350.000 98.732,349.581 97.953,349.070 97.331 C 348.558 96.709,347.555 95.165,346.841 93.900 C 346.126 92.635,345.394 91.600,345.215 91.600 C 345.035 91.600,344.524 90.825,344.078 89.878 C 343.633 88.930,342.981 87.916,342.630 87.625 C 342.278 87.333,341.653 86.353,341.240 85.447 C 340.827 84.541,339.924 83.199,339.234 82.464 C 338.544 81.730,337.632 80.446,337.206 79.612 C 336.760 78.737,336.044 77.997,335.516 77.865 C 335.012 77.738,334.259 77.002,333.843 76.229 C 332.253 73.276,331.731 75.890,333.238 79.255 C 333.865 80.655,334.383 82.132,334.389 82.538 C 334.395 82.944,335.009 84.564,335.753 86.138 C 337.839 90.549,339.569 95.030,340.797 99.200 C 341.412 101.290,342.186 103.630,342.516 104.400 C 342.846 105.170,343.419 107.330,343.788 109.200 C 344.158 111.070,344.796 113.770,345.207 115.200 C 348.043 125.076,347.467 137.096,343.983 140.722 C 341.979 142.808,341.545 142.604,340.438 139.052 C 340.017 137.703,339.324 135.790,338.897 134.800 C 338.471 133.810,337.889 132.010,337.606 130.800 C 337.322 129.590,336.646 127.713,336.103 126.629 C 335.559 125.545,334.849 123.745,334.523 122.629 C 333.820 120.219,331.834 115.573,329.379 110.592 C 328.400 108.607,327.600 106.874,327.600 106.740 C 327.600 106.606,326.970 105.451,326.200 104.172 C 325.430 102.893,324.800 101.544,324.800 101.173 C 324.800 100.802,324.515 100.262,324.167 99.973 C 323.819 99.684,322.986 98.357,322.314 97.024 C 321.643 95.691,320.713 94.115,320.247 93.522 C 319.781 92.929,318.500 90.970,317.400 89.168 C 316.300 87.367,314.853 85.242,314.184 84.447 C 313.515 83.651,312.705 82.617,312.384 82.149 C 309.562 78.033,302.512 69.714,300.874 68.567 C 300.393 68.230,300.000 67.695,300.000 67.377 C 300.000 67.060,299.864 66.800,299.697 66.800 C 299.531 66.800,297.866 65.344,295.997 63.563 C 292.111 59.861,283.096 52.617,280.238 50.899 C 279.598 50.514,277.931 49.435,276.534 48.500 C 275.136 47.565,273.849 46.800,273.674 46.800 C 273.499 46.800,272.735 46.334,271.978 45.765 C 271.220 45.196,269.616 44.289,268.414 43.749 C 267.211 43.209,265.951 42.534,265.614 42.248 C 265.276 41.962,263.830 41.309,262.400 40.796 C 260.970 40.283,259.347 39.552,258.794 39.171 C 258.240 38.791,256.372 38.017,254.642 37.452 C 252.912 36.887,251.088 36.157,250.589 35.829 C 250.089 35.502,247.829 34.765,245.566 34.191 C 243.302 33.618,241.101 32.961,240.675 32.733 C 240.248 32.505,237.447 31.801,234.450 31.169 C 231.452 30.537,228.074 29.760,226.942 29.443 C 225.811 29.127,222.391 28.574,219.342 28.216 C 216.294 27.859,210.830 27.196,207.200 26.745 C 200.870 25.958,182.198 25.409,176.600 25.845 M119.200 46.836 C 115.490 47.157,114.199 47.480,111.789 48.693 C 110.915 49.132,109.480 49.718,108.600 49.995 C 107.720 50.272,106.460 50.900,105.800 51.390 C 105.140 51.880,103.970 52.603,103.200 52.995 C 102.430 53.388,101.140 54.269,100.334 54.955 C 99.527 55.640,97.997 56.830,96.934 57.600 C 94.451 59.398,84.628 69.213,82.800 71.722 C 82.030 72.779,80.770 74.418,80.000 75.364 C 77.703 78.186,74.739 83.119,72.168 88.400 C 71.365 90.050,70.481 91.670,70.205 92.000 C 69.930 92.330,69.217 94.130,68.623 96.000 C 68.028 97.870,67.351 99.793,67.118 100.273 C 65.971 102.634,69.133 103.279,71.585 101.184 C 72.347 100.533,73.174 100.000,73.423 100.000 C 73.672 100.000,74.219 99.618,74.638 99.152 C 75.057 98.686,76.300 97.704,77.400 96.971 C 78.500 96.238,80.480 94.826,81.800 93.834 C 83.120 92.843,84.740 91.732,85.400 91.366 C 86.060 91.000,87.770 89.938,89.200 89.005 C 94.978 85.237,96.656 86.127,97.438 93.373 C 98.146 99.930,100.076 105.600,101.600 105.600 C 101.788 105.600,102.522 104.565,103.233 103.300 C 103.943 102.035,104.750 100.730,105.026 100.400 C 105.303 100.070,106.604 97.716,107.918 95.168 C 113.375 84.591,119.284 79.239,126.200 78.609 C 141.784 77.191,147.664 71.607,144.852 60.897 C 143.653 56.330,138.762 50.000,136.433 50.000 C 136.036 50.000,135.039 49.543,134.216 48.985 C 131.523 47.158,125.485 46.294,119.200 46.836 M214.800 94.734 C 211.867 95.571,209.250 97.362,206.200 100.621 C 204.440 102.501,202.066 105.037,200.925 106.256 C 197.350 110.075,193.470 109.443,184.882 103.641 C 183.057 102.409,180.711 100.950,179.668 100.400 C 178.625 99.850,177.062 98.950,176.193 98.400 C 173.799 96.884,167.325 94.929,165.328 95.119 C 162.209 95.417,162.424 99.145,165.610 100.003 C 167.559 100.528,169.766 102.214,173.720 106.200 C 177.170 109.678,178.139 110.862,184.190 118.991 C 193.364 131.314,200.513 134.709,212.009 132.204 C 217.716 130.960,222.421 128.993,226.365 126.200 C 229.705 123.836,230.853 122.651,232.514 119.855 L 234.200 117.018 234.200 112.209 C 234.200 100.883,224.348 92.009,214.800 94.734 " stroke="none" fill="#070605" fill-rule="evenodd"></path><path id="path1" d="M158.400 0.762 C 158.400 1.471,157.991 1.535,152.661 1.662 C 146.499 1.810,145.600 2.088,145.600 3.849 C 145.600 4.792,145.562 4.800,141.280 4.800 C 136.589 4.800,136.000 5.030,136.000 6.867 L 136.000 7.974 131.500 8.087 L 127.000 8.200 126.875 9.500 C 126.755 10.739,126.671 10.800,125.075 10.804 C 121.294 10.814,120.400 11.168,120.400 12.652 L 120.400 14.000 117.649 14.000 C 114.373 14.000,112.124 14.822,111.596 16.211 C 111.302 16.984,110.934 17.200,109.910 17.202 C 107.261 17.207,105.591 17.945,105.335 19.223 C 105.118 20.310,104.967 20.400,103.350 20.400 L 101.600 20.400 101.600 22.000 L 101.600 23.600 98.643 23.600 C 95.562 23.600,95.200 23.810,95.200 25.595 C 95.200 26.202,94.716 26.381,92.300 26.662 C 89.413 26.998,89.399 27.006,89.276 28.277 C 89.164 29.434,89.013 29.566,87.676 29.677 C 86.285 29.793,86.193 29.886,86.076 31.300 L 85.952 32.800 84.002 32.800 C 81.223 32.800,80.084 33.326,79.929 34.679 C 79.816 35.658,79.610 35.816,78.300 35.924 C 77.026 36.030,76.800 36.190,76.800 36.991 C 76.800 38.703,76.386 39.200,74.957 39.200 C 73.640 39.200,73.600 39.248,73.600 40.800 L 73.600 42.400 71.374 42.400 C 68.687 42.400,67.600 42.910,67.600 44.171 C 67.600 45.167,66.936 45.600,65.412 45.600 C 64.677 45.600,64.436 45.880,64.231 46.976 C 64.008 48.163,63.799 48.368,62.701 48.476 C 61.619 48.581,61.388 48.798,61.160 49.920 C 60.833 51.537,60.858 51.512,59.393 51.705 C 58.347 51.843,58.185 52.041,58.077 53.309 C 57.962 54.660,57.858 54.762,56.477 54.877 C 55.089 54.993,54.993 55.089,54.877 56.477 C 54.763 57.857,54.659 57.963,53.315 58.077 C 52.125 58.179,51.850 58.374,51.733 59.200 C 51.487 60.926,51.258 61.200,50.055 61.200 C 48.870 61.200,48.400 61.772,48.400 63.215 C 48.400 63.752,48.010 64.037,47.022 64.222 C 45.838 64.444,45.627 64.657,45.522 65.733 C 45.426 66.719,45.145 67.071,44.200 67.388 C 42.557 67.938,42.413 68.235,42.406 71.100 L 42.400 73.600 40.800 73.600 C 39.248 73.600,39.200 73.640,39.200 74.957 C 39.200 76.386,38.703 76.800,36.991 76.800 C 36.190 76.800,36.030 77.026,35.924 78.300 C 35.812 79.658,35.681 79.812,34.541 79.922 C 33.089 80.063,32.814 80.690,32.805 83.876 L 32.800 85.952 31.300 86.076 C 29.886 86.193,29.793 86.285,29.677 87.676 C 29.566 89.013,29.434 89.164,28.277 89.276 C 27.006 89.399,26.998 89.413,26.662 92.300 C 26.381 94.716,26.202 95.200,25.595 95.200 C 24.044 95.200,23.600 95.655,23.600 97.243 C 23.600 98.305,23.423 98.800,23.044 98.800 C 21.715 98.800,20.764 100.183,20.529 102.457 C 20.312 104.566,20.215 104.737,19.048 105.068 C 17.849 105.408,17.785 105.536,17.432 108.311 C 17.100 110.913,16.976 111.200,16.181 111.200 C 14.879 111.200,14.469 111.942,14.173 114.837 C 13.938 117.129,13.774 117.515,12.795 118.077 C 11.549 118.792,10.800 121.313,10.800 124.794 C 10.800 126.708,10.772 126.752,9.500 126.875 L 8.200 127.000 8.087 131.477 L 7.974 135.953 6.487 136.077 L 5.000 136.200 4.887 140.900 L 4.775 145.600 3.577 145.600 C 1.892 145.600,1.600 146.665,1.600 152.826 C 1.600 157.733,1.559 158.000,0.800 158.000 C 0.005 158.000,0.000 158.267,0.000 200.000 C 0.000 241.733,0.005 242.000,0.800 242.000 C 1.559 242.000,1.600 242.267,1.600 247.174 C 1.600 253.335,1.892 254.400,3.577 254.400 L 4.775 254.400 4.887 259.100 L 5.000 263.800 6.487 263.923 L 7.974 264.047 8.087 268.499 L 8.200 272.951 9.500 273.287 C 10.720 273.602,10.800 273.732,10.800 275.392 C 10.800 278.696,11.571 281.221,12.795 281.923 C 13.774 282.485,13.938 282.871,14.173 285.163 C 14.469 288.058,14.879 288.800,16.181 288.800 C 16.976 288.800,17.100 289.087,17.432 291.689 C 17.785 294.464,17.849 294.592,19.048 294.932 C 20.215 295.263,20.312 295.434,20.529 297.543 C 20.764 299.817,21.715 301.200,23.044 301.200 C 23.423 301.200,23.600 301.695,23.600 302.757 C 23.600 304.345,24.044 304.800,25.595 304.800 C 26.202 304.800,26.381 305.284,26.662 307.700 C 26.998 310.587,27.006 310.601,28.277 310.724 C 29.433 310.836,29.566 310.987,29.677 312.320 C 29.765 313.375,30.009 313.833,30.536 313.933 C 31.769 314.167,32.800 315.515,32.805 316.900 C 32.814 318.944,33.226 320.000,34.014 320.000 C 35.481 320.000,36.000 320.470,36.000 321.800 C 36.000 323.188,36.511 323.600,38.233 323.600 C 39.072 323.600,39.200 323.786,39.200 325.000 C 39.200 325.770,39.368 326.400,39.573 326.400 C 39.778 326.400,40.064 326.771,40.208 327.224 C 40.352 327.678,40.895 328.243,41.414 328.479 C 42.142 328.811,42.387 329.280,42.480 330.524 C 42.584 331.918,42.763 332.191,43.800 332.529 C 45.190 332.982,45.585 333.456,45.594 334.682 C 45.599 335.371,45.906 335.621,47.000 335.826 C 48.194 336.050,48.400 336.250,48.400 337.180 C 48.400 338.266,49.611 339.200,51.019 339.200 C 51.338 339.200,51.600 339.545,51.600 339.967 C 51.600 341.497,52.056 342.000,53.443 342.000 C 54.760 342.000,54.800 342.048,54.800 343.600 C 54.800 345.196,54.804 345.200,56.376 345.200 C 57.908 345.200,57.955 345.242,58.076 346.700 C 58.188 348.051,58.322 348.212,59.434 348.320 C 60.489 348.423,60.722 348.656,61.034 349.920 C 61.352 351.206,61.571 351.416,62.700 351.525 C 63.654 351.617,64.000 351.848,64.000 352.393 C 64.000 353.794,64.480 354.379,65.839 354.634 C 66.880 354.829,67.201 355.090,67.206 355.745 C 67.215 357.032,67.653 357.458,69.274 357.756 C 70.381 357.959,70.779 358.245,70.874 358.903 C 71.036 360.029,72.554 360.787,74.665 360.794 C 76.294 360.800,76.335 360.834,76.600 362.400 C 76.852 363.889,76.962 364.000,78.191 364.000 C 79.376 364.000,79.537 364.139,79.766 365.361 C 80.029 366.763,80.600 367.200,82.169 367.200 C 82.741 367.200,83.237 367.562,83.522 368.189 C 84.025 369.293,86.292 370.400,88.049 370.400 C 89.090 370.400,89.200 370.529,89.200 371.753 C 89.200 373.320,89.758 373.586,93.075 373.595 C 95.122 373.600,95.151 373.617,95.275 374.900 C 95.389 376.089,95.529 376.211,96.915 376.325 C 98.236 376.434,98.461 376.603,98.668 377.639 C 98.974 379.171,99.829 379.600,102.574 379.600 C 104.775 379.600,104.800 379.613,104.800 380.786 C 104.800 382.335,105.718 382.800,108.774 382.800 L 111.200 382.800 111.200 384.150 C 111.200 385.661,111.980 386.000,115.460 386.000 C 117.087 386.000,117.238 386.089,117.455 387.174 C 117.755 388.673,118.181 388.823,122.900 389.093 L 126.800 389.316 126.800 390.658 L 126.800 392.000 129.992 392.000 C 133.099 392.000,133.192 392.028,133.447 393.043 C 133.851 394.656,135.691 395.200,140.744 395.200 C 145.346 395.200,145.600 395.304,145.600 397.190 C 145.600 398.249,146.353 398.400,151.633 398.400 C 156.133 398.400,156.400 398.445,156.400 399.200 C 156.400 399.995,156.667 400.000,199.200 400.000 C 241.733 400.000,242.000 399.995,242.000 399.200 C 242.000 398.438,242.267 398.400,247.567 398.400 C 253.659 398.400,254.400 398.269,254.400 397.190 C 254.400 395.304,254.654 395.200,259.253 395.200 C 263.413 395.200,263.636 395.157,263.964 394.300 C 264.682 392.421,265.589 392.040,269.503 391.968 L 273.182 391.901 273.436 390.551 L 273.689 389.200 276.098 389.200 C 279.518 389.200,281.637 388.487,282.135 387.168 C 282.503 386.193,282.777 386.080,285.351 385.841 C 288.254 385.571,288.783 385.242,288.794 383.700 C 288.799 382.882,288.992 382.799,290.900 382.794 C 293.551 382.787,294.963 382.102,295.121 380.744 C 295.232 379.797,295.439 379.687,297.521 379.473 C 299.817 379.236,301.200 378.290,301.200 376.956 C 301.200 376.577,301.695 376.400,302.757 376.400 C 304.355 376.400,304.800 375.957,304.800 374.367 C 304.800 373.724,305.108 373.594,306.700 373.560 C 309.821 373.495,310.583 373.144,310.724 371.707 C 310.835 370.568,310.991 370.434,312.324 370.323 C 313.715 370.207,313.807 370.114,313.924 368.700 L 314.048 367.200 316.124 367.195 C 319.297 367.186,319.889 366.919,320.181 365.363 C 320.411 364.135,320.569 364.000,321.775 364.000 C 323.190 364.000,323.600 363.498,323.600 361.767 C 323.600 360.928,323.786 360.800,325.000 360.800 C 326.322 360.800,326.400 360.725,326.400 359.457 C 326.400 358.114,326.401 358.114,328.733 357.870 C 331.868 357.542,332.308 357.327,332.605 355.979 C 332.807 355.059,333.133 354.774,334.219 354.570 C 335.376 354.353,335.618 354.112,335.834 352.957 C 336.012 352.012,336.318 351.585,336.845 351.550 C 337.260 351.523,337.825 351.478,338.100 351.450 C 338.375 351.423,338.764 350.734,338.966 349.920 C 339.278 348.656,339.511 348.423,340.566 348.320 C 341.674 348.212,341.813 348.049,341.923 346.723 C 342.038 345.335,342.135 345.238,343.523 345.123 C 344.911 345.007,345.007 344.911,345.123 343.523 C 345.238 342.135,345.335 342.038,346.723 341.923 C 348.056 341.812,348.212 341.677,348.322 340.540 C 348.427 339.464,348.639 339.244,349.784 339.029 C 351.124 338.778,351.600 338.190,351.600 336.785 C 351.600 336.246,351.992 335.963,353.000 335.774 C 354.079 335.571,354.401 335.315,354.406 334.655 C 354.415 333.441,354.851 332.903,356.075 332.596 C 357.336 332.279,357.547 331.825,357.870 328.733 C 358.114 326.401,358.114 326.400,359.457 326.400 C 360.725 326.400,360.800 326.322,360.800 325.000 C 360.800 323.741,360.911 323.599,361.900 323.594 C 363.476 323.585,363.917 323.178,364.067 321.597 C 364.185 320.357,364.341 320.186,365.459 320.078 C 366.911 319.937,367.186 319.310,367.195 316.124 L 367.200 314.048 368.700 313.924 C 370.119 313.807,370.207 313.719,370.324 312.300 C 370.436 310.943,370.558 310.800,371.601 310.800 C 373.060 310.800,373.175 310.592,373.471 307.416 C 373.672 305.270,373.843 304.800,374.425 304.800 C 375.953 304.800,376.400 304.339,376.400 302.765 C 376.400 301.428,376.544 301.179,377.443 300.953 C 378.648 300.651,379.600 298.761,379.600 296.671 C 379.600 295.485,379.763 295.269,380.899 294.943 C 382.303 294.541,382.662 293.697,382.753 290.583 C 382.796 289.119,382.923 288.929,384.100 288.583 C 385.358 288.212,385.412 288.108,385.764 285.335 C 386.071 282.915,386.272 282.405,387.053 282.049 C 388.348 281.459,389.200 279.141,389.200 276.209 C 389.200 273.739,389.212 273.712,390.500 273.344 L 391.800 272.971 391.913 268.486 L 392.026 264.000 393.133 264.000 C 394.970 264.000,395.200 263.411,395.200 258.720 L 395.200 254.400 396.410 254.400 C 398.110 254.400,398.400 253.348,398.400 247.174 C 398.400 242.267,398.441 242.000,399.200 242.000 C 399.995 242.000,400.000 241.733,400.000 200.000 C 400.000 158.267,399.995 158.000,399.200 158.000 C 398.441 158.000,398.400 157.733,398.400 152.826 C 398.400 146.652,398.110 145.600,396.410 145.600 L 395.200 145.600 395.200 141.280 C 395.200 136.589,394.970 136.000,393.133 136.000 L 392.026 136.000 391.913 131.500 L 391.800 127.000 390.500 126.875 L 389.200 126.749 389.200 124.321 C 389.200 121.024,388.485 118.811,387.176 118.061 C 386.260 117.535,386.071 117.076,385.760 114.627 C 385.416 111.929,385.344 111.783,384.160 111.434 C 382.978 111.085,382.904 110.939,382.560 108.245 C 382.212 105.514,382.158 105.410,380.900 105.053 C 379.762 104.730,379.600 104.516,379.600 103.329 C 379.600 101.239,378.648 99.349,377.443 99.047 C 376.544 98.821,376.400 98.572,376.400 97.235 C 376.400 95.661,375.953 95.200,374.425 95.200 C 373.843 95.200,373.672 94.730,373.471 92.584 C 373.175 89.408,373.060 89.200,371.601 89.200 C 370.558 89.200,370.436 89.057,370.324 87.700 C 370.207 86.281,370.119 86.193,368.700 86.076 L 367.200 85.952 367.200 84.002 C 367.200 81.223,366.674 80.084,365.321 79.929 C 364.342 79.816,364.184 79.610,364.076 78.300 C 363.970 77.026,363.810 76.800,363.009 76.800 C 361.297 76.800,360.800 76.386,360.800 74.957 C 360.800 74.211,360.665 73.621,360.500 73.647 C 358.518 73.960,358.114 73.618,357.888 71.434 C 357.600 68.643,357.031 67.600,355.794 67.600 C 355.051 67.600,354.757 67.334,354.574 66.500 C 354.157 64.598,354.096 64.519,352.834 64.267 C 351.892 64.078,351.599 63.805,351.594 63.110 C 351.585 61.775,351.142 61.289,349.799 61.136 C 348.769 61.019,348.572 60.803,348.400 59.600 C 348.217 58.318,348.076 58.190,346.723 58.077 C 345.335 57.962,345.238 57.865,345.123 56.477 C 345.007 55.089,344.911 54.993,343.523 54.877 C 342.135 54.762,342.038 54.665,341.923 53.277 C 341.811 51.937,341.681 51.788,340.514 51.676 C 339.399 51.568,339.193 51.367,338.969 50.173 C 338.739 48.948,338.540 48.768,337.177 48.550 C 335.814 48.332,335.630 48.165,335.522 47.052 C 335.411 45.917,335.258 45.788,333.880 45.675 C 332.708 45.578,332.278 45.331,331.998 44.594 C 331.539 43.386,329.660 42.400,327.820 42.400 C 326.430 42.400,326.400 42.366,326.400 40.800 C 326.400 39.238,326.367 39.200,325.000 39.200 C 323.852 39.200,323.600 39.051,323.600 38.374 C 323.600 36.798,322.856 36.000,321.386 36.000 C 320.193 36.000,320.000 35.867,320.000 35.049 C 320.000 33.684,319.244 33.234,316.459 32.943 C 314.004 32.686,314.000 32.684,314.000 31.386 C 314.000 30.024,313.482 29.600,311.817 29.600 C 311.120 29.600,310.843 29.315,310.662 28.411 C 310.410 27.152,310.186 27.049,306.741 26.603 C 305.002 26.379,304.865 26.274,304.623 24.982 L 304.364 23.600 301.406 23.600 L 298.448 23.600 298.324 22.100 L 298.200 20.600 295.123 20.484 L 292.046 20.367 291.923 18.884 L 291.800 17.400 288.900 17.282 C 286.030 17.166,286.000 17.154,286.000 16.062 C 286.000 14.380,285.321 14.000,282.320 14.000 L 279.600 14.000 279.600 12.824 C 279.600 11.331,279.481 11.269,276.050 10.950 C 273.680 10.730,273.200 10.565,273.200 9.971 C 273.200 8.396,272.149 8.000,267.971 8.000 C 264.033 8.000,264.000 7.992,264.000 7.029 C 264.000 5.171,263.110 4.800,258.659 4.800 L 254.575 4.800 254.134 3.632 C 253.535 2.044,251.755 1.605,245.900 1.602 C 241.467 1.600,241.200 1.554,241.200 0.800 C 241.200 0.005,240.933 0.000,199.800 0.000 C 159.345 0.000,158.400 0.017,158.400 0.762 M207.200 26.745 C 210.830 27.196,216.294 27.859,219.342 28.216 C 222.391 28.574,225.811 29.127,226.942 29.443 C 228.074 29.760,231.452 30.537,234.450 31.169 C 237.447 31.801,240.248 32.505,240.675 32.733 C 241.101 32.961,243.302 33.618,245.566 34.191 C 247.829 34.765,250.089 35.502,250.589 35.829 C 251.088 36.157,252.912 36.887,254.642 37.452 C 256.372 38.017,258.240 38.791,258.794 39.171 C 259.347 39.552,260.970 40.283,262.400 40.796 C 263.830 41.309,265.276 41.962,265.614 42.248 C 265.951 42.534,267.211 43.209,268.414 43.749 C 269.616 44.289,271.220 45.196,271.978 45.765 C 272.735 46.334,273.499 46.800,273.674 46.800 C 273.849 46.800,275.136 47.565,276.534 48.500 C 277.931 49.435,279.598 50.514,280.238 50.899 C 283.096 52.617,292.111 59.861,295.997 63.563 C 297.866 65.344,299.531 66.800,299.697 66.800 C 299.864 66.800,300.000 67.060,300.000 67.377 C 300.000 67.695,300.393 68.230,300.874 68.567 C 302.512 69.714,309.562 78.033,312.384 82.149 C 312.705 82.617,313.515 83.651,314.184 84.447 C 314.853 85.242,316.300 87.367,317.400 89.168 C 318.500 90.970,319.781 92.929,320.247 93.522 C 320.713 94.115,321.643 95.691,322.314 97.024 C 322.986 98.357,323.819 99.684,324.167 99.973 C 324.515 100.262,324.800 100.802,324.800 101.173 C 324.800 101.544,325.430 102.893,326.200 104.172 C 326.970 105.451,327.600 106.606,327.600 106.740 C 327.600 106.874,328.400 108.607,329.379 110.592 C 331.834 115.573,333.820 120.219,334.523 122.629 C 334.849 123.745,335.559 125.545,336.103 126.629 C 336.646 127.713,337.322 129.590,337.606 130.800 C 337.889 132.010,338.471 133.810,338.897 134.800 C 339.324 135.790,340.017 137.703,340.438 139.052 C 341.545 142.604,341.979 142.808,343.983 140.722 C 347.467 137.096,348.043 125.076,345.207 115.200 C 344.796 113.770,344.158 111.070,343.788 109.200 C 343.419 107.330,342.846 105.170,342.516 104.400 C 342.186 103.630,341.412 101.290,340.797 99.200 C 339.569 95.030,337.839 90.549,335.753 86.138 C 335.009 84.564,334.395 82.944,334.389 82.538 C 334.383 82.132,333.865 80.655,333.238 79.255 C 331.731 75.890,332.253 73.276,333.843 76.229 C 334.259 77.002,335.012 77.738,335.516 77.865 C 336.044 77.997,336.760 78.737,337.206 79.612 C 337.632 80.446,338.544 81.730,339.234 82.464 C 339.924 83.199,340.827 84.541,341.240 85.447 C 341.653 86.353,342.278 87.333,342.630 87.625 C 342.981 87.916,343.633 88.930,344.078 89.878 C 344.524 90.825,345.035 91.600,345.215 91.600 C 345.394 91.600,346.126 92.635,346.841 93.900 C 347.555 95.165,348.558 96.709,349.070 97.331 C 349.581 97.953,350.000 98.732,350.000 99.063 C 350.000 99.394,350.625 100.606,351.389 101.757 C 352.153 102.908,353.037 104.469,353.353 105.225 C 353.669 105.981,354.275 107.050,354.700 107.600 C 355.572 108.729,358.614 114.976,359.465 117.387 C 359.774 118.260,360.445 119.700,360.958 120.587 C 361.471 121.474,362.303 123.460,362.807 125.000 C 363.311 126.540,363.957 128.161,364.243 128.602 C 364.529 129.043,365.387 131.743,366.150 134.602 C 366.913 137.461,367.722 140.282,367.948 140.872 C 368.174 141.461,368.642 143.891,368.988 146.272 C 369.334 148.652,370.014 152.490,370.499 154.800 C 371.706 160.550,371.826 179.560,370.687 184.400 C 370.298 186.050,369.464 189.920,368.832 193.000 C 367.632 198.851,365.372 205.673,363.991 207.613 C 363.547 208.237,362.924 209.482,362.607 210.380 C 362.290 211.278,361.594 212.595,361.060 213.306 C 360.526 214.018,359.617 215.500,359.040 216.600 C 357.417 219.693,352.420 227.153,351.411 227.991 C 351.043 228.296,350.391 229.234,349.963 230.073 C 349.534 230.913,349.052 231.600,348.892 231.601 C 348.632 231.602,344.162 236.638,342.168 239.177 C 340.943 240.736,328.409 253.877,322.163 260.150 C 319.117 263.210,314.030 268.872,312.400 271.019 C 311.850 271.743,310.095 274.031,308.500 276.103 C 306.905 278.175,305.600 280.176,305.600 280.549 C 305.600 280.923,305.309 281.672,304.954 282.214 L 304.308 283.200 306.174 283.200 C 307.200 283.200,308.526 282.955,309.120 282.656 C 309.714 282.356,311.550 281.791,313.200 281.399 C 314.850 281.008,316.862 280.356,317.671 279.951 C 318.480 279.545,320.510 278.838,322.182 278.379 C 323.855 277.921,326.163 277.115,327.312 276.589 C 328.460 276.064,330.570 275.336,332.000 274.971 C 333.430 274.606,335.243 273.981,336.029 273.582 C 336.814 273.183,338.607 272.469,340.012 271.996 C 341.418 271.522,343.025 270.819,343.584 270.434 C 344.143 270.048,345.770 269.160,347.200 268.460 C 351.346 266.431,355.891 263.503,359.070 260.813 C 359.988 260.036,361.753 258.590,362.993 257.600 C 364.233 256.610,366.426 254.585,367.867 253.100 C 369.308 251.615,370.692 250.399,370.943 250.398 C 371.195 250.396,371.895 250.137,372.499 249.822 C 374.709 248.669,374.962 250.953,373.200 256.134 C 372.540 258.075,372.000 259.847,372.000 260.072 C 372.000 260.297,370.671 263.208,369.048 266.541 C 367.424 269.873,365.960 273.050,365.795 273.600 C 365.630 274.150,365.182 275.050,364.799 275.600 C 364.416 276.150,363.606 277.590,362.999 278.800 C 362.392 280.010,361.404 281.630,360.803 282.400 C 360.201 283.170,359.404 284.398,359.030 285.128 C 358.130 286.887,355.320 290.520,352.939 293.000 C 351.884 294.100,350.746 295.376,350.410 295.835 C 349.775 296.704,346.588 299.511,341.000 304.122 C 338.326 306.328,328.502 311.788,325.400 312.792 C 324.520 313.076,322.990 313.709,322.000 314.197 C 321.010 314.685,318.490 315.480,316.400 315.963 C 314.310 316.447,311.340 317.186,309.800 317.607 C 306.858 318.410,294.347 319.784,286.200 320.199 C 272.854 320.878,258.679 322.391,254.200 323.616 C 252.660 324.038,249.870 324.671,248.000 325.023 C 246.130 325.376,243.790 326.067,242.800 326.560 C 241.810 327.053,240.015 327.804,238.812 328.228 C 231.951 330.648,229.694 336.562,233.904 341.089 C 238.235 345.747,240.044 345.986,276.418 346.715 C 289.365 346.975,290.738 347.067,291.781 347.751 L 292.926 348.501 291.963 349.242 C 291.433 349.649,290.802 349.986,290.560 349.991 C 290.318 349.996,289.408 350.516,288.537 351.147 C 287.667 351.777,285.816 352.697,284.424 353.192 C 283.032 353.686,281.332 354.420,280.647 354.822 C 279.961 355.225,277.870 356.034,276.000 356.621 C 274.130 357.207,272.420 357.825,272.200 357.995 C 271.980 358.165,270.090 358.696,268.000 359.175 C 265.910 359.654,262.940 360.472,261.400 360.992 C 259.860 361.512,256.890 362.239,254.800 362.607 C 252.710 362.975,249.380 363.704,247.400 364.228 C 245.420 364.752,240.380 365.634,236.200 366.187 C 232.020 366.740,227.160 367.447,225.400 367.758 C 223.640 368.069,218.150 368.620,213.200 368.983 C 208.250 369.346,201.320 369.912,197.800 370.242 C 190.251 370.950,154.497 371.749,147.000 371.377 C 141.375 371.098,126.867 368.516,124.894 367.443 C 124.292 367.116,122.540 366.455,121.000 365.974 C 119.460 365.494,117.404 364.583,116.431 363.950 C 115.459 363.318,114.451 362.800,114.191 362.800 C 113.932 362.800,112.990 362.271,112.097 361.624 C 111.204 360.978,109.512 359.885,108.337 359.196 C 100.479 354.588,89.032 343.589,83.400 335.233 C 80.219 330.513,79.159 328.849,78.187 327.047 C 77.607 325.974,76.816 324.754,76.427 324.337 C 76.039 323.920,75.483 322.819,75.191 321.890 C 74.900 320.960,74.063 319.103,73.331 317.762 C 72.599 316.420,72.000 315.070,72.000 314.762 C 72.000 314.453,71.445 313.030,70.767 311.600 C 70.089 310.170,69.081 307.380,68.526 305.400 C 67.971 303.420,67.259 300.900,66.943 299.800 C 61.581 281.146,64.231 256.418,73.631 237.400 C 74.501 235.640,75.212 234.020,75.210 233.800 C 75.209 233.580,75.836 232.610,76.604 231.644 C 77.372 230.678,78.000 229.702,78.000 229.476 C 78.000 229.250,78.820 227.970,79.822 226.632 C 80.824 225.294,82.367 223.210,83.251 222.000 C 85.465 218.969,94.096 210.309,96.931 208.273 C 98.213 207.353,99.923 206.022,100.731 205.316 C 101.539 204.610,102.823 203.710,103.586 203.316 C 104.348 202.922,105.725 202.039,106.647 201.353 C 107.568 200.667,108.824 199.980,109.437 199.827 C 110.050 199.673,111.042 199.197,111.643 198.770 C 112.243 198.342,114.054 197.434,115.667 196.752 C 117.280 196.069,118.780 195.376,119.000 195.211 C 119.635 194.734,129.575 191.688,132.000 191.227 C 144.355 188.877,164.738 189.282,172.314 192.029 C 174.620 192.865,180.577 194.660,184.993 195.849 C 190.616 197.364,206.757 195.353,214.000 192.236 C 215.210 191.716,217.190 190.974,218.400 190.588 C 219.610 190.203,221.050 189.588,221.600 189.222 C 222.150 188.856,223.410 188.212,224.400 187.791 C 228.316 186.124,238.403 180.649,240.490 179.056 C 241.252 178.475,242.043 178.000,242.247 178.000 C 242.451 178.000,243.272 177.461,244.071 176.802 C 244.871 176.143,246.309 175.268,247.268 174.857 C 248.227 174.446,249.267 173.802,249.579 173.425 C 249.891 173.049,250.801 172.408,251.600 172.000 C 252.399 171.592,253.301 170.961,253.603 170.597 C 253.905 170.233,255.153 169.403,256.376 168.753 C 257.599 168.103,259.159 167.216,259.843 166.782 C 260.999 166.048,261.187 166.035,262.543 166.602 C 264.173 167.283,264.228 167.529,263.612 171.400 C 263.402 172.720,262.955 176.590,262.619 180.000 C 262.282 183.410,261.731 187.190,261.394 188.400 C 261.057 189.610,260.252 192.670,259.606 195.200 C 258.961 197.730,258.083 200.520,257.657 201.400 C 257.230 202.280,256.683 203.740,256.440 204.645 C 256.197 205.550,255.586 206.900,255.082 207.645 C 254.577 208.390,253.585 210.170,252.876 211.600 C 251.573 214.229,250.195 216.515,247.545 220.443 C 245.297 223.775,238.805 230.379,235.595 232.600 C 234.004 233.700,232.140 235.071,231.452 235.646 C 230.763 236.222,229.459 237.068,228.553 237.527 C 227.648 237.986,226.388 238.795,225.753 239.325 C 225.119 239.854,224.002 240.594,223.272 240.969 C 214.436 245.500,206.506 256.124,206.885 262.923 C 207.542 274.725,227.959 282.445,241.185 275.893 C 246.867 273.078,256.664 264.570,258.617 260.753 C 258.998 260.009,259.802 258.770,260.404 258.000 C 262.399 255.446,265.470 249.065,267.046 244.200 L 268.600 239.400 268.506 229.600 C 268.309 209.180,269.855 196.570,273.409 189.600 C 274.138 188.170,274.943 186.434,275.198 185.742 C 275.453 185.050,275.992 184.130,276.394 183.698 C 276.797 183.266,277.491 182.198,277.936 181.326 C 278.793 179.647,280.053 178.075,283.547 174.330 C 288.065 169.488,291.505 170.953,289.221 176.747 C 288.792 177.835,288.149 179.853,287.791 181.234 C 287.434 182.614,286.702 184.609,286.166 185.667 C 283.879 190.180,282.957 201.825,284.492 206.814 C 285.364 209.652,288.152 215.697,288.858 216.281 C 291.051 218.098,297.226 213.060,300.534 206.754 C 301.040 205.789,301.743 204.460,302.096 203.800 C 303.798 200.616,305.986 195.615,306.383 194.000 C 306.626 193.010,307.173 191.390,307.599 190.400 C 308.025 189.410,308.745 186.800,309.198 184.600 C 309.652 182.400,310.471 179.027,311.017 177.105 C 313.663 167.801,313.205 166.658,306.400 165.583 C 304.750 165.322,302.410 164.698,301.200 164.196 C 299.990 163.693,298.100 163.007,297.000 162.670 C 295.264 162.139,291.749 160.406,284.800 156.657 C 283.810 156.123,282.640 155.289,282.201 154.802 C 281.761 154.316,280.861 153.642,280.201 153.304 C 277.969 152.164,265.600 140.570,265.600 139.618 C 265.600 139.415,264.880 138.417,264.000 137.400 C 263.120 136.383,262.400 135.409,262.400 135.234 C 262.400 135.060,261.977 134.461,261.460 133.903 C 257.220 129.327,252.906 117.605,252.516 109.595 L 252.291 104.991 253.423 103.645 L 254.555 102.300 255.378 103.295 C 255.830 103.843,256.510 104.810,256.889 105.445 C 257.267 106.080,257.807 106.949,258.089 107.377 C 258.370 107.804,259.192 109.064,259.915 110.177 C 261.796 113.071,263.088 114.826,264.347 116.200 C 264.952 116.860,265.971 118.120,266.611 119.000 C 272.335 126.865,277.984 128.259,280.703 122.478 C 281.675 120.410,281.673 105.660,280.700 102.600 C 278.890 96.909,277.117 92.171,276.571 91.568 C 276.233 91.195,275.607 89.967,275.178 88.840 C 272.600 82.054,265.175 74.140,258.233 70.778 L 254.666 69.051 249.085 68.872 C 241.636 68.635,235.208 70.414,231.069 73.859 C 230.447 74.376,229.709 74.800,229.429 74.800 C 229.148 74.800,227.687 75.609,226.182 76.598 C 224.676 77.586,223.077 78.512,222.627 78.655 C 222.178 78.797,221.178 79.329,220.405 79.836 C 215.671 82.941,199.876 84.934,193.200 83.268 C 186.328 81.552,183.551 80.716,181.800 79.836 C 180.700 79.282,178.540 78.465,177.000 78.019 C 173.395 76.975,173.282 76.887,173.129 74.994 L 173.000 73.400 182.400 73.141 C 191.578 72.888,201.840 71.997,204.820 71.195 C 213.920 68.744,218.000 65.343,218.000 60.207 C 218.000 58.048,216.085 54.320,214.448 53.293 C 213.871 52.931,212.809 52.132,212.086 51.518 C 211.363 50.903,210.537 50.400,210.250 50.400 C 209.963 50.400,208.664 49.871,207.364 49.225 C 203.747 47.426,197.547 45.238,191.884 43.762 C 189.070 43.028,186.596 42.321,186.385 42.191 C 186.174 42.060,183.166 41.503,179.701 40.953 C 176.235 40.403,172.050 39.611,170.400 39.192 C 168.750 38.774,163.980 38.058,159.800 37.601 C 155.620 37.145,150.455 36.418,148.323 35.986 C 146.191 35.554,143.311 35.199,141.923 35.197 C 137.616 35.192,132.806 34.482,131.508 33.660 L 130.299 32.895 131.652 32.449 C 132.396 32.203,135.433 31.556,138.402 31.011 C 141.371 30.466,144.790 29.755,146.000 29.430 C 147.210 29.106,151.890 28.468,156.400 28.012 C 160.910 27.557,166.850 26.918,169.600 26.592 C 177.105 25.704,177.730 25.680,189.600 25.807 C 197.676 25.893,202.354 26.142,207.200 26.745 M130.260 47.426 C 131.613 47.725,133.393 48.427,134.216 48.985 C 135.039 49.543,136.036 50.000,136.433 50.000 C 138.762 50.000,143.653 56.330,144.852 60.897 C 147.664 71.607,141.784 77.191,126.200 78.609 C 119.284 79.239,113.375 84.591,107.918 95.168 C 106.604 97.716,105.303 100.070,105.026 100.400 C 104.750 100.730,103.943 102.035,103.233 103.300 C 102.522 104.565,101.788 105.600,101.600 105.600 C 100.076 105.600,98.146 99.930,97.438 93.373 C 96.656 86.127,94.978 85.237,89.200 89.005 C 87.770 89.938,86.060 91.000,85.400 91.366 C 84.740 91.732,83.120 92.843,81.800 93.834 C 80.480 94.826,78.500 96.238,77.400 96.971 C 76.300 97.704,75.057 98.686,74.638 99.152 C 74.219 99.618,73.672 100.000,73.423 100.000 C 73.174 100.000,72.347 100.533,71.585 101.184 C 69.133 103.279,65.971 102.634,67.118 100.273 C 67.351 99.793,68.028 97.870,68.623 96.000 C 69.217 94.130,69.930 92.330,70.205 92.000 C 70.481 91.670,71.365 90.050,72.168 88.400 C 74.739 83.119,77.703 78.186,80.000 75.364 C 80.770 74.418,82.030 72.779,82.800 71.722 C 84.628 69.213,94.451 59.398,96.934 57.600 C 97.997 56.830,99.527 55.640,100.334 54.955 C 101.140 54.269,102.430 53.388,103.200 52.995 C 103.970 52.603,105.140 51.880,105.800 51.390 C 106.460 50.900,107.720 50.272,108.600 49.995 C 109.480 49.718,110.915 49.132,111.789 48.693 C 116.096 46.526,123.795 45.998,130.260 47.426 M224.624 95.998 C 230.980 99.065,234.200 104.515,234.200 112.209 L 234.200 117.018 232.514 119.855 C 229.071 125.650,221.692 130.094,212.009 132.204 C 200.513 134.709,193.364 131.314,184.190 118.991 C 178.139 110.862,177.170 109.678,173.720 106.200 C 169.766 102.214,167.559 100.528,165.610 100.003 C 162.424 99.145,162.209 95.417,165.328 95.119 C 167.325 94.929,173.799 96.884,176.193 98.400 C 177.062 98.950,178.625 99.850,179.668 100.400 C 180.711 100.950,183.057 102.409,184.882 103.641 C 193.470 109.443,197.350 110.075,200.925 106.256 C 202.066 105.037,204.440 102.501,206.200 100.621 C 212.139 94.277,218.004 92.805,224.624 95.998 " stroke="none" fill="#fbac8d" fill-rule="evenodd"></path></g></svg>